M48
; DRILL file {KiCad 7.0.1} date Thu 20 Apr 2023 15:53:41 IST
; FORMAT={-:-/ absolute / metric / decimal}
; #@! TF.CreationDate,2023-04-20T15:53:41+01:00
; #@! TF.GenerationSoftware,Kicad,Pcbnew,7.0.1
; #@! TF.FileFunction,Plated,1,2,PTH
FMAT,2
METRIC
; #@! TA.AperFunction,Plated,PTH,ViaDrill
T1C0.400
; #@! TA.AperFunction,Plated,PTH,ComponentDrill
T2C0.800
; #@! TA.AperFunction,Plated,PTH,ComponentDrill
T3C0.900
; #@! TA.AperFunction,Plated,PTH,ComponentDrill
T4C1.000
; #@! TA.AperFunction,Plated,PTH,ComponentDrill
T5C1.040
; #@! TA.AperFunction,Plated,PTH,ComponentDrill
T6C1.100
; #@! TA.AperFunction,Plated,PTH,ComponentDrill
T7C1.400
; #@! TA.AperFunction,Plated,PTH,ComponentDrill
T8C1.500
; #@! TA.AperFunction,Plated,PTH,ComponentDrill
T9C3.200
; #@! TA.AperFunction,Plated,PTH,ComponentDrill
T10C3.300
%
G90
G05
T1
X149.86Y-96.52
X157.48Y-96.52
X160.02Y-96.52
X167.64Y-96.52
T2
X106.68Y-81.32
X106.68Y-83.82
X106.68Y-100.33
X106.68Y-107.95
X107.95Y-114.3
X115.57Y-114.3
X124.46Y-111.76
X129.46Y-111.76
X134.62Y-111.76
X139.62Y-111.76
X162.56Y-81.32
X162.56Y-83.82
T3
X154.94Y-91.44
X154.94Y-114.3
X157.48Y-91.44
X157.48Y-114.3
X160.02Y-91.44
X160.02Y-114.3
X162.56Y-91.44
X162.56Y-114.3
X165.1Y-91.44
X165.1Y-114.3
X167.64Y-91.44
X167.64Y-114.3
X170.18Y-91.44
X170.18Y-114.3
X172.72Y-91.44
X172.72Y-114.3
X175.26Y-91.44
X175.26Y-114.3
X177.8Y-91.44
X177.8Y-114.3
X180.34Y-91.44
X180.34Y-114.3
X182.88Y-91.44
X182.88Y-114.3
X185.42Y-91.44
X185.42Y-114.3
X187.96Y-91.44
X187.96Y-114.3
X190.5Y-91.44
X190.5Y-114.3
X193.04Y-91.44
X193.04Y-114.3
X195.58Y-91.44
X195.58Y-114.3
X198.12Y-91.44
X198.12Y-114.3
X200.66Y-91.44
X200.66Y-114.3
T4
X114.22Y-120.65
X114.3Y-99.52
X116.76Y-120.65
X116.84Y-99.52
X119.3Y-120.65
X119.38Y-99.52
X121.84Y-120.65
X124.38Y-120.65
X126.92Y-120.65
X134.54Y-120.65
X137.08Y-120.65
X139.62Y-120.65
X142.16Y-120.65
X144.7Y-120.65
X147.24Y-120.65
X154.94Y-121.92
X157.48Y-121.92
X160.02Y-121.92
X161.29Y-73.66
X162.56Y-121.92
X163.83Y-73.66
X165.1Y-121.92
X167.64Y-121.92
X170.18Y-121.92
X172.72Y-121.92
T5
X130.81Y-92.71
X130.81Y-105.41
X133.35Y-92.71
X133.35Y-105.41
X135.89Y-92.71
X135.89Y-105.41
X138.43Y-92.71
X138.43Y-105.41
X140.97Y-92.71
X140.97Y-105.41
X143.51Y-92.71
X143.51Y-105.41
X146.05Y-92.71
X146.05Y-105.41
X148.59Y-92.71
X148.59Y-105.41
T6
X173.65Y-73.66
X173.65Y-76.2
X173.65Y-78.74
T7
X129.54Y-85.057
X134.62Y-85.057
X139.7Y-85.057
X147.32Y-78.74
X152.46Y-78.74
T8
X114.3Y-75.136
X119.38Y-75.136
T9
X106.68Y-73.66
X106.68Y-121.92
X198.12Y-73.66
X198.12Y-121.92
T10
X112.268Y-85.042
X121.412Y-85.042
T0
M30
