G04 #@! TF.GenerationSoftware,KiCad,Pcbnew,7.0.1*
G04 #@! TF.CreationDate,2023-04-20T15:53:33+01:00*
G04 #@! TF.ProjectId,SelfBalancingRobot,53656c66-4261-46c6-916e-63696e67526f,rev?*
G04 #@! TF.SameCoordinates,Original*
G04 #@! TF.FileFunction,Copper,L2,Bot*
G04 #@! TF.FilePolarity,Positive*
%FSLAX46Y46*%
G04 Gerber Fmt 4.6, Leading zero omitted, Abs format (unit mm)*
G04 Created by KiCad (PCBNEW 7.0.1) date 2023-04-20 15:53:33*
%MOMM*%
%LPD*%
G01*
G04 APERTURE LIST*
G04 Aperture macros list*
%AMRoundRect*
0 Rectangle with rounded corners*
0 $1 Rounding radius*
0 $2 $3 $4 $5 $6 $7 $8 $9 X,Y pos of 4 corners*
0 Add a 4 corners polygon primitive as box body*
4,1,4,$2,$3,$4,$5,$6,$7,$8,$9,$2,$3,0*
0 Add four circle primitives for the rounded corners*
1,1,$1+$1,$2,$3*
1,1,$1+$1,$4,$5*
1,1,$1+$1,$6,$7*
1,1,$1+$1,$8,$9*
0 Add four rect primitives between the rounded corners*
20,1,$1+$1,$2,$3,$4,$5,0*
20,1,$1+$1,$4,$5,$6,$7,0*
20,1,$1+$1,$6,$7,$8,$9,0*
20,1,$1+$1,$8,$9,$2,$3,0*%
G04 Aperture macros list end*
G04 #@! TA.AperFunction,ComponentPad*
%ADD10O,3.500000X3.500000*%
G04 #@! TD*
G04 #@! TA.AperFunction,ComponentPad*
%ADD11R,1.700000X1.700000*%
G04 #@! TD*
G04 #@! TA.AperFunction,ComponentPad*
%ADD12O,1.700000X1.700000*%
G04 #@! TD*
G04 #@! TA.AperFunction,ComponentPad*
%ADD13O,2.200000X2.200000*%
G04 #@! TD*
G04 #@! TA.AperFunction,ComponentPad*
%ADD14RoundRect,0.550000X0.550000X-0.550000X0.550000X0.550000X-0.550000X0.550000X-0.550000X-0.550000X0*%
G04 #@! TD*
G04 #@! TA.AperFunction,ComponentPad*
%ADD15RoundRect,0.550000X-0.550000X0.550000X-0.550000X-0.550000X0.550000X-0.550000X0.550000X0.550000X0*%
G04 #@! TD*
G04 #@! TA.AperFunction,ComponentPad*
%ADD16RoundRect,0.249999X0.790001X1.550001X-0.790001X1.550001X-0.790001X-1.550001X0.790001X-1.550001X0*%
G04 #@! TD*
G04 #@! TA.AperFunction,ComponentPad*
%ADD17O,2.080000X3.600000*%
G04 #@! TD*
G04 #@! TA.AperFunction,ComponentPad*
%ADD18O,1.600000X1.600000*%
G04 #@! TD*
G04 #@! TA.AperFunction,ComponentPad*
%ADD19C,1.600000*%
G04 #@! TD*
G04 #@! TA.AperFunction,ComponentPad*
%ADD20R,2.000000X1.905000*%
G04 #@! TD*
G04 #@! TA.AperFunction,ComponentPad*
%ADD21O,2.000000X1.905000*%
G04 #@! TD*
G04 #@! TA.AperFunction,ComponentPad*
%ADD22C,3.600000*%
G04 #@! TD*
G04 #@! TA.AperFunction,ConnectorPad*
%ADD23C,5.600000*%
G04 #@! TD*
G04 #@! TA.AperFunction,ComponentPad*
%ADD24R,1.600000X1.600000*%
G04 #@! TD*
G04 #@! TA.AperFunction,ComponentPad*
%ADD25RoundRect,0.425000X0.425000X-0.425000X0.425000X0.425000X-0.425000X0.425000X-0.425000X-0.425000X0*%
G04 #@! TD*
G04 #@! TA.AperFunction,ComponentPad*
%ADD26R,1.560000X1.560000*%
G04 #@! TD*
G04 #@! TA.AperFunction,ComponentPad*
%ADD27C,1.560000*%
G04 #@! TD*
G04 #@! TA.AperFunction,ComponentPad*
%ADD28R,1.350000X1.350000*%
G04 #@! TD*
G04 #@! TA.AperFunction,ComponentPad*
%ADD29C,1.350000*%
G04 #@! TD*
G04 #@! TA.AperFunction,ViaPad*
%ADD30C,0.800000*%
G04 #@! TD*
G04 #@! TA.AperFunction,Conductor*
%ADD31C,0.800000*%
G04 #@! TD*
G04 #@! TA.AperFunction,Conductor*
%ADD32C,0.200000*%
G04 #@! TD*
G04 APERTURE END LIST*
D10*
X112268000Y-85042000D03*
X121412000Y-85042000D03*
D11*
X114300000Y-99520000D03*
D12*
X116840000Y-99520000D03*
X119380000Y-99520000D03*
D13*
X119380000Y-75136000D03*
D14*
X114300000Y-75136000D03*
D13*
X152460000Y-78740000D03*
D15*
X147320000Y-78740000D03*
D11*
X163830000Y-73660000D03*
D12*
X161290000Y-73660000D03*
D16*
X139700000Y-85057500D03*
D17*
X134620000Y-85057500D03*
X129540000Y-85057500D03*
D18*
X106680000Y-100330000D03*
D19*
X106680000Y-107950000D03*
X107950000Y-114300000D03*
D18*
X115570000Y-114300000D03*
D20*
X173650000Y-73660000D03*
D21*
X173650000Y-76200000D03*
X173650000Y-78740000D03*
D22*
X106680000Y-121920000D03*
D23*
X106680000Y-121920000D03*
D24*
X106680000Y-81320000D03*
D19*
X106680000Y-83820000D03*
D22*
X198120000Y-73660000D03*
D23*
X198120000Y-73660000D03*
D25*
X134540000Y-120650000D03*
X137080000Y-120650000D03*
D12*
X139620000Y-120650000D03*
X142160000Y-120650000D03*
X144700000Y-120650000D03*
X147240000Y-120650000D03*
D26*
X130810000Y-105410000D03*
D27*
X133350000Y-105410000D03*
X135890000Y-105410000D03*
X138430000Y-105410000D03*
X140970000Y-105410000D03*
X143510000Y-105410000D03*
X146050000Y-105410000D03*
D26*
X148590000Y-105410000D03*
X148590000Y-92710000D03*
D27*
X146050000Y-92710000D03*
X143510000Y-92710000D03*
X140970000Y-92710000D03*
X138430000Y-92710000D03*
X135890000Y-92710000D03*
X133350000Y-92710000D03*
X130810000Y-92710000D03*
D19*
X124460000Y-111760000D03*
X129460000Y-111760000D03*
D22*
X198120000Y-121920000D03*
D23*
X198120000Y-121920000D03*
D19*
X134620000Y-111760000D03*
X139620000Y-111760000D03*
D25*
X114220000Y-120650000D03*
X116760000Y-120650000D03*
D12*
X119300000Y-120650000D03*
X121840000Y-120650000D03*
X124380000Y-120650000D03*
X126920000Y-120650000D03*
X170180000Y-121920000D03*
D11*
X157480000Y-121920000D03*
D12*
X172720000Y-121920000D03*
X160020000Y-121920000D03*
X162560000Y-121920000D03*
D25*
X154940000Y-121920000D03*
D12*
X167640000Y-121920000D03*
X165100000Y-121920000D03*
D22*
X106680000Y-73660000D03*
D23*
X106680000Y-73660000D03*
D28*
X154940000Y-91440000D03*
D29*
X157480000Y-91440000D03*
X160020000Y-91440000D03*
X162560000Y-91440000D03*
X165100000Y-91440000D03*
X167640000Y-91440000D03*
X170180000Y-91440000D03*
X172720000Y-91440000D03*
X175260000Y-91440000D03*
X177800000Y-91440000D03*
X180340000Y-91440000D03*
X182880000Y-91440000D03*
X185420000Y-91440000D03*
X187960000Y-91440000D03*
X190500000Y-91440000D03*
X193040000Y-91440000D03*
X195580000Y-91440000D03*
X198120000Y-91440000D03*
X200660000Y-91440000D03*
D28*
X200660000Y-114300000D03*
D29*
X198120000Y-114300000D03*
X195580000Y-114300000D03*
X193040000Y-114300000D03*
X190500000Y-114300000D03*
X187960000Y-114300000D03*
X185420000Y-114300000D03*
X182880000Y-114300000D03*
X180340000Y-114300000D03*
X177800000Y-114300000D03*
X175260000Y-114300000D03*
X172720000Y-114300000D03*
X170180000Y-114300000D03*
X167640000Y-114300000D03*
X165100000Y-114300000D03*
X162560000Y-114300000D03*
X160020000Y-114300000D03*
X157480000Y-114300000D03*
X154940000Y-114300000D03*
D24*
X162560000Y-81320000D03*
D19*
X162560000Y-83820000D03*
D30*
X149860000Y-96520000D03*
X167640000Y-96520000D03*
X160020000Y-96520000D03*
X157480000Y-96520000D03*
D31*
X149860000Y-96520000D02*
X149860000Y-93980000D01*
X149860000Y-93980000D02*
X148590000Y-92710000D01*
D32*
X142160000Y-120650000D02*
X145062000Y-117748000D01*
X145062000Y-117748000D02*
X159112000Y-117748000D01*
X159112000Y-117748000D02*
X162560000Y-114300000D01*
X121840000Y-120650000D02*
X125196000Y-117294000D01*
X125196000Y-117294000D02*
X157026000Y-117294000D01*
X157026000Y-117294000D02*
X160020000Y-114300000D01*
X107950000Y-114300000D02*
X107950000Y-115570000D01*
X119380000Y-114300000D02*
X142782387Y-114300000D01*
X107950000Y-115570000D02*
X109220000Y-116840000D01*
X109220000Y-116840000D02*
X116840000Y-116840000D01*
X116840000Y-116840000D02*
X119380000Y-114300000D01*
X142782387Y-114300000D02*
X145322387Y-111760000D01*
X145322387Y-111760000D02*
X165100000Y-111760000D01*
X165100000Y-111760000D02*
X167640000Y-114300000D01*
X167640000Y-96520000D02*
X167640000Y-91440000D01*
X160020000Y-96520000D02*
X160020000Y-91440000D01*
X157480000Y-91440000D02*
X157480000Y-96520000D01*
X135890000Y-92710000D02*
X141786000Y-98606000D01*
X141786000Y-98606000D02*
X169991948Y-98606000D01*
X169991948Y-98606000D02*
X172720000Y-95877948D01*
X172720000Y-95877948D02*
X172720000Y-91440000D01*
X130810000Y-92710000D02*
X137160000Y-99060000D01*
X137160000Y-99060000D02*
X170180000Y-99060000D01*
X170180000Y-99060000D02*
X177800000Y-91440000D01*
X174231000Y-90411000D02*
X175260000Y-91440000D01*
X135649000Y-90411000D02*
X174231000Y-90411000D01*
X133350000Y-92710000D02*
X135649000Y-90411000D01*
X162560000Y-81320000D02*
X162520000Y-81320000D01*
X162520000Y-81320000D02*
X154940000Y-88900000D01*
X154940000Y-88900000D02*
X130000000Y-88900000D01*
X130000000Y-88900000D02*
X119380000Y-99520000D01*
G04 #@! TA.AperFunction,Conductor*
G36*
X153703000Y-91028113D02*
G01*
X153748387Y-91073500D01*
X153765000Y-91135500D01*
X153765000Y-91190000D01*
X155066000Y-91190000D01*
X155128000Y-91206613D01*
X155173387Y-91252000D01*
X155190000Y-91314000D01*
X155190000Y-92615000D01*
X155662824Y-92615000D01*
X155722375Y-92608597D01*
X155857089Y-92558352D01*
X155972188Y-92472188D01*
X156058352Y-92357089D01*
X156108597Y-92222375D01*
X156115000Y-92162824D01*
X156115000Y-91826879D01*
X156128864Y-91769905D01*
X156167356Y-91725671D01*
X156221869Y-91704068D01*
X156280212Y-91709928D01*
X156329340Y-91741940D01*
X156358266Y-91792945D01*
X156379181Y-91866457D01*
X156476287Y-92061471D01*
X156607573Y-92235323D01*
X156768565Y-92382086D01*
X156820778Y-92414415D01*
X156863829Y-92459503D01*
X156879500Y-92519842D01*
X156879500Y-95793547D01*
X156871264Y-95837985D01*
X156847650Y-95876519D01*
X156747466Y-95987783D01*
X156652820Y-96151715D01*
X156594326Y-96331742D01*
X156574540Y-96519999D01*
X156594326Y-96708257D01*
X156652820Y-96888284D01*
X156747466Y-97052216D01*
X156874129Y-97192889D01*
X157027269Y-97304151D01*
X157200197Y-97381144D01*
X157385352Y-97420500D01*
X157385354Y-97420500D01*
X157574646Y-97420500D01*
X157574648Y-97420500D01*
X157698083Y-97394262D01*
X157759803Y-97381144D01*
X157932730Y-97304151D01*
X158085871Y-97192888D01*
X158212533Y-97052216D01*
X158307179Y-96888284D01*
X158365674Y-96708256D01*
X158385460Y-96520000D01*
X158365674Y-96331744D01*
X158307179Y-96151716D01*
X158307179Y-96151715D01*
X158212533Y-95987783D01*
X158112350Y-95876519D01*
X158088736Y-95837985D01*
X158080500Y-95793547D01*
X158080500Y-92519842D01*
X158096171Y-92459503D01*
X158139222Y-92414415D01*
X158140841Y-92413412D01*
X158191432Y-92382088D01*
X158352427Y-92235322D01*
X158483712Y-92061472D01*
X158580817Y-91866459D01*
X158580869Y-91866278D01*
X158630734Y-91691020D01*
X158663133Y-91636466D01*
X158718275Y-91605081D01*
X158781725Y-91605081D01*
X158836867Y-91636466D01*
X158869266Y-91691020D01*
X158919181Y-91866457D01*
X159016287Y-92061471D01*
X159147573Y-92235323D01*
X159308565Y-92382086D01*
X159360778Y-92414415D01*
X159403829Y-92459503D01*
X159419500Y-92519842D01*
X159419500Y-95793547D01*
X159411264Y-95837985D01*
X159387650Y-95876519D01*
X159287466Y-95987783D01*
X159192820Y-96151715D01*
X159134326Y-96331742D01*
X159114540Y-96519999D01*
X159134326Y-96708257D01*
X159192820Y-96888284D01*
X159287466Y-97052216D01*
X159414129Y-97192889D01*
X159567269Y-97304151D01*
X159740197Y-97381144D01*
X159925352Y-97420500D01*
X159925354Y-97420500D01*
X160114646Y-97420500D01*
X160114648Y-97420500D01*
X160238083Y-97394262D01*
X160299803Y-97381144D01*
X160472730Y-97304151D01*
X160625871Y-97192888D01*
X160752533Y-97052216D01*
X160847179Y-96888284D01*
X160905674Y-96708256D01*
X160925460Y-96520000D01*
X160905674Y-96331744D01*
X160847179Y-96151716D01*
X160847179Y-96151715D01*
X160752533Y-95987783D01*
X160652350Y-95876519D01*
X160628736Y-95837985D01*
X160620500Y-95793547D01*
X160620500Y-92519842D01*
X160636171Y-92459503D01*
X160679222Y-92414415D01*
X160680841Y-92413412D01*
X160731432Y-92382088D01*
X160892427Y-92235322D01*
X161023712Y-92061472D01*
X161120817Y-91866459D01*
X161120869Y-91866278D01*
X161170734Y-91691020D01*
X161203133Y-91636466D01*
X161258275Y-91605081D01*
X161321725Y-91605081D01*
X161376867Y-91636466D01*
X161409266Y-91691020D01*
X161459181Y-91866457D01*
X161556287Y-92061471D01*
X161687573Y-92235323D01*
X161796089Y-92334247D01*
X161848568Y-92382088D01*
X161900778Y-92414415D01*
X162033791Y-92496773D01*
X162192745Y-92558352D01*
X162236931Y-92575470D01*
X162451074Y-92615500D01*
X162668924Y-92615500D01*
X162668926Y-92615500D01*
X162883069Y-92575470D01*
X163026660Y-92519842D01*
X163086208Y-92496773D01*
X163086210Y-92496772D01*
X163271432Y-92382088D01*
X163432427Y-92235322D01*
X163563712Y-92061472D01*
X163660817Y-91866459D01*
X163660869Y-91866278D01*
X163710734Y-91691020D01*
X163743133Y-91636466D01*
X163798275Y-91605081D01*
X163861725Y-91605081D01*
X163916867Y-91636466D01*
X163949266Y-91691020D01*
X163999181Y-91866457D01*
X164096287Y-92061471D01*
X164227573Y-92235323D01*
X164336089Y-92334247D01*
X164388568Y-92382088D01*
X164440778Y-92414415D01*
X164573791Y-92496773D01*
X164732745Y-92558352D01*
X164776931Y-92575470D01*
X164991074Y-92615500D01*
X165208924Y-92615500D01*
X165208926Y-92615500D01*
X165423069Y-92575470D01*
X165566660Y-92519842D01*
X165626208Y-92496773D01*
X165626210Y-92496772D01*
X165811432Y-92382088D01*
X165972427Y-92235322D01*
X166103712Y-92061472D01*
X166200817Y-91866459D01*
X166200869Y-91866278D01*
X166250734Y-91691020D01*
X166283133Y-91636466D01*
X166338275Y-91605081D01*
X166401725Y-91605081D01*
X166456867Y-91636466D01*
X166489266Y-91691020D01*
X166539181Y-91866457D01*
X166636287Y-92061471D01*
X166767573Y-92235323D01*
X166928565Y-92382086D01*
X166980778Y-92414415D01*
X167023829Y-92459503D01*
X167039500Y-92519842D01*
X167039500Y-95793547D01*
X167031264Y-95837985D01*
X167007650Y-95876519D01*
X166907466Y-95987783D01*
X166812820Y-96151715D01*
X166754326Y-96331742D01*
X166734540Y-96519999D01*
X166754326Y-96708257D01*
X166812820Y-96888284D01*
X166907466Y-97052216D01*
X167034129Y-97192889D01*
X167187269Y-97304151D01*
X167360197Y-97381144D01*
X167545352Y-97420500D01*
X167545354Y-97420500D01*
X167734646Y-97420500D01*
X167734648Y-97420500D01*
X167858083Y-97394262D01*
X167919803Y-97381144D01*
X168092730Y-97304151D01*
X168245871Y-97192888D01*
X168372533Y-97052216D01*
X168467179Y-96888284D01*
X168525674Y-96708256D01*
X168545460Y-96520000D01*
X168525674Y-96331744D01*
X168467179Y-96151716D01*
X168467179Y-96151715D01*
X168372533Y-95987783D01*
X168272350Y-95876519D01*
X168248736Y-95837985D01*
X168240500Y-95793547D01*
X168240500Y-92519842D01*
X168256171Y-92459503D01*
X168285564Y-92428719D01*
X169544831Y-92428719D01*
X169654013Y-92496322D01*
X169857068Y-92574986D01*
X170071122Y-92615000D01*
X170288878Y-92615000D01*
X170502931Y-92574986D01*
X170705988Y-92496322D01*
X170815166Y-92428720D01*
X170815166Y-92428719D01*
X170180001Y-91793553D01*
X170180000Y-91793553D01*
X169544831Y-92428719D01*
X168285564Y-92428719D01*
X168299222Y-92414415D01*
X168300841Y-92413412D01*
X168351432Y-92382088D01*
X168512427Y-92235322D01*
X168643712Y-92061472D01*
X168740817Y-91866459D01*
X168790994Y-91690104D01*
X168823391Y-91635555D01*
X168878534Y-91604169D01*
X168941983Y-91604169D01*
X168997126Y-91635554D01*
X169029525Y-91690107D01*
X169079651Y-91866278D01*
X169176712Y-92061204D01*
X169188987Y-92077459D01*
X170092318Y-91174128D01*
X170147905Y-91142034D01*
X170212093Y-91142034D01*
X170267680Y-91174128D01*
X171171011Y-92077459D01*
X171171012Y-92077459D01*
X171183285Y-92061208D01*
X171280349Y-91866277D01*
X171330474Y-91690108D01*
X171362873Y-91635554D01*
X171418015Y-91604169D01*
X171481464Y-91604169D01*
X171536607Y-91635554D01*
X171569006Y-91690108D01*
X171619181Y-91866457D01*
X171716287Y-92061471D01*
X171847573Y-92235323D01*
X172008565Y-92382086D01*
X172060778Y-92414415D01*
X172103829Y-92459503D01*
X172119500Y-92519842D01*
X172119500Y-95577851D01*
X172110061Y-95625304D01*
X172083181Y-95665532D01*
X169779532Y-97969181D01*
X169739304Y-97996061D01*
X169691851Y-98005500D01*
X142086097Y-98005500D01*
X142038644Y-97996061D01*
X141998416Y-97969181D01*
X138226662Y-94197427D01*
X138195761Y-94146000D01*
X138192621Y-94086086D01*
X138217977Y-94031710D01*
X138265893Y-93995603D01*
X138325151Y-93986218D01*
X138430000Y-93995391D01*
X138653206Y-93975863D01*
X138869630Y-93917872D01*
X139072696Y-93823181D01*
X139256233Y-93694667D01*
X139414667Y-93536233D01*
X139543181Y-93352696D01*
X139587618Y-93257399D01*
X139633375Y-93205224D01*
X139700000Y-93185805D01*
X139766625Y-93205224D01*
X139812381Y-93257399D01*
X139856819Y-93352696D01*
X139985333Y-93536233D01*
X140143767Y-93694667D01*
X140327304Y-93823181D01*
X140530370Y-93917872D01*
X140746794Y-93975863D01*
X140970000Y-93995391D01*
X141193206Y-93975863D01*
X141409630Y-93917872D01*
X141612696Y-93823181D01*
X141796233Y-93694667D01*
X141954667Y-93536233D01*
X142083181Y-93352696D01*
X142127618Y-93257399D01*
X142173375Y-93205224D01*
X142240000Y-93185805D01*
X142306625Y-93205224D01*
X142352381Y-93257399D01*
X142396819Y-93352696D01*
X142525333Y-93536233D01*
X142683767Y-93694667D01*
X142867304Y-93823181D01*
X143070370Y-93917872D01*
X143286794Y-93975863D01*
X143510000Y-93995391D01*
X143733206Y-93975863D01*
X143949630Y-93917872D01*
X144152696Y-93823181D01*
X144336233Y-93694667D01*
X144494667Y-93536233D01*
X144623181Y-93352696D01*
X144667618Y-93257399D01*
X144713375Y-93205224D01*
X144780000Y-93185805D01*
X144846625Y-93205224D01*
X144892381Y-93257399D01*
X144936819Y-93352696D01*
X145065333Y-93536233D01*
X145223767Y-93694667D01*
X145407304Y-93823181D01*
X145610370Y-93917872D01*
X145826794Y-93975863D01*
X146050000Y-93995391D01*
X146273206Y-93975863D01*
X146489630Y-93917872D01*
X146692696Y-93823181D01*
X146876233Y-93694667D01*
X147034667Y-93536233D01*
X147084427Y-93465168D01*
X147131642Y-93424843D01*
X147192490Y-93412464D01*
X147251710Y-93431136D01*
X147294453Y-93476178D01*
X147308704Y-93531282D01*
X147309290Y-93531220D01*
X147309718Y-93535205D01*
X147310000Y-93536294D01*
X147310000Y-93537824D01*
X147316402Y-93597375D01*
X147366647Y-93732089D01*
X147452811Y-93847188D01*
X147567910Y-93933352D01*
X147702624Y-93983597D01*
X147762176Y-93990000D01*
X148340000Y-93990000D01*
X148340000Y-92960000D01*
X148840000Y-92960000D01*
X148840000Y-93990000D01*
X149417824Y-93990000D01*
X149477375Y-93983597D01*
X149612089Y-93933352D01*
X149727188Y-93847188D01*
X149813352Y-93732089D01*
X149863597Y-93597375D01*
X149870000Y-93537824D01*
X149870000Y-92960000D01*
X148840000Y-92960000D01*
X148340000Y-92960000D01*
X148340000Y-91430000D01*
X148840000Y-91430000D01*
X148840000Y-92460000D01*
X149870000Y-92460000D01*
X149870000Y-91882176D01*
X149863597Y-91822624D01*
X149814132Y-91690000D01*
X153765000Y-91690000D01*
X153765000Y-92162824D01*
X153771402Y-92222375D01*
X153821647Y-92357089D01*
X153907811Y-92472188D01*
X154022910Y-92558352D01*
X154157624Y-92608597D01*
X154217176Y-92615000D01*
X154690000Y-92615000D01*
X154690000Y-91690000D01*
X153765000Y-91690000D01*
X149814132Y-91690000D01*
X149813352Y-91687910D01*
X149727188Y-91572811D01*
X149612089Y-91486647D01*
X149477375Y-91436402D01*
X149417824Y-91430000D01*
X148840000Y-91430000D01*
X148340000Y-91430000D01*
X147762176Y-91430000D01*
X147702624Y-91436402D01*
X147567910Y-91486647D01*
X147452811Y-91572811D01*
X147366647Y-91687910D01*
X147316402Y-91822624D01*
X147310000Y-91882176D01*
X147310000Y-91883706D01*
X147309718Y-91884794D01*
X147309290Y-91888780D01*
X147308704Y-91888717D01*
X147294453Y-91943822D01*
X147251710Y-91988864D01*
X147192490Y-92007536D01*
X147131642Y-91995157D01*
X147084426Y-91954831D01*
X147034667Y-91883767D01*
X146876233Y-91725333D01*
X146692696Y-91596819D01*
X146570693Y-91539928D01*
X146489631Y-91502128D01*
X146273203Y-91444136D01*
X146050000Y-91424608D01*
X145826796Y-91444136D01*
X145610368Y-91502128D01*
X145407304Y-91596819D01*
X145223766Y-91725333D01*
X145065333Y-91883766D01*
X144936819Y-92067304D01*
X144892382Y-92162600D01*
X144846625Y-92214776D01*
X144780000Y-92234195D01*
X144713375Y-92214776D01*
X144667618Y-92162600D01*
X144660531Y-92147403D01*
X144623181Y-92067305D01*
X144494667Y-91883767D01*
X144336233Y-91725333D01*
X144152696Y-91596819D01*
X144030693Y-91539928D01*
X143949631Y-91502128D01*
X143733203Y-91444136D01*
X143510000Y-91424608D01*
X143286796Y-91444136D01*
X143070368Y-91502128D01*
X142867304Y-91596819D01*
X142683766Y-91725333D01*
X142525333Y-91883766D01*
X142396819Y-92067304D01*
X142352382Y-92162600D01*
X142306625Y-92214776D01*
X142240000Y-92234195D01*
X142173375Y-92214776D01*
X142127618Y-92162600D01*
X142120531Y-92147403D01*
X142083181Y-92067305D01*
X141954667Y-91883767D01*
X141796233Y-91725333D01*
X141612696Y-91596819D01*
X141490693Y-91539928D01*
X141409631Y-91502128D01*
X141193203Y-91444136D01*
X140970000Y-91424608D01*
X140746796Y-91444136D01*
X140530368Y-91502128D01*
X140327304Y-91596819D01*
X140143766Y-91725333D01*
X139985333Y-91883766D01*
X139856819Y-92067304D01*
X139812382Y-92162600D01*
X139766625Y-92214776D01*
X139700000Y-92234195D01*
X139633375Y-92214776D01*
X139587618Y-92162600D01*
X139580531Y-92147403D01*
X139543181Y-92067305D01*
X139414667Y-91883767D01*
X139256233Y-91725333D01*
X139072696Y-91596819D01*
X138950693Y-91539928D01*
X138869631Y-91502128D01*
X138653203Y-91444136D01*
X138430000Y-91424608D01*
X138206796Y-91444136D01*
X137990368Y-91502128D01*
X137787304Y-91596819D01*
X137603766Y-91725333D01*
X137445333Y-91883766D01*
X137316819Y-92067304D01*
X137272382Y-92162600D01*
X137226625Y-92214776D01*
X137160000Y-92234195D01*
X137093375Y-92214776D01*
X137047618Y-92162600D01*
X137040531Y-92147403D01*
X137003181Y-92067305D01*
X136874667Y-91883767D01*
X136716233Y-91725333D01*
X136532696Y-91596819D01*
X136410693Y-91539928D01*
X136329631Y-91502128D01*
X136113203Y-91444136D01*
X135889999Y-91424608D01*
X135785149Y-91433781D01*
X135725891Y-91424395D01*
X135677975Y-91388288D01*
X135652620Y-91333913D01*
X135655760Y-91273998D01*
X135686657Y-91222577D01*
X135861418Y-91047816D01*
X135901645Y-91020939D01*
X135949097Y-91011500D01*
X153641000Y-91011500D01*
X153703000Y-91028113D01*
G37*
G04 #@! TD.AperFunction*
G04 #@! TA.AperFunction,Conductor*
G36*
X202637500Y-69097113D02*
G01*
X202682887Y-69142500D01*
X202699500Y-69204500D01*
X202699500Y-126375500D01*
X202682887Y-126437500D01*
X202637500Y-126482887D01*
X202575500Y-126499500D01*
X102224500Y-126499500D01*
X102162500Y-126482887D01*
X102117113Y-126437500D01*
X102100500Y-126375500D01*
X102100500Y-121920000D01*
X103374651Y-121920000D01*
X103394027Y-122277364D01*
X103394027Y-122277369D01*
X103394028Y-122277371D01*
X103411454Y-122383663D01*
X103451930Y-122630559D01*
X103547674Y-122975401D01*
X103680146Y-123307881D01*
X103847786Y-123624080D01*
X104048636Y-123920313D01*
X104280332Y-124193086D01*
X104540161Y-124439210D01*
X104825081Y-124655800D01*
X105131747Y-124840315D01*
X105456565Y-124990591D01*
X105795726Y-125104868D01*
X106145254Y-125181805D01*
X106466151Y-125216704D01*
X106501051Y-125220500D01*
X106501052Y-125220500D01*
X106858948Y-125220500D01*
X106858949Y-125220500D01*
X106890730Y-125217043D01*
X107214746Y-125181805D01*
X107564274Y-125104868D01*
X107903435Y-124990591D01*
X108228253Y-124840315D01*
X108534919Y-124655800D01*
X108819837Y-124439211D01*
X109079668Y-124193086D01*
X109311365Y-123920311D01*
X109512211Y-123624085D01*
X109604597Y-123449826D01*
X109679853Y-123307881D01*
X109812325Y-122975401D01*
X109908069Y-122630559D01*
X109908068Y-122630559D01*
X109908071Y-122630552D01*
X109944265Y-122409775D01*
X153589500Y-122409775D01*
X153595859Y-122490577D01*
X153646211Y-122678495D01*
X153646212Y-122678496D01*
X153734535Y-122851840D01*
X153856968Y-123003032D01*
X154008160Y-123125465D01*
X154181504Y-123213788D01*
X154369422Y-123264141D01*
X154450222Y-123270500D01*
X155429775Y-123270500D01*
X155429778Y-123270500D01*
X155510578Y-123264141D01*
X155698496Y-123213788D01*
X155871840Y-123125465D01*
X156020571Y-123005024D01*
X156080762Y-122978682D01*
X156145966Y-122986793D01*
X156197871Y-123027081D01*
X156272811Y-123127189D01*
X156387910Y-123213352D01*
X156522624Y-123263597D01*
X156582176Y-123270000D01*
X157230000Y-123270000D01*
X157730000Y-123270000D01*
X158377824Y-123270000D01*
X158437375Y-123263597D01*
X158572089Y-123213352D01*
X158687188Y-123127188D01*
X158773352Y-123012089D01*
X158822422Y-122880528D01*
X158857401Y-122830149D01*
X158912246Y-122802696D01*
X158973539Y-122804885D01*
X159026285Y-122836180D01*
X159148599Y-122958495D01*
X159342170Y-123094035D01*
X159556337Y-123193903D01*
X159784592Y-123255063D01*
X160020000Y-123275659D01*
X160255408Y-123255063D01*
X160483663Y-123193903D01*
X160697830Y-123094035D01*
X160891401Y-122958495D01*
X161058495Y-122791401D01*
X161188426Y-122605839D01*
X161232743Y-122566975D01*
X161290000Y-122552964D01*
X161347257Y-122566975D01*
X161391573Y-122605839D01*
X161521505Y-122791401D01*
X161688599Y-122958495D01*
X161882170Y-123094035D01*
X162096337Y-123193903D01*
X162324592Y-123255063D01*
X162560000Y-123275659D01*
X162795408Y-123255063D01*
X163023663Y-123193903D01*
X163237830Y-123094035D01*
X163431401Y-122958495D01*
X163598495Y-122791401D01*
X163728426Y-122605839D01*
X163772743Y-122566975D01*
X163830000Y-122552964D01*
X163887257Y-122566975D01*
X163931573Y-122605839D01*
X164061505Y-122791401D01*
X164228599Y-122958495D01*
X164422170Y-123094035D01*
X164636337Y-123193903D01*
X164864592Y-123255063D01*
X165100000Y-123275659D01*
X165335408Y-123255063D01*
X165563663Y-123193903D01*
X165777830Y-123094035D01*
X165971401Y-122958495D01*
X166138495Y-122791401D01*
X166268426Y-122605839D01*
X166312743Y-122566975D01*
X166370000Y-122552964D01*
X166427257Y-122566975D01*
X166471573Y-122605839D01*
X166601505Y-122791401D01*
X166768599Y-122958495D01*
X166962170Y-123094035D01*
X167176337Y-123193903D01*
X167404592Y-123255063D01*
X167640000Y-123275659D01*
X167875408Y-123255063D01*
X168103663Y-123193903D01*
X168317830Y-123094035D01*
X168511401Y-122958495D01*
X168678495Y-122791401D01*
X168808426Y-122605839D01*
X168852743Y-122566975D01*
X168910000Y-122552964D01*
X168967257Y-122566975D01*
X169011573Y-122605839D01*
X169141505Y-122791401D01*
X169308599Y-122958495D01*
X169502170Y-123094035D01*
X169716337Y-123193903D01*
X169944592Y-123255063D01*
X170180000Y-123275659D01*
X170415408Y-123255063D01*
X170643663Y-123193903D01*
X170857830Y-123094035D01*
X171051401Y-122958495D01*
X171218495Y-122791401D01*
X171348426Y-122605839D01*
X171392743Y-122566975D01*
X171450000Y-122552964D01*
X171507257Y-122566975D01*
X171551573Y-122605839D01*
X171681505Y-122791401D01*
X171848599Y-122958495D01*
X172042170Y-123094035D01*
X172256337Y-123193903D01*
X172484592Y-123255063D01*
X172720000Y-123275659D01*
X172955408Y-123255063D01*
X173183663Y-123193903D01*
X173397830Y-123094035D01*
X173591401Y-122958495D01*
X173758495Y-122791401D01*
X173894035Y-122597830D01*
X173993903Y-122383663D01*
X174055063Y-122155408D01*
X174075659Y-121920000D01*
X194814651Y-121920000D01*
X194834027Y-122277364D01*
X194834027Y-122277369D01*
X194834028Y-122277371D01*
X194851454Y-122383663D01*
X194891930Y-122630559D01*
X194987674Y-122975401D01*
X195120146Y-123307881D01*
X195287786Y-123624080D01*
X195488636Y-123920313D01*
X195720332Y-124193086D01*
X195980161Y-124439210D01*
X196265081Y-124655800D01*
X196571747Y-124840315D01*
X196896565Y-124990591D01*
X197235726Y-125104868D01*
X197585254Y-125181805D01*
X197906151Y-125216704D01*
X197941051Y-125220500D01*
X197941052Y-125220500D01*
X198298948Y-125220500D01*
X198298949Y-125220500D01*
X198330730Y-125217043D01*
X198654746Y-125181805D01*
X199004274Y-125104868D01*
X199343435Y-124990591D01*
X199668253Y-124840315D01*
X199974919Y-124655800D01*
X200259837Y-124439211D01*
X200519668Y-124193086D01*
X200751365Y-123920311D01*
X200952211Y-123624085D01*
X201044597Y-123449826D01*
X201119853Y-123307881D01*
X201252325Y-122975401D01*
X201348069Y-122630559D01*
X201348068Y-122630559D01*
X201348071Y-122630552D01*
X201405972Y-122277371D01*
X201425348Y-121920000D01*
X201405972Y-121562629D01*
X201348071Y-121209448D01*
X201348069Y-121209440D01*
X201252325Y-120864598D01*
X201119853Y-120532118D01*
X200952213Y-120215919D01*
X200952211Y-120215915D01*
X200751365Y-119919689D01*
X200751363Y-119919686D01*
X200519667Y-119646913D01*
X200259838Y-119400789D01*
X199974918Y-119184199D01*
X199668250Y-118999683D01*
X199343439Y-118849411D01*
X199343440Y-118849411D01*
X199343435Y-118849409D01*
X199004274Y-118735132D01*
X199004273Y-118735131D01*
X199004271Y-118735131D01*
X198792189Y-118688448D01*
X198654746Y-118658195D01*
X198476847Y-118638847D01*
X198298949Y-118619500D01*
X198298948Y-118619500D01*
X197941052Y-118619500D01*
X197941051Y-118619500D01*
X197585254Y-118658195D01*
X197235728Y-118735131D01*
X197063283Y-118793234D01*
X196896565Y-118849409D01*
X196896562Y-118849410D01*
X196896560Y-118849411D01*
X196571749Y-118999683D01*
X196265081Y-119184199D01*
X195980161Y-119400789D01*
X195720332Y-119646913D01*
X195488636Y-119919686D01*
X195287786Y-120215919D01*
X195120146Y-120532118D01*
X194987674Y-120864598D01*
X194891930Y-121209440D01*
X194834027Y-121562635D01*
X194814651Y-121920000D01*
X174075659Y-121920000D01*
X174055063Y-121684592D01*
X173993903Y-121456337D01*
X173894035Y-121242171D01*
X173758495Y-121048599D01*
X173591401Y-120881505D01*
X173397830Y-120745965D01*
X173183663Y-120646097D01*
X173109447Y-120626211D01*
X172955407Y-120584936D01*
X172720000Y-120564340D01*
X172484592Y-120584936D01*
X172256336Y-120646097D01*
X172042170Y-120745965D01*
X171848598Y-120881505D01*
X171681505Y-121048598D01*
X171551575Y-121234159D01*
X171507257Y-121273025D01*
X171450000Y-121287036D01*
X171392743Y-121273025D01*
X171348425Y-121234159D01*
X171218494Y-121048598D01*
X171051404Y-120881508D01*
X171051401Y-120881505D01*
X170857830Y-120745965D01*
X170643663Y-120646097D01*
X170569447Y-120626211D01*
X170415407Y-120584936D01*
X170180000Y-120564340D01*
X169944592Y-120584936D01*
X169716336Y-120646097D01*
X169502170Y-120745965D01*
X169308598Y-120881505D01*
X169141505Y-121048598D01*
X169011575Y-121234159D01*
X168967257Y-121273025D01*
X168910000Y-121287036D01*
X168852743Y-121273025D01*
X168808425Y-121234159D01*
X168678494Y-121048598D01*
X168511404Y-120881508D01*
X168511401Y-120881505D01*
X168317830Y-120745965D01*
X168103663Y-120646097D01*
X168029447Y-120626211D01*
X167875407Y-120584936D01*
X167640000Y-120564340D01*
X167404592Y-120584936D01*
X167176336Y-120646097D01*
X166962170Y-120745965D01*
X166768598Y-120881505D01*
X166601505Y-121048598D01*
X166471575Y-121234159D01*
X166427257Y-121273025D01*
X166370000Y-121287036D01*
X166312743Y-121273025D01*
X166268425Y-121234159D01*
X166138494Y-121048598D01*
X165971404Y-120881508D01*
X165971401Y-120881505D01*
X165777830Y-120745965D01*
X165563663Y-120646097D01*
X165489447Y-120626211D01*
X165335407Y-120584936D01*
X165100000Y-120564340D01*
X164864592Y-120584936D01*
X164636336Y-120646097D01*
X164422170Y-120745965D01*
X164228598Y-120881505D01*
X164061505Y-121048598D01*
X163931575Y-121234159D01*
X163887257Y-121273025D01*
X163830000Y-121287036D01*
X163772743Y-121273025D01*
X163728425Y-121234159D01*
X163598494Y-121048598D01*
X163431404Y-120881508D01*
X163431401Y-120881505D01*
X163237830Y-120745965D01*
X163023663Y-120646097D01*
X162949447Y-120626211D01*
X162795407Y-120584936D01*
X162560000Y-120564340D01*
X162324592Y-120584936D01*
X162096336Y-120646097D01*
X161882170Y-120745965D01*
X161688598Y-120881505D01*
X161521505Y-121048598D01*
X161391575Y-121234159D01*
X161347257Y-121273025D01*
X161290000Y-121287036D01*
X161232743Y-121273025D01*
X161188425Y-121234159D01*
X161058494Y-121048598D01*
X160891404Y-120881508D01*
X160891401Y-120881505D01*
X160697830Y-120745965D01*
X160483663Y-120646097D01*
X160409447Y-120626211D01*
X160255407Y-120584936D01*
X160020000Y-120564340D01*
X159784592Y-120584936D01*
X159556336Y-120646097D01*
X159342170Y-120745965D01*
X159148601Y-120881503D01*
X159026285Y-121003819D01*
X158973539Y-121035114D01*
X158912246Y-121037303D01*
X158857401Y-121009850D01*
X158822422Y-120959471D01*
X158773352Y-120827911D01*
X158687188Y-120712811D01*
X158572089Y-120626647D01*
X158437375Y-120576402D01*
X158377824Y-120570000D01*
X157730000Y-120570000D01*
X157730000Y-123270000D01*
X157230000Y-123270000D01*
X157230000Y-120570000D01*
X156582176Y-120570000D01*
X156522624Y-120576402D01*
X156387910Y-120626647D01*
X156272810Y-120712811D01*
X156197871Y-120812918D01*
X156145965Y-120853206D01*
X156080762Y-120861317D01*
X156020568Y-120834973D01*
X156011847Y-120827911D01*
X155871840Y-120714535D01*
X155737523Y-120646097D01*
X155698495Y-120626211D01*
X155512604Y-120576402D01*
X155510578Y-120575859D01*
X155429778Y-120569500D01*
X154450222Y-120569500D01*
X154369422Y-120575858D01*
X154369422Y-120575859D01*
X154181504Y-120626211D01*
X154008159Y-120714535D01*
X153856968Y-120836968D01*
X153734535Y-120988159D01*
X153646211Y-121161504D01*
X153609912Y-121296975D01*
X153595859Y-121349422D01*
X153590414Y-121418616D01*
X153589500Y-121430225D01*
X153589500Y-122409775D01*
X109944265Y-122409775D01*
X109965972Y-122277371D01*
X109985348Y-121920000D01*
X109965972Y-121562629D01*
X109908071Y-121209448D01*
X109908069Y-121209440D01*
X109812325Y-120864598D01*
X109679853Y-120532118D01*
X109512213Y-120215919D01*
X109512211Y-120215915D01*
X109311365Y-119919689D01*
X109311363Y-119919686D01*
X109079667Y-119646913D01*
X108819838Y-119400789D01*
X108534918Y-119184199D01*
X108228250Y-118999683D01*
X107903439Y-118849411D01*
X107903440Y-118849411D01*
X107903435Y-118849409D01*
X107564274Y-118735132D01*
X107564273Y-118735131D01*
X107564271Y-118735131D01*
X107352189Y-118688448D01*
X107214746Y-118658195D01*
X107036847Y-118638847D01*
X106858949Y-118619500D01*
X106858948Y-118619500D01*
X106501052Y-118619500D01*
X106501051Y-118619500D01*
X106145254Y-118658195D01*
X105795728Y-118735131D01*
X105623283Y-118793234D01*
X105456565Y-118849409D01*
X105456562Y-118849410D01*
X105456560Y-118849411D01*
X105131749Y-118999683D01*
X104825081Y-119184199D01*
X104540161Y-119400789D01*
X104280332Y-119646913D01*
X104048636Y-119919686D01*
X103847786Y-120215919D01*
X103680146Y-120532118D01*
X103547674Y-120864598D01*
X103451930Y-121209440D01*
X103394027Y-121562635D01*
X103374651Y-121920000D01*
X102100500Y-121920000D01*
X102100500Y-114299999D01*
X106644531Y-114299999D01*
X106664364Y-114526689D01*
X106723261Y-114746497D01*
X106819432Y-114952735D01*
X106949953Y-115139140D01*
X107110859Y-115300046D01*
X107295516Y-115429343D01*
X107337891Y-115480977D01*
X107347332Y-115547102D01*
X107344317Y-115569998D01*
X107346376Y-115585635D01*
X107348987Y-115605468D01*
X107349500Y-115609360D01*
X107349500Y-115609361D01*
X107364956Y-115726762D01*
X107425463Y-115872840D01*
X107521716Y-115998281D01*
X107546768Y-116017503D01*
X107558964Y-116028199D01*
X108761799Y-117231034D01*
X108772494Y-117243229D01*
X108791717Y-117268282D01*
X108858751Y-117319718D01*
X108917159Y-117364536D01*
X109063238Y-117425044D01*
X109188698Y-117441561D01*
X109219999Y-117445682D01*
X109219999Y-117445681D01*
X109220000Y-117445682D01*
X109251302Y-117441560D01*
X109267487Y-117440500D01*
X116792513Y-117440500D01*
X116808697Y-117441560D01*
X116840000Y-117445682D01*
X116996762Y-117425044D01*
X117142841Y-117364536D01*
X117201249Y-117319718D01*
X117268282Y-117268282D01*
X117287509Y-117243223D01*
X117298190Y-117231043D01*
X119592416Y-114936819D01*
X119632645Y-114909939D01*
X119680098Y-114900500D01*
X142734900Y-114900500D01*
X142751084Y-114901560D01*
X142782387Y-114905682D01*
X142939149Y-114885044D01*
X143085228Y-114824536D01*
X143110202Y-114805373D01*
X143210669Y-114728282D01*
X143229896Y-114703223D01*
X143240577Y-114691043D01*
X145534803Y-112396819D01*
X145575032Y-112369939D01*
X145622485Y-112360500D01*
X164799903Y-112360500D01*
X164847356Y-112369939D01*
X164887584Y-112396819D01*
X165425536Y-112934772D01*
X165457121Y-112988519D01*
X165458561Y-113050843D01*
X165429492Y-113105991D01*
X165377261Y-113140025D01*
X165315071Y-113144341D01*
X165208926Y-113124500D01*
X164991074Y-113124500D01*
X164776931Y-113164530D01*
X164776926Y-113164531D01*
X164573791Y-113243226D01*
X164388567Y-113357912D01*
X164227573Y-113504676D01*
X164096287Y-113678528D01*
X163999181Y-113873542D01*
X163949266Y-114048979D01*
X163916867Y-114103533D01*
X163861725Y-114134918D01*
X163798275Y-114134918D01*
X163743133Y-114103533D01*
X163710734Y-114048979D01*
X163660818Y-113873542D01*
X163563712Y-113678528D01*
X163432426Y-113504676D01*
X163271432Y-113357912D01*
X163086208Y-113243226D01*
X162883073Y-113164531D01*
X162883070Y-113164530D01*
X162883069Y-113164530D01*
X162668926Y-113124500D01*
X162451074Y-113124500D01*
X162236931Y-113164530D01*
X162236926Y-113164531D01*
X162033791Y-113243226D01*
X161848567Y-113357912D01*
X161687573Y-113504676D01*
X161556287Y-113678528D01*
X161459181Y-113873542D01*
X161409266Y-114048979D01*
X161376867Y-114103533D01*
X161321725Y-114134918D01*
X161258275Y-114134918D01*
X161203133Y-114103533D01*
X161170734Y-114048979D01*
X161120818Y-113873542D01*
X161023712Y-113678528D01*
X160892426Y-113504676D01*
X160731432Y-113357912D01*
X160546208Y-113243226D01*
X160343073Y-113164531D01*
X160343070Y-113164530D01*
X160343069Y-113164530D01*
X160128926Y-113124500D01*
X159911074Y-113124500D01*
X159696931Y-113164530D01*
X159696926Y-113164531D01*
X159493791Y-113243226D01*
X159308567Y-113357912D01*
X159147573Y-113504676D01*
X159016287Y-113678528D01*
X158919181Y-113873542D01*
X158869266Y-114048979D01*
X158836867Y-114103533D01*
X158781725Y-114134918D01*
X158718275Y-114134918D01*
X158663133Y-114103533D01*
X158630734Y-114048979D01*
X158580818Y-113873542D01*
X158483712Y-113678528D01*
X158352426Y-113504676D01*
X158191432Y-113357912D01*
X158006208Y-113243226D01*
X157803073Y-113164531D01*
X157803070Y-113164530D01*
X157803069Y-113164530D01*
X157588926Y-113124500D01*
X157371074Y-113124500D01*
X157156931Y-113164530D01*
X157156926Y-113164531D01*
X156953791Y-113243226D01*
X156768567Y-113357912D01*
X156607573Y-113504676D01*
X156476287Y-113678528D01*
X156379181Y-113873542D01*
X156329266Y-114048979D01*
X156296867Y-114103533D01*
X156241725Y-114134918D01*
X156178275Y-114134918D01*
X156123133Y-114103533D01*
X156090734Y-114048979D01*
X156040818Y-113873542D01*
X155943712Y-113678528D01*
X155812426Y-113504676D01*
X155651432Y-113357912D01*
X155466208Y-113243226D01*
X155263073Y-113164531D01*
X155263070Y-113164530D01*
X155263069Y-113164530D01*
X155048926Y-113124500D01*
X154831074Y-113124500D01*
X154616931Y-113164530D01*
X154616926Y-113164531D01*
X154413791Y-113243226D01*
X154228567Y-113357912D01*
X154067573Y-113504676D01*
X153936287Y-113678528D01*
X153839181Y-113873542D01*
X153779564Y-114083074D01*
X153759464Y-114299999D01*
X153779564Y-114516925D01*
X153839181Y-114726457D01*
X153936287Y-114921471D01*
X154067573Y-115095323D01*
X154201410Y-115217330D01*
X154228568Y-115242088D01*
X154303880Y-115288719D01*
X154413791Y-115356773D01*
X154559113Y-115413071D01*
X154616931Y-115435470D01*
X154831074Y-115475500D01*
X155048924Y-115475500D01*
X155048926Y-115475500D01*
X155263069Y-115435470D01*
X155453030Y-115361878D01*
X155466208Y-115356773D01*
X155466210Y-115356772D01*
X155651432Y-115242088D01*
X155812427Y-115095322D01*
X155943712Y-114921472D01*
X156040817Y-114726459D01*
X156040869Y-114726278D01*
X156090734Y-114551020D01*
X156123133Y-114496466D01*
X156178275Y-114465081D01*
X156241725Y-114465081D01*
X156296867Y-114496466D01*
X156329266Y-114551020D01*
X156379181Y-114726457D01*
X156476287Y-114921471D01*
X156607573Y-115095323D01*
X156741410Y-115217330D01*
X156768568Y-115242088D01*
X156843880Y-115288719D01*
X156953791Y-115356773D01*
X157099113Y-115413071D01*
X157156931Y-115435470D01*
X157371074Y-115475500D01*
X157588922Y-115475500D01*
X157588926Y-115475500D01*
X157695075Y-115455657D01*
X157757260Y-115459974D01*
X157809492Y-115494007D01*
X157838561Y-115549156D01*
X157837121Y-115611480D01*
X157805536Y-115665227D01*
X156813584Y-116657181D01*
X156773356Y-116684061D01*
X156725903Y-116693500D01*
X125243487Y-116693500D01*
X125227302Y-116692439D01*
X125223376Y-116691922D01*
X125195999Y-116688317D01*
X125160741Y-116692959D01*
X125156639Y-116693500D01*
X125039237Y-116708956D01*
X124893159Y-116769463D01*
X124767716Y-116865718D01*
X124748494Y-116890770D01*
X124737800Y-116902964D01*
X122323530Y-119317233D01*
X122267943Y-119349327D01*
X122203756Y-119349327D01*
X122075406Y-119314936D01*
X121839999Y-119294340D01*
X121604592Y-119314936D01*
X121376336Y-119376097D01*
X121162170Y-119475965D01*
X120968598Y-119611505D01*
X120801505Y-119778598D01*
X120671575Y-119964159D01*
X120627257Y-120003025D01*
X120570000Y-120017036D01*
X120512743Y-120003025D01*
X120468425Y-119964159D01*
X120417552Y-119891504D01*
X120338495Y-119778599D01*
X120171401Y-119611505D01*
X119977830Y-119475965D01*
X119763663Y-119376097D01*
X119702501Y-119359709D01*
X119535407Y-119314936D01*
X119300000Y-119294340D01*
X119064592Y-119314936D01*
X118836336Y-119376097D01*
X118622170Y-119475965D01*
X118428598Y-119611505D01*
X118261504Y-119778599D01*
X118226346Y-119828810D01*
X118178154Y-119869607D01*
X118116121Y-119881384D01*
X118056331Y-119861087D01*
X118014288Y-119813981D01*
X117965465Y-119718160D01*
X117843032Y-119566968D01*
X117691840Y-119444535D01*
X117518495Y-119356211D01*
X117364453Y-119314936D01*
X117330578Y-119305859D01*
X117249778Y-119299500D01*
X116270222Y-119299500D01*
X116189422Y-119305858D01*
X116189422Y-119305859D01*
X116001504Y-119356211D01*
X115828159Y-119444535D01*
X115676968Y-119566968D01*
X115586366Y-119678852D01*
X115543383Y-119712737D01*
X115490000Y-119724816D01*
X115436617Y-119712737D01*
X115393634Y-119678852D01*
X115367770Y-119646913D01*
X115303032Y-119566968D01*
X115151840Y-119444535D01*
X114978495Y-119356211D01*
X114824453Y-119314936D01*
X114790578Y-119305859D01*
X114709778Y-119299500D01*
X113730222Y-119299500D01*
X113649422Y-119305858D01*
X113649422Y-119305859D01*
X113461504Y-119356211D01*
X113288159Y-119444535D01*
X113136968Y-119566968D01*
X113014535Y-119718159D01*
X112926211Y-119891504D01*
X112875859Y-120079421D01*
X112875859Y-120079422D01*
X112869500Y-120160222D01*
X112869500Y-121139778D01*
X112874983Y-121209448D01*
X112875859Y-121220577D01*
X112926211Y-121408495D01*
X113004750Y-121562635D01*
X113014535Y-121581840D01*
X113136968Y-121733032D01*
X113288160Y-121855465D01*
X113461504Y-121943788D01*
X113649422Y-121994141D01*
X113730222Y-122000500D01*
X114709775Y-122000500D01*
X114709778Y-122000500D01*
X114790578Y-121994141D01*
X114978496Y-121943788D01*
X115151840Y-121855465D01*
X115303032Y-121733032D01*
X115393637Y-121621143D01*
X115436615Y-121587263D01*
X115489998Y-121575183D01*
X115543382Y-121587262D01*
X115586365Y-121621147D01*
X115676968Y-121733032D01*
X115828160Y-121855465D01*
X116001504Y-121943788D01*
X116189422Y-121994141D01*
X116270222Y-122000500D01*
X117249775Y-122000500D01*
X117249778Y-122000500D01*
X117330578Y-121994141D01*
X117518496Y-121943788D01*
X117691840Y-121855465D01*
X117843032Y-121733032D01*
X117965465Y-121581840D01*
X118014288Y-121486018D01*
X118056331Y-121438913D01*
X118116121Y-121418616D01*
X118178154Y-121430393D01*
X118226346Y-121471190D01*
X118261281Y-121521081D01*
X118261505Y-121521401D01*
X118428599Y-121688495D01*
X118622170Y-121824035D01*
X118836337Y-121923903D01*
X119064592Y-121985063D01*
X119300000Y-122005659D01*
X119535408Y-121985063D01*
X119763663Y-121923903D01*
X119977830Y-121824035D01*
X120171401Y-121688495D01*
X120338495Y-121521401D01*
X120468428Y-121335837D01*
X120512742Y-121296975D01*
X120569999Y-121282964D01*
X120627255Y-121296974D01*
X120671573Y-121335839D01*
X120801505Y-121521401D01*
X120968599Y-121688495D01*
X121162170Y-121824035D01*
X121376337Y-121923903D01*
X121604592Y-121985063D01*
X121840000Y-122005659D01*
X122075408Y-121985063D01*
X122303663Y-121923903D01*
X122517830Y-121824035D01*
X122711401Y-121688495D01*
X122878495Y-121521401D01*
X123008428Y-121335837D01*
X123052742Y-121296975D01*
X123109999Y-121282964D01*
X123167255Y-121296974D01*
X123211573Y-121335839D01*
X123341505Y-121521401D01*
X123508599Y-121688495D01*
X123702170Y-121824035D01*
X123916337Y-121923903D01*
X124144592Y-121985063D01*
X124380000Y-122005659D01*
X124615408Y-121985063D01*
X124843663Y-121923903D01*
X125057830Y-121824035D01*
X125251401Y-121688495D01*
X125418495Y-121521401D01*
X125548732Y-121335402D01*
X125593048Y-121296539D01*
X125650305Y-121282528D01*
X125707562Y-121296539D01*
X125751880Y-121335404D01*
X125881893Y-121521081D01*
X126048918Y-121688106D01*
X126242423Y-121823600D01*
X126456507Y-121923430D01*
X126669999Y-121980635D01*
X126670000Y-121980636D01*
X126670000Y-120900000D01*
X127170000Y-120900000D01*
X127170000Y-121980635D01*
X127383492Y-121923430D01*
X127597576Y-121823600D01*
X127791081Y-121688106D01*
X127958106Y-121521081D01*
X128093600Y-121327576D01*
X128193430Y-121113492D01*
X128250636Y-120900000D01*
X127170000Y-120900000D01*
X126670000Y-120900000D01*
X126670000Y-119319364D01*
X127170000Y-119319364D01*
X127170000Y-120400000D01*
X128250636Y-120400000D01*
X128250635Y-120399999D01*
X128193430Y-120186507D01*
X128093599Y-119972421D01*
X127958109Y-119778921D01*
X127791081Y-119611893D01*
X127597576Y-119476399D01*
X127383492Y-119376569D01*
X127170000Y-119319364D01*
X126670000Y-119319364D01*
X126669999Y-119319364D01*
X126456507Y-119376569D01*
X126242421Y-119476400D01*
X126048921Y-119611890D01*
X125881893Y-119778918D01*
X125751880Y-119964596D01*
X125707562Y-120003461D01*
X125650305Y-120017472D01*
X125593048Y-120003461D01*
X125548730Y-119964595D01*
X125517285Y-119919686D01*
X125418495Y-119778599D01*
X125251401Y-119611505D01*
X125057830Y-119475965D01*
X124843663Y-119376097D01*
X124782501Y-119359709D01*
X124615407Y-119314936D01*
X124379997Y-119294340D01*
X124352152Y-119296776D01*
X124292895Y-119287390D01*
X124244980Y-119251283D01*
X124219625Y-119196907D01*
X124222765Y-119136993D01*
X124253664Y-119085569D01*
X125408415Y-117930819D01*
X125448644Y-117903939D01*
X125496097Y-117894500D01*
X143766903Y-117894500D01*
X143823198Y-117908015D01*
X143867221Y-117945615D01*
X143889376Y-117999102D01*
X143884834Y-118056818D01*
X143854584Y-118106181D01*
X142643530Y-119317233D01*
X142587943Y-119349327D01*
X142523756Y-119349327D01*
X142395406Y-119314936D01*
X142159999Y-119294340D01*
X141924592Y-119314936D01*
X141696336Y-119376097D01*
X141482170Y-119475965D01*
X141288598Y-119611505D01*
X141121505Y-119778598D01*
X140991575Y-119964159D01*
X140947257Y-120003025D01*
X140890000Y-120017036D01*
X140832743Y-120003025D01*
X140788425Y-119964159D01*
X140737552Y-119891504D01*
X140658495Y-119778599D01*
X140491401Y-119611505D01*
X140297830Y-119475965D01*
X140083663Y-119376097D01*
X140022501Y-119359709D01*
X139855407Y-119314936D01*
X139620000Y-119294340D01*
X139384592Y-119314936D01*
X139156336Y-119376097D01*
X138942170Y-119475965D01*
X138748598Y-119611505D01*
X138581504Y-119778599D01*
X138546346Y-119828810D01*
X138498154Y-119869607D01*
X138436121Y-119881384D01*
X138376331Y-119861087D01*
X138334288Y-119813981D01*
X138285465Y-119718160D01*
X138163032Y-119566968D01*
X138011840Y-119444535D01*
X137838495Y-119356211D01*
X137684453Y-119314936D01*
X137650578Y-119305859D01*
X137569778Y-119299500D01*
X136590222Y-119299500D01*
X136509422Y-119305858D01*
X136509422Y-119305859D01*
X136321504Y-119356211D01*
X136148159Y-119444535D01*
X135996968Y-119566968D01*
X135906366Y-119678852D01*
X135863383Y-119712737D01*
X135810000Y-119724816D01*
X135756617Y-119712737D01*
X135713634Y-119678852D01*
X135687770Y-119646913D01*
X135623032Y-119566968D01*
X135471840Y-119444535D01*
X135298495Y-119356211D01*
X135144453Y-119314936D01*
X135110578Y-119305859D01*
X135029778Y-119299500D01*
X134050222Y-119299500D01*
X133969422Y-119305858D01*
X133969422Y-119305859D01*
X133781504Y-119356211D01*
X133608159Y-119444535D01*
X133456968Y-119566968D01*
X133334535Y-119718159D01*
X133246211Y-119891504D01*
X133195859Y-120079421D01*
X133195859Y-120079422D01*
X133189500Y-120160222D01*
X133189500Y-121139778D01*
X133194983Y-121209448D01*
X133195859Y-121220577D01*
X133246211Y-121408495D01*
X133324750Y-121562635D01*
X133334535Y-121581840D01*
X133456968Y-121733032D01*
X133608160Y-121855465D01*
X133781504Y-121943788D01*
X133969422Y-121994141D01*
X134050222Y-122000500D01*
X135029775Y-122000500D01*
X135029778Y-122000500D01*
X135110578Y-121994141D01*
X135298496Y-121943788D01*
X135471840Y-121855465D01*
X135623032Y-121733032D01*
X135713636Y-121621145D01*
X135756617Y-121587262D01*
X135810000Y-121575183D01*
X135863383Y-121587262D01*
X135906363Y-121621145D01*
X135996968Y-121733032D01*
X136148160Y-121855465D01*
X136321504Y-121943788D01*
X136509422Y-121994141D01*
X136590222Y-122000500D01*
X137569775Y-122000500D01*
X137569778Y-122000500D01*
X137650578Y-121994141D01*
X137838496Y-121943788D01*
X138011840Y-121855465D01*
X138163032Y-121733032D01*
X138285465Y-121581840D01*
X138334288Y-121486018D01*
X138376331Y-121438913D01*
X138436121Y-121418616D01*
X138498154Y-121430393D01*
X138546346Y-121471190D01*
X138581281Y-121521081D01*
X138581505Y-121521401D01*
X138748599Y-121688495D01*
X138942170Y-121824035D01*
X139156337Y-121923903D01*
X139384592Y-121985063D01*
X139620000Y-122005659D01*
X139855408Y-121985063D01*
X140083663Y-121923903D01*
X140297830Y-121824035D01*
X140491401Y-121688495D01*
X140658495Y-121521401D01*
X140788426Y-121335839D01*
X140832743Y-121296975D01*
X140890000Y-121282964D01*
X140947257Y-121296975D01*
X140991573Y-121335839D01*
X141121505Y-121521401D01*
X141288599Y-121688495D01*
X141482170Y-121824035D01*
X141696337Y-121923903D01*
X141924592Y-121985063D01*
X142160000Y-122005659D01*
X142395408Y-121985063D01*
X142623663Y-121923903D01*
X142837830Y-121824035D01*
X143031401Y-121688495D01*
X143198495Y-121521401D01*
X143328426Y-121335839D01*
X143372743Y-121296975D01*
X143430000Y-121282964D01*
X143487257Y-121296975D01*
X143531573Y-121335839D01*
X143661505Y-121521401D01*
X143828599Y-121688495D01*
X144022170Y-121824035D01*
X144236337Y-121923903D01*
X144464592Y-121985063D01*
X144700000Y-122005659D01*
X144935408Y-121985063D01*
X145163663Y-121923903D01*
X145377830Y-121824035D01*
X145571401Y-121688495D01*
X145738495Y-121521401D01*
X145868732Y-121335402D01*
X145913048Y-121296539D01*
X145970305Y-121282528D01*
X146027562Y-121296539D01*
X146071880Y-121335404D01*
X146201893Y-121521081D01*
X146368918Y-121688106D01*
X146562423Y-121823600D01*
X146776507Y-121923430D01*
X146989999Y-121980635D01*
X146990000Y-121980636D01*
X146990000Y-120900000D01*
X147490000Y-120900000D01*
X147490000Y-121980635D01*
X147703492Y-121923430D01*
X147917576Y-121823600D01*
X148111081Y-121688106D01*
X148278106Y-121521081D01*
X148413600Y-121327576D01*
X148513430Y-121113492D01*
X148570636Y-120900000D01*
X147490000Y-120900000D01*
X146990000Y-120900000D01*
X146990000Y-119319364D01*
X147490000Y-119319364D01*
X147490000Y-120400000D01*
X148570636Y-120400000D01*
X148570635Y-120399999D01*
X148513430Y-120186507D01*
X148413599Y-119972421D01*
X148278109Y-119778921D01*
X148111081Y-119611893D01*
X147917576Y-119476399D01*
X147703492Y-119376569D01*
X147490000Y-119319364D01*
X146990000Y-119319364D01*
X146989999Y-119319364D01*
X146776507Y-119376569D01*
X146562421Y-119476400D01*
X146368921Y-119611890D01*
X146201893Y-119778918D01*
X146071880Y-119964596D01*
X146027562Y-120003461D01*
X145970305Y-120017472D01*
X145913048Y-120003461D01*
X145868730Y-119964595D01*
X145837285Y-119919686D01*
X145738495Y-119778599D01*
X145571401Y-119611505D01*
X145377830Y-119475965D01*
X145163663Y-119376097D01*
X145102501Y-119359709D01*
X144935407Y-119314936D01*
X144699997Y-119294340D01*
X144672152Y-119296776D01*
X144612895Y-119287390D01*
X144564980Y-119251283D01*
X144539625Y-119196907D01*
X144542765Y-119136993D01*
X144573664Y-119085570D01*
X145274415Y-118384819D01*
X145314644Y-118357939D01*
X145362097Y-118348500D01*
X159064513Y-118348500D01*
X159080697Y-118349560D01*
X159112000Y-118353682D01*
X159268762Y-118333044D01*
X159414841Y-118272536D01*
X159414841Y-118272535D01*
X159414841Y-118272534D01*
X159422305Y-118269443D01*
X159431082Y-118260072D01*
X159540282Y-118176282D01*
X159559509Y-118151223D01*
X159570190Y-118139043D01*
X162221747Y-115487486D01*
X162272746Y-115456718D01*
X162332207Y-115453280D01*
X162451074Y-115475500D01*
X162668924Y-115475500D01*
X162668926Y-115475500D01*
X162883069Y-115435470D01*
X163073030Y-115361878D01*
X163086208Y-115356773D01*
X163086210Y-115356772D01*
X163271432Y-115242088D01*
X163432427Y-115095322D01*
X163563712Y-114921472D01*
X163660817Y-114726459D01*
X163660869Y-114726278D01*
X163710734Y-114551020D01*
X163743133Y-114496466D01*
X163798275Y-114465081D01*
X163861725Y-114465081D01*
X163916867Y-114496466D01*
X163949266Y-114551020D01*
X163999181Y-114726457D01*
X164096287Y-114921471D01*
X164227573Y-115095323D01*
X164361410Y-115217330D01*
X164388568Y-115242088D01*
X164463880Y-115288719D01*
X164573791Y-115356773D01*
X164719113Y-115413071D01*
X164776931Y-115435470D01*
X164991074Y-115475500D01*
X165208924Y-115475500D01*
X165208926Y-115475500D01*
X165423069Y-115435470D01*
X165613030Y-115361878D01*
X165626208Y-115356773D01*
X165626210Y-115356772D01*
X165811432Y-115242088D01*
X165972427Y-115095322D01*
X166103712Y-114921472D01*
X166200817Y-114726459D01*
X166200869Y-114726278D01*
X166250734Y-114551020D01*
X166283133Y-114496466D01*
X166338275Y-114465081D01*
X166401725Y-114465081D01*
X166456867Y-114496466D01*
X166489266Y-114551020D01*
X166539181Y-114726457D01*
X166636287Y-114921471D01*
X166767573Y-115095323D01*
X166901410Y-115217330D01*
X166928568Y-115242088D01*
X167003880Y-115288719D01*
X167113791Y-115356773D01*
X167259113Y-115413071D01*
X167316931Y-115435470D01*
X167531074Y-115475500D01*
X167748924Y-115475500D01*
X167748926Y-115475500D01*
X167963069Y-115435470D01*
X168153030Y-115361878D01*
X168166208Y-115356773D01*
X168166210Y-115356772D01*
X168351432Y-115242088D01*
X168512427Y-115095322D01*
X168643712Y-114921472D01*
X168740817Y-114726459D01*
X168740869Y-114726278D01*
X168790734Y-114551020D01*
X168823133Y-114496466D01*
X168878275Y-114465081D01*
X168941725Y-114465081D01*
X168996867Y-114496466D01*
X169029266Y-114551020D01*
X169079181Y-114726457D01*
X169176287Y-114921471D01*
X169307573Y-115095323D01*
X169441410Y-115217330D01*
X169468568Y-115242088D01*
X169543880Y-115288719D01*
X169653791Y-115356773D01*
X169799113Y-115413071D01*
X169856931Y-115435470D01*
X170071074Y-115475500D01*
X170288924Y-115475500D01*
X170288926Y-115475500D01*
X170503069Y-115435470D01*
X170693030Y-115361878D01*
X170706208Y-115356773D01*
X170706210Y-115356772D01*
X170891432Y-115242088D01*
X171052427Y-115095322D01*
X171183712Y-114921472D01*
X171280817Y-114726459D01*
X171280869Y-114726278D01*
X171330734Y-114551020D01*
X171363133Y-114496466D01*
X171418275Y-114465081D01*
X171481725Y-114465081D01*
X171536867Y-114496466D01*
X171569266Y-114551020D01*
X171619181Y-114726457D01*
X171716287Y-114921471D01*
X171847573Y-115095323D01*
X171981410Y-115217330D01*
X172008568Y-115242088D01*
X172083880Y-115288719D01*
X172193791Y-115356773D01*
X172339113Y-115413071D01*
X172396931Y-115435470D01*
X172611074Y-115475500D01*
X172828924Y-115475500D01*
X172828926Y-115475500D01*
X173043069Y-115435470D01*
X173233030Y-115361878D01*
X173246208Y-115356773D01*
X173246210Y-115356772D01*
X173431432Y-115242088D01*
X173592427Y-115095322D01*
X173723712Y-114921472D01*
X173820817Y-114726459D01*
X173820869Y-114726278D01*
X173870734Y-114551020D01*
X173903133Y-114496466D01*
X173958275Y-114465081D01*
X174021725Y-114465081D01*
X174076867Y-114496466D01*
X174109266Y-114551020D01*
X174159181Y-114726457D01*
X174256287Y-114921471D01*
X174387573Y-115095323D01*
X174521410Y-115217330D01*
X174548568Y-115242088D01*
X174623880Y-115288719D01*
X174733791Y-115356773D01*
X174879113Y-115413071D01*
X174936931Y-115435470D01*
X175151074Y-115475500D01*
X175368924Y-115475500D01*
X175368926Y-115475500D01*
X175583069Y-115435470D01*
X175773030Y-115361878D01*
X175786208Y-115356773D01*
X175786210Y-115356772D01*
X175971432Y-115242088D01*
X176132427Y-115095322D01*
X176263712Y-114921472D01*
X176360817Y-114726459D01*
X176360869Y-114726278D01*
X176410734Y-114551020D01*
X176443133Y-114496466D01*
X176498275Y-114465081D01*
X176561725Y-114465081D01*
X176616867Y-114496466D01*
X176649266Y-114551020D01*
X176699181Y-114726457D01*
X176796287Y-114921471D01*
X176927573Y-115095323D01*
X177061410Y-115217330D01*
X177088568Y-115242088D01*
X177163880Y-115288719D01*
X177273791Y-115356773D01*
X177419113Y-115413071D01*
X177476931Y-115435470D01*
X177691074Y-115475500D01*
X177908924Y-115475500D01*
X177908926Y-115475500D01*
X178123069Y-115435470D01*
X178313030Y-115361878D01*
X178326208Y-115356773D01*
X178326210Y-115356772D01*
X178511432Y-115242088D01*
X178672427Y-115095322D01*
X178803712Y-114921472D01*
X178900817Y-114726459D01*
X178900869Y-114726278D01*
X178950734Y-114551020D01*
X178983133Y-114496466D01*
X179038275Y-114465081D01*
X179101725Y-114465081D01*
X179156867Y-114496466D01*
X179189266Y-114551020D01*
X179239181Y-114726457D01*
X179336287Y-114921471D01*
X179467573Y-115095323D01*
X179601410Y-115217330D01*
X179628568Y-115242088D01*
X179703880Y-115288719D01*
X179813791Y-115356773D01*
X179959113Y-115413071D01*
X180016931Y-115435470D01*
X180231074Y-115475500D01*
X180448924Y-115475500D01*
X180448926Y-115475500D01*
X180663069Y-115435470D01*
X180853030Y-115361878D01*
X180866208Y-115356773D01*
X180866210Y-115356772D01*
X181051432Y-115242088D01*
X181212427Y-115095322D01*
X181343712Y-114921472D01*
X181440817Y-114726459D01*
X181440869Y-114726278D01*
X181490734Y-114551020D01*
X181523133Y-114496466D01*
X181578275Y-114465081D01*
X181641725Y-114465081D01*
X181696867Y-114496466D01*
X181729266Y-114551020D01*
X181779181Y-114726457D01*
X181876287Y-114921471D01*
X182007573Y-115095323D01*
X182141410Y-115217330D01*
X182168568Y-115242088D01*
X182243880Y-115288719D01*
X182353791Y-115356773D01*
X182499113Y-115413071D01*
X182556931Y-115435470D01*
X182771074Y-115475500D01*
X182988924Y-115475500D01*
X182988926Y-115475500D01*
X183203069Y-115435470D01*
X183393030Y-115361878D01*
X183406208Y-115356773D01*
X183406210Y-115356772D01*
X183591432Y-115242088D01*
X183752427Y-115095322D01*
X183883712Y-114921472D01*
X183980817Y-114726459D01*
X183980869Y-114726278D01*
X184030734Y-114551020D01*
X184063133Y-114496466D01*
X184118275Y-114465081D01*
X184181725Y-114465081D01*
X184236867Y-114496466D01*
X184269266Y-114551020D01*
X184319181Y-114726457D01*
X184416287Y-114921471D01*
X184547573Y-115095323D01*
X184681410Y-115217330D01*
X184708568Y-115242088D01*
X184783880Y-115288719D01*
X184893791Y-115356773D01*
X185039113Y-115413071D01*
X185096931Y-115435470D01*
X185311074Y-115475500D01*
X185528924Y-115475500D01*
X185528926Y-115475500D01*
X185743069Y-115435470D01*
X185933030Y-115361878D01*
X185946208Y-115356773D01*
X185946210Y-115356772D01*
X186056120Y-115288719D01*
X187324831Y-115288719D01*
X187434013Y-115356322D01*
X187637068Y-115434986D01*
X187851122Y-115475000D01*
X188068878Y-115475000D01*
X188282931Y-115434986D01*
X188485988Y-115356322D01*
X188595166Y-115288720D01*
X188595166Y-115288719D01*
X187960001Y-114653553D01*
X187960000Y-114653553D01*
X187324831Y-115288719D01*
X186056120Y-115288719D01*
X186131432Y-115242088D01*
X186292427Y-115095322D01*
X186423712Y-114921472D01*
X186520817Y-114726459D01*
X186570994Y-114550104D01*
X186603391Y-114495555D01*
X186658534Y-114464169D01*
X186721983Y-114464169D01*
X186777126Y-114495554D01*
X186809525Y-114550107D01*
X186859651Y-114726278D01*
X186956712Y-114921204D01*
X186968987Y-114937459D01*
X187606447Y-114300001D01*
X187606447Y-114300000D01*
X188313553Y-114300000D01*
X188951011Y-114937459D01*
X188951012Y-114937459D01*
X188963285Y-114921208D01*
X189060349Y-114726277D01*
X189110474Y-114550108D01*
X189142873Y-114495554D01*
X189198015Y-114464169D01*
X189261464Y-114464169D01*
X189316607Y-114495554D01*
X189349006Y-114550108D01*
X189399181Y-114726457D01*
X189496287Y-114921471D01*
X189627573Y-115095323D01*
X189761410Y-115217330D01*
X189788568Y-115242088D01*
X189863880Y-115288719D01*
X189973791Y-115356773D01*
X190119113Y-115413071D01*
X190176931Y-115435470D01*
X190391074Y-115475500D01*
X190608924Y-115475500D01*
X190608926Y-115475500D01*
X190823069Y-115435470D01*
X191013030Y-115361878D01*
X191026208Y-115356773D01*
X191026210Y-115356772D01*
X191211432Y-115242088D01*
X191372427Y-115095322D01*
X191503712Y-114921472D01*
X191600817Y-114726459D01*
X191600869Y-114726278D01*
X191650734Y-114551020D01*
X191683133Y-114496466D01*
X191738275Y-114465081D01*
X191801725Y-114465081D01*
X191856867Y-114496466D01*
X191889266Y-114551020D01*
X191939181Y-114726457D01*
X192036287Y-114921471D01*
X192167573Y-115095323D01*
X192301410Y-115217330D01*
X192328568Y-115242088D01*
X192403880Y-115288719D01*
X192513791Y-115356773D01*
X192659113Y-115413071D01*
X192716931Y-115435470D01*
X192931074Y-115475500D01*
X193148924Y-115475500D01*
X193148926Y-115475500D01*
X193363069Y-115435470D01*
X193553030Y-115361878D01*
X193566208Y-115356773D01*
X193566210Y-115356772D01*
X193751432Y-115242088D01*
X193912427Y-115095322D01*
X194043712Y-114921472D01*
X194140817Y-114726459D01*
X194140869Y-114726278D01*
X194190734Y-114551020D01*
X194223133Y-114496466D01*
X194278275Y-114465081D01*
X194341725Y-114465081D01*
X194396867Y-114496466D01*
X194429266Y-114551020D01*
X194479181Y-114726457D01*
X194576287Y-114921471D01*
X194707573Y-115095323D01*
X194841410Y-115217330D01*
X194868568Y-115242088D01*
X194943880Y-115288719D01*
X195053791Y-115356773D01*
X195199113Y-115413071D01*
X195256931Y-115435470D01*
X195471074Y-115475500D01*
X195688924Y-115475500D01*
X195688926Y-115475500D01*
X195903069Y-115435470D01*
X196093030Y-115361878D01*
X196106208Y-115356773D01*
X196106210Y-115356772D01*
X196291432Y-115242088D01*
X196452427Y-115095322D01*
X196583712Y-114921472D01*
X196680817Y-114726459D01*
X196680869Y-114726278D01*
X196730734Y-114551020D01*
X196763133Y-114496466D01*
X196818275Y-114465081D01*
X196881725Y-114465081D01*
X196936867Y-114496466D01*
X196969266Y-114551020D01*
X197019181Y-114726457D01*
X197116287Y-114921471D01*
X197247573Y-115095323D01*
X197381410Y-115217330D01*
X197408568Y-115242088D01*
X197483880Y-115288719D01*
X197593791Y-115356773D01*
X197739113Y-115413071D01*
X197796931Y-115435470D01*
X198011074Y-115475500D01*
X198228924Y-115475500D01*
X198228926Y-115475500D01*
X198443069Y-115435470D01*
X198633030Y-115361878D01*
X198646208Y-115356773D01*
X198646210Y-115356772D01*
X198831432Y-115242088D01*
X198992427Y-115095322D01*
X199123712Y-114921472D01*
X199220817Y-114726459D01*
X199241234Y-114654697D01*
X199270160Y-114603695D01*
X199319287Y-114571683D01*
X199377631Y-114565823D01*
X199432143Y-114587425D01*
X199470636Y-114631659D01*
X199484500Y-114688634D01*
X199484500Y-115022869D01*
X199490909Y-115082484D01*
X199495698Y-115095323D01*
X199541204Y-115217331D01*
X199627454Y-115332546D01*
X199742669Y-115418796D01*
X199877517Y-115469091D01*
X199937127Y-115475500D01*
X201382872Y-115475499D01*
X201442483Y-115469091D01*
X201577331Y-115418796D01*
X201692546Y-115332546D01*
X201778796Y-115217331D01*
X201829091Y-115082483D01*
X201835500Y-115022873D01*
X201835499Y-113577128D01*
X201829091Y-113517517D01*
X201778796Y-113382669D01*
X201692546Y-113267454D01*
X201577331Y-113181204D01*
X201442483Y-113130909D01*
X201382873Y-113124500D01*
X201382869Y-113124500D01*
X199937130Y-113124500D01*
X199877515Y-113130909D01*
X199742669Y-113181204D01*
X199627454Y-113267454D01*
X199541204Y-113382668D01*
X199490909Y-113517516D01*
X199484500Y-113577131D01*
X199484500Y-113911364D01*
X199470636Y-113968338D01*
X199432144Y-114012572D01*
X199377631Y-114034175D01*
X199319288Y-114028315D01*
X199270160Y-113996303D01*
X199241234Y-113945298D01*
X199220818Y-113873542D01*
X199123712Y-113678528D01*
X198992426Y-113504676D01*
X198831432Y-113357912D01*
X198646208Y-113243226D01*
X198443073Y-113164531D01*
X198443070Y-113164530D01*
X198443069Y-113164530D01*
X198228926Y-113124500D01*
X198011074Y-113124500D01*
X197796931Y-113164530D01*
X197796926Y-113164531D01*
X197593791Y-113243226D01*
X197408567Y-113357912D01*
X197247573Y-113504676D01*
X197116287Y-113678528D01*
X197019181Y-113873542D01*
X196969266Y-114048979D01*
X196936867Y-114103533D01*
X196881725Y-114134918D01*
X196818275Y-114134918D01*
X196763133Y-114103533D01*
X196730734Y-114048979D01*
X196680818Y-113873542D01*
X196583712Y-113678528D01*
X196452426Y-113504676D01*
X196291432Y-113357912D01*
X196106208Y-113243226D01*
X195903073Y-113164531D01*
X195903070Y-113164530D01*
X195903069Y-113164530D01*
X195688926Y-113124500D01*
X195471074Y-113124500D01*
X195256931Y-113164530D01*
X195256926Y-113164531D01*
X195053791Y-113243226D01*
X194868567Y-113357912D01*
X194707573Y-113504676D01*
X194576287Y-113678528D01*
X194479181Y-113873542D01*
X194429266Y-114048979D01*
X194396867Y-114103533D01*
X194341725Y-114134918D01*
X194278275Y-114134918D01*
X194223133Y-114103533D01*
X194190734Y-114048979D01*
X194140818Y-113873542D01*
X194043712Y-113678528D01*
X193912426Y-113504676D01*
X193751432Y-113357912D01*
X193566208Y-113243226D01*
X193363073Y-113164531D01*
X193363070Y-113164530D01*
X193363069Y-113164530D01*
X193148926Y-113124500D01*
X192931074Y-113124500D01*
X192716931Y-113164530D01*
X192716926Y-113164531D01*
X192513791Y-113243226D01*
X192328567Y-113357912D01*
X192167573Y-113504676D01*
X192036287Y-113678528D01*
X191939181Y-113873542D01*
X191889266Y-114048979D01*
X191856867Y-114103533D01*
X191801725Y-114134918D01*
X191738275Y-114134918D01*
X191683133Y-114103533D01*
X191650734Y-114048979D01*
X191600818Y-113873542D01*
X191503712Y-113678528D01*
X191372426Y-113504676D01*
X191211432Y-113357912D01*
X191026208Y-113243226D01*
X190823073Y-113164531D01*
X190823070Y-113164530D01*
X190823069Y-113164530D01*
X190608926Y-113124500D01*
X190391074Y-113124500D01*
X190176931Y-113164530D01*
X190176926Y-113164531D01*
X189973791Y-113243226D01*
X189788567Y-113357912D01*
X189627573Y-113504676D01*
X189496287Y-113678528D01*
X189399182Y-113873541D01*
X189349006Y-114049892D01*
X189316607Y-114104445D01*
X189261464Y-114135830D01*
X189198015Y-114135830D01*
X189142873Y-114104445D01*
X189110474Y-114049891D01*
X189060349Y-113873722D01*
X188963287Y-113678794D01*
X188951011Y-113662539D01*
X188313553Y-114300000D01*
X187606447Y-114300000D01*
X186968987Y-113662539D01*
X186956712Y-113678794D01*
X186859651Y-113873721D01*
X186809525Y-114049892D01*
X186777126Y-114104445D01*
X186721983Y-114135830D01*
X186658534Y-114135830D01*
X186603391Y-114104444D01*
X186570993Y-114049891D01*
X186520818Y-113873542D01*
X186423712Y-113678528D01*
X186292426Y-113504676D01*
X186131432Y-113357912D01*
X186056117Y-113311279D01*
X187324831Y-113311279D01*
X187960000Y-113946447D01*
X187960001Y-113946447D01*
X188595167Y-113311279D01*
X188485986Y-113243677D01*
X188282931Y-113165013D01*
X188068878Y-113125000D01*
X187851122Y-113125000D01*
X187637068Y-113165013D01*
X187434010Y-113243678D01*
X187324832Y-113311278D01*
X187324831Y-113311279D01*
X186056117Y-113311279D01*
X185946208Y-113243226D01*
X185743073Y-113164531D01*
X185743070Y-113164530D01*
X185743069Y-113164530D01*
X185528926Y-113124500D01*
X185311074Y-113124500D01*
X185096931Y-113164530D01*
X185096926Y-113164531D01*
X184893791Y-113243226D01*
X184708567Y-113357912D01*
X184547573Y-113504676D01*
X184416287Y-113678528D01*
X184319181Y-113873542D01*
X184269266Y-114048979D01*
X184236867Y-114103533D01*
X184181725Y-114134918D01*
X184118275Y-114134918D01*
X184063133Y-114103533D01*
X184030734Y-114048979D01*
X183980818Y-113873542D01*
X183883712Y-113678528D01*
X183752426Y-113504676D01*
X183591432Y-113357912D01*
X183406208Y-113243226D01*
X183203073Y-113164531D01*
X183203070Y-113164530D01*
X183203069Y-113164530D01*
X182988926Y-113124500D01*
X182771074Y-113124500D01*
X182556931Y-113164530D01*
X182556926Y-113164531D01*
X182353791Y-113243226D01*
X182168567Y-113357912D01*
X182007573Y-113504676D01*
X181876287Y-113678528D01*
X181779181Y-113873542D01*
X181729266Y-114048979D01*
X181696867Y-114103533D01*
X181641725Y-114134918D01*
X181578275Y-114134918D01*
X181523133Y-114103533D01*
X181490734Y-114048979D01*
X181440818Y-113873542D01*
X181343712Y-113678528D01*
X181212426Y-113504676D01*
X181051432Y-113357912D01*
X180866208Y-113243226D01*
X180663073Y-113164531D01*
X180663070Y-113164530D01*
X180663069Y-113164530D01*
X180448926Y-113124500D01*
X180231074Y-113124500D01*
X180016931Y-113164530D01*
X180016926Y-113164531D01*
X179813791Y-113243226D01*
X179628567Y-113357912D01*
X179467573Y-113504676D01*
X179336287Y-113678528D01*
X179239181Y-113873542D01*
X179189266Y-114048979D01*
X179156867Y-114103533D01*
X179101725Y-114134918D01*
X179038275Y-114134918D01*
X178983133Y-114103533D01*
X178950734Y-114048979D01*
X178900818Y-113873542D01*
X178803712Y-113678528D01*
X178672426Y-113504676D01*
X178511432Y-113357912D01*
X178326208Y-113243226D01*
X178123073Y-113164531D01*
X178123070Y-113164530D01*
X178123069Y-113164530D01*
X177908926Y-113124500D01*
X177691074Y-113124500D01*
X177476931Y-113164530D01*
X177476926Y-113164531D01*
X177273791Y-113243226D01*
X177088567Y-113357912D01*
X176927573Y-113504676D01*
X176796287Y-113678528D01*
X176699181Y-113873542D01*
X176649266Y-114048979D01*
X176616867Y-114103533D01*
X176561725Y-114134918D01*
X176498275Y-114134918D01*
X176443133Y-114103533D01*
X176410734Y-114048979D01*
X176360818Y-113873542D01*
X176263712Y-113678528D01*
X176132426Y-113504676D01*
X175971432Y-113357912D01*
X175786208Y-113243226D01*
X175583073Y-113164531D01*
X175583070Y-113164530D01*
X175583069Y-113164530D01*
X175368926Y-113124500D01*
X175151074Y-113124500D01*
X174936931Y-113164530D01*
X174936926Y-113164531D01*
X174733791Y-113243226D01*
X174548567Y-113357912D01*
X174387573Y-113504676D01*
X174256287Y-113678528D01*
X174159181Y-113873542D01*
X174109266Y-114048979D01*
X174076867Y-114103533D01*
X174021725Y-114134918D01*
X173958275Y-114134918D01*
X173903133Y-114103533D01*
X173870734Y-114048979D01*
X173820818Y-113873542D01*
X173723712Y-113678528D01*
X173592426Y-113504676D01*
X173431432Y-113357912D01*
X173246208Y-113243226D01*
X173043073Y-113164531D01*
X173043070Y-113164530D01*
X173043069Y-113164530D01*
X172828926Y-113124500D01*
X172611074Y-113124500D01*
X172396931Y-113164530D01*
X172396926Y-113164531D01*
X172193791Y-113243226D01*
X172008567Y-113357912D01*
X171847573Y-113504676D01*
X171716287Y-113678528D01*
X171619181Y-113873542D01*
X171569266Y-114048979D01*
X171536867Y-114103533D01*
X171481725Y-114134918D01*
X171418275Y-114134918D01*
X171363133Y-114103533D01*
X171330734Y-114048979D01*
X171280818Y-113873542D01*
X171183712Y-113678528D01*
X171052426Y-113504676D01*
X170891432Y-113357912D01*
X170706208Y-113243226D01*
X170503073Y-113164531D01*
X170503070Y-113164530D01*
X170503069Y-113164530D01*
X170288926Y-113124500D01*
X170071074Y-113124500D01*
X169856931Y-113164530D01*
X169856926Y-113164531D01*
X169653791Y-113243226D01*
X169468567Y-113357912D01*
X169307573Y-113504676D01*
X169176287Y-113678528D01*
X169079181Y-113873542D01*
X169029266Y-114048979D01*
X168996867Y-114103533D01*
X168941725Y-114134918D01*
X168878275Y-114134918D01*
X168823133Y-114103533D01*
X168790734Y-114048979D01*
X168740818Y-113873542D01*
X168643712Y-113678528D01*
X168512426Y-113504676D01*
X168351432Y-113357912D01*
X168166208Y-113243226D01*
X167963073Y-113164531D01*
X167963070Y-113164530D01*
X167963069Y-113164530D01*
X167748926Y-113124500D01*
X167531074Y-113124500D01*
X167412211Y-113146718D01*
X167352746Y-113143280D01*
X167301746Y-113112510D01*
X165558199Y-111368964D01*
X165547503Y-111356768D01*
X165528281Y-111331716D01*
X165402840Y-111235463D01*
X165256762Y-111174956D01*
X165139361Y-111159500D01*
X165134780Y-111158897D01*
X165100000Y-111154317D01*
X165072163Y-111157982D01*
X165068697Y-111158439D01*
X165052513Y-111159500D01*
X145369874Y-111159500D01*
X145353689Y-111158439D01*
X145349763Y-111157922D01*
X145322386Y-111154317D01*
X145287128Y-111158959D01*
X145283026Y-111159500D01*
X145165624Y-111174956D01*
X145019546Y-111235463D01*
X144894104Y-111331717D01*
X144874881Y-111356769D01*
X144864188Y-111368961D01*
X142569971Y-113663181D01*
X142529743Y-113690061D01*
X142482290Y-113699500D01*
X119427487Y-113699500D01*
X119411302Y-113698439D01*
X119407376Y-113697922D01*
X119379999Y-113694317D01*
X119344741Y-113698959D01*
X119340639Y-113699500D01*
X119223237Y-113714956D01*
X119077159Y-113775463D01*
X118951717Y-113871717D01*
X118932494Y-113896769D01*
X118921801Y-113908961D01*
X116627584Y-116203181D01*
X116587356Y-116230061D01*
X116539903Y-116239500D01*
X109520097Y-116239500D01*
X109472644Y-116230061D01*
X109432416Y-116203181D01*
X108740795Y-115511560D01*
X108711954Y-115466289D01*
X108704948Y-115413071D01*
X108721089Y-115361878D01*
X108757353Y-115322304D01*
X108789140Y-115300046D01*
X108950046Y-115139140D01*
X108980727Y-115095322D01*
X109080568Y-114952734D01*
X109176739Y-114746496D01*
X109235635Y-114526692D01*
X109255468Y-114300000D01*
X109255468Y-114299999D01*
X114264531Y-114299999D01*
X114284364Y-114526689D01*
X114343261Y-114746497D01*
X114439432Y-114952735D01*
X114569953Y-115139140D01*
X114730859Y-115300046D01*
X114917264Y-115430567D01*
X114917265Y-115430567D01*
X114917266Y-115430568D01*
X115123504Y-115526739D01*
X115343308Y-115585635D01*
X115570000Y-115605468D01*
X115796692Y-115585635D01*
X116016496Y-115526739D01*
X116222734Y-115430568D01*
X116409139Y-115300047D01*
X116570047Y-115139139D01*
X116700568Y-114952734D01*
X116796739Y-114746496D01*
X116855635Y-114526692D01*
X116875468Y-114300000D01*
X116855635Y-114073308D01*
X116796739Y-113853504D01*
X116700568Y-113647266D01*
X116651459Y-113577131D01*
X116570046Y-113460859D01*
X116409140Y-113299953D01*
X116222735Y-113169432D01*
X116016497Y-113073261D01*
X115796689Y-113014364D01*
X115570000Y-112994531D01*
X115343310Y-113014364D01*
X115123502Y-113073261D01*
X114917264Y-113169432D01*
X114730859Y-113299953D01*
X114569953Y-113460859D01*
X114439432Y-113647264D01*
X114343261Y-113853502D01*
X114284364Y-114073310D01*
X114264531Y-114299999D01*
X109255468Y-114299999D01*
X109235635Y-114073308D01*
X109176739Y-113853504D01*
X109080568Y-113647266D01*
X109031459Y-113577131D01*
X108950046Y-113460859D01*
X108789140Y-113299953D01*
X108602735Y-113169432D01*
X108396497Y-113073261D01*
X108176689Y-113014364D01*
X107950000Y-112994531D01*
X107723310Y-113014364D01*
X107503502Y-113073261D01*
X107297264Y-113169432D01*
X107110859Y-113299953D01*
X106949953Y-113460859D01*
X106819432Y-113647264D01*
X106723261Y-113853502D01*
X106664364Y-114073310D01*
X106644531Y-114299999D01*
X102100500Y-114299999D01*
X102100500Y-111759999D01*
X123154531Y-111759999D01*
X123174364Y-111986689D01*
X123233261Y-112206497D01*
X123329432Y-112412735D01*
X123459953Y-112599140D01*
X123620859Y-112760046D01*
X123807264Y-112890567D01*
X123807265Y-112890567D01*
X123807266Y-112890568D01*
X124013504Y-112986739D01*
X124233308Y-113045635D01*
X124460000Y-113065468D01*
X124686692Y-113045635D01*
X124906496Y-112986739D01*
X125112734Y-112890568D01*
X125299139Y-112760047D01*
X125460047Y-112599139D01*
X125590568Y-112412734D01*
X125686739Y-112206496D01*
X125745635Y-111986692D01*
X125765468Y-111760000D01*
X128154531Y-111760000D01*
X128174364Y-111986689D01*
X128233261Y-112206497D01*
X128329432Y-112412735D01*
X128459953Y-112599140D01*
X128620859Y-112760046D01*
X128807264Y-112890567D01*
X128807265Y-112890567D01*
X128807266Y-112890568D01*
X129013504Y-112986739D01*
X129233308Y-113045635D01*
X129460000Y-113065468D01*
X129686692Y-113045635D01*
X129906496Y-112986739D01*
X130112734Y-112890568D01*
X130299139Y-112760047D01*
X130460047Y-112599139D01*
X130590568Y-112412734D01*
X130686739Y-112206496D01*
X130745635Y-111986692D01*
X130765468Y-111760000D01*
X133314531Y-111760000D01*
X133334364Y-111986689D01*
X133393261Y-112206497D01*
X133489432Y-112412735D01*
X133619953Y-112599140D01*
X133780859Y-112760046D01*
X133967264Y-112890567D01*
X133967265Y-112890567D01*
X133967266Y-112890568D01*
X134173504Y-112986739D01*
X134393308Y-113045635D01*
X134620000Y-113065468D01*
X134846692Y-113045635D01*
X135066496Y-112986739D01*
X135272734Y-112890568D01*
X135459139Y-112760047D01*
X135620047Y-112599139D01*
X135750568Y-112412734D01*
X135846739Y-112206496D01*
X135905635Y-111986692D01*
X135925468Y-111760000D01*
X138314531Y-111760000D01*
X138334364Y-111986689D01*
X138393261Y-112206497D01*
X138489432Y-112412735D01*
X138619953Y-112599140D01*
X138780859Y-112760046D01*
X138967264Y-112890567D01*
X138967265Y-112890567D01*
X138967266Y-112890568D01*
X139173504Y-112986739D01*
X139393308Y-113045635D01*
X139620000Y-113065468D01*
X139846692Y-113045635D01*
X140066496Y-112986739D01*
X140272734Y-112890568D01*
X140459139Y-112760047D01*
X140620047Y-112599139D01*
X140750568Y-112412734D01*
X140846739Y-112206496D01*
X140905635Y-111986692D01*
X140925468Y-111760000D01*
X140905635Y-111533308D01*
X140846739Y-111313504D01*
X140750568Y-111107266D01*
X140620047Y-110920861D01*
X140620046Y-110920859D01*
X140459140Y-110759953D01*
X140272735Y-110629432D01*
X140066497Y-110533261D01*
X139846689Y-110474364D01*
X139620000Y-110454531D01*
X139393310Y-110474364D01*
X139173502Y-110533261D01*
X138967264Y-110629432D01*
X138780859Y-110759953D01*
X138619953Y-110920859D01*
X138489432Y-111107264D01*
X138393261Y-111313502D01*
X138334364Y-111533310D01*
X138314531Y-111760000D01*
X135925468Y-111760000D01*
X135905635Y-111533308D01*
X135846739Y-111313504D01*
X135750568Y-111107266D01*
X135620047Y-110920861D01*
X135620046Y-110920859D01*
X135459140Y-110759953D01*
X135272735Y-110629432D01*
X135066497Y-110533261D01*
X134846689Y-110474364D01*
X134620000Y-110454531D01*
X134393310Y-110474364D01*
X134173502Y-110533261D01*
X133967264Y-110629432D01*
X133780859Y-110759953D01*
X133619953Y-110920859D01*
X133489432Y-111107264D01*
X133393261Y-111313502D01*
X133334364Y-111533310D01*
X133314531Y-111760000D01*
X130765468Y-111760000D01*
X130745635Y-111533308D01*
X130686739Y-111313504D01*
X130590568Y-111107266D01*
X130460047Y-110920861D01*
X130460046Y-110920859D01*
X130299140Y-110759953D01*
X130112735Y-110629432D01*
X129906497Y-110533261D01*
X129686689Y-110474364D01*
X129460000Y-110454531D01*
X129233310Y-110474364D01*
X129013502Y-110533261D01*
X128807264Y-110629432D01*
X128620859Y-110759953D01*
X128459953Y-110920859D01*
X128329432Y-111107264D01*
X128233261Y-111313502D01*
X128174364Y-111533310D01*
X128154531Y-111760000D01*
X125765468Y-111760000D01*
X125745635Y-111533308D01*
X125686739Y-111313504D01*
X125590568Y-111107266D01*
X125460047Y-110920861D01*
X125460046Y-110920859D01*
X125299140Y-110759953D01*
X125112735Y-110629432D01*
X124906497Y-110533261D01*
X124686689Y-110474364D01*
X124460000Y-110454531D01*
X124233310Y-110474364D01*
X124013502Y-110533261D01*
X123807264Y-110629432D01*
X123620859Y-110759953D01*
X123459953Y-110920859D01*
X123329432Y-111107264D01*
X123233261Y-111313502D01*
X123174364Y-111533310D01*
X123154531Y-111759999D01*
X102100500Y-111759999D01*
X102100500Y-107949999D01*
X105374531Y-107949999D01*
X105394364Y-108176689D01*
X105453261Y-108396497D01*
X105549432Y-108602735D01*
X105679953Y-108789140D01*
X105840859Y-108950046D01*
X106027264Y-109080567D01*
X106027265Y-109080567D01*
X106027266Y-109080568D01*
X106233504Y-109176739D01*
X106453308Y-109235635D01*
X106680000Y-109255468D01*
X106906692Y-109235635D01*
X107126496Y-109176739D01*
X107332734Y-109080568D01*
X107519139Y-108950047D01*
X107680047Y-108789139D01*
X107810568Y-108602734D01*
X107906739Y-108396496D01*
X107965635Y-108176692D01*
X107985468Y-107950000D01*
X107965635Y-107723308D01*
X107906739Y-107503504D01*
X107810568Y-107297266D01*
X107680047Y-107110861D01*
X107680046Y-107110859D01*
X107519140Y-106949953D01*
X107332735Y-106819432D01*
X107126497Y-106723261D01*
X106906689Y-106664364D01*
X106680000Y-106644531D01*
X106453310Y-106664364D01*
X106233502Y-106723261D01*
X106027264Y-106819432D01*
X105840859Y-106949953D01*
X105679953Y-107110859D01*
X105549432Y-107297264D01*
X105453261Y-107503502D01*
X105394364Y-107723310D01*
X105374531Y-107949999D01*
X102100500Y-107949999D01*
X102100500Y-105660000D01*
X129530000Y-105660000D01*
X129530000Y-106237824D01*
X129536402Y-106297375D01*
X129586647Y-106432089D01*
X129672811Y-106547188D01*
X129787910Y-106633352D01*
X129922624Y-106683597D01*
X129982176Y-106690000D01*
X130560000Y-106690000D01*
X131060000Y-106690000D01*
X131637824Y-106690000D01*
X131697375Y-106683597D01*
X131832089Y-106633352D01*
X131947188Y-106547188D01*
X132033352Y-106432089D01*
X132083597Y-106297375D01*
X132090000Y-106237824D01*
X132090000Y-106236294D01*
X132090281Y-106235205D01*
X132090710Y-106231220D01*
X132091295Y-106231282D01*
X132105547Y-106176178D01*
X132148290Y-106131136D01*
X132207510Y-106112464D01*
X132268358Y-106124843D01*
X132315572Y-106165168D01*
X132365333Y-106236233D01*
X132523767Y-106394667D01*
X132707304Y-106523181D01*
X132910370Y-106617872D01*
X133126794Y-106675863D01*
X133350000Y-106695391D01*
X133573206Y-106675863D01*
X133789630Y-106617872D01*
X133992696Y-106523181D01*
X134176233Y-106394667D01*
X134334667Y-106236233D01*
X134463181Y-106052696D01*
X134507618Y-105957399D01*
X134553375Y-105905224D01*
X134620000Y-105885805D01*
X134686625Y-105905224D01*
X134732381Y-105957399D01*
X134776819Y-106052696D01*
X134905333Y-106236233D01*
X135063767Y-106394667D01*
X135247304Y-106523181D01*
X135450370Y-106617872D01*
X135666794Y-106675863D01*
X135890000Y-106695391D01*
X136113206Y-106675863D01*
X136329630Y-106617872D01*
X136532696Y-106523181D01*
X136716233Y-106394667D01*
X136874667Y-106236233D01*
X137003181Y-106052696D01*
X137047618Y-105957399D01*
X137093375Y-105905224D01*
X137160000Y-105885805D01*
X137226625Y-105905224D01*
X137272381Y-105957399D01*
X137316819Y-106052696D01*
X137445333Y-106236233D01*
X137603767Y-106394667D01*
X137787304Y-106523181D01*
X137990370Y-106617872D01*
X138206794Y-106675863D01*
X138430000Y-106695391D01*
X138653206Y-106675863D01*
X138869630Y-106617872D01*
X139072696Y-106523181D01*
X139256233Y-106394667D01*
X139414667Y-106236233D01*
X139543181Y-106052696D01*
X139587618Y-105957399D01*
X139633375Y-105905224D01*
X139700000Y-105885805D01*
X139766625Y-105905224D01*
X139812381Y-105957399D01*
X139856819Y-106052696D01*
X139985333Y-106236233D01*
X140143767Y-106394667D01*
X140327304Y-106523181D01*
X140530370Y-106617872D01*
X140746794Y-106675863D01*
X140970000Y-106695391D01*
X141193206Y-106675863D01*
X141409630Y-106617872D01*
X141612696Y-106523181D01*
X141796233Y-106394667D01*
X141954667Y-106236233D01*
X142083181Y-106052696D01*
X142127618Y-105957399D01*
X142173375Y-105905224D01*
X142240000Y-105885805D01*
X142306625Y-105905224D01*
X142352381Y-105957399D01*
X142396819Y-106052696D01*
X142525333Y-106236233D01*
X142683767Y-106394667D01*
X142867304Y-106523181D01*
X143070370Y-106617872D01*
X143286794Y-106675863D01*
X143510000Y-106695391D01*
X143733206Y-106675863D01*
X143949630Y-106617872D01*
X144152696Y-106523181D01*
X144336233Y-106394667D01*
X144494667Y-106236233D01*
X144623181Y-106052696D01*
X144667618Y-105957399D01*
X144713375Y-105905224D01*
X144780000Y-105885805D01*
X144846625Y-105905224D01*
X144892381Y-105957399D01*
X144936819Y-106052696D01*
X145065333Y-106236233D01*
X145223767Y-106394667D01*
X145407304Y-106523181D01*
X145610370Y-106617872D01*
X145826794Y-106675863D01*
X146050000Y-106695391D01*
X146273206Y-106675863D01*
X146489630Y-106617872D01*
X146692696Y-106523181D01*
X146876233Y-106394667D01*
X147034667Y-106236233D01*
X147084427Y-106165168D01*
X147131642Y-106124843D01*
X147192490Y-106112464D01*
X147251710Y-106131136D01*
X147294453Y-106176178D01*
X147308704Y-106231282D01*
X147309290Y-106231220D01*
X147309718Y-106235205D01*
X147310000Y-106236294D01*
X147310000Y-106237824D01*
X147316402Y-106297375D01*
X147366647Y-106432089D01*
X147452811Y-106547188D01*
X147567910Y-106633352D01*
X147702624Y-106683597D01*
X147762176Y-106690000D01*
X148340000Y-106690000D01*
X148340000Y-105660000D01*
X148840000Y-105660000D01*
X148840000Y-106690000D01*
X149417824Y-106690000D01*
X149477375Y-106683597D01*
X149612089Y-106633352D01*
X149727188Y-106547188D01*
X149813352Y-106432089D01*
X149863597Y-106297375D01*
X149870000Y-106237824D01*
X149870000Y-105660000D01*
X148840000Y-105660000D01*
X148340000Y-105660000D01*
X148340000Y-104130000D01*
X148840000Y-104130000D01*
X148840000Y-105160000D01*
X149870000Y-105160000D01*
X149870000Y-104582176D01*
X149863597Y-104522624D01*
X149813352Y-104387910D01*
X149727188Y-104272811D01*
X149612089Y-104186647D01*
X149477375Y-104136402D01*
X149417824Y-104130000D01*
X148840000Y-104130000D01*
X148340000Y-104130000D01*
X147762176Y-104130000D01*
X147702624Y-104136402D01*
X147567910Y-104186647D01*
X147452811Y-104272811D01*
X147366647Y-104387910D01*
X147316402Y-104522624D01*
X147310000Y-104582176D01*
X147310000Y-104583706D01*
X147309718Y-104584794D01*
X147309290Y-104588780D01*
X147308704Y-104588717D01*
X147294453Y-104643822D01*
X147251710Y-104688864D01*
X147192490Y-104707536D01*
X147131642Y-104695157D01*
X147084426Y-104654831D01*
X147034667Y-104583767D01*
X146876233Y-104425333D01*
X146692696Y-104296819D01*
X146599069Y-104253160D01*
X146489631Y-104202128D01*
X146273203Y-104144136D01*
X146050000Y-104124608D01*
X145826796Y-104144136D01*
X145610368Y-104202128D01*
X145407304Y-104296819D01*
X145223766Y-104425333D01*
X145065333Y-104583766D01*
X144936819Y-104767304D01*
X144892382Y-104862600D01*
X144846625Y-104914776D01*
X144780000Y-104934195D01*
X144713375Y-104914776D01*
X144667618Y-104862600D01*
X144660531Y-104847403D01*
X144623181Y-104767305D01*
X144494667Y-104583767D01*
X144336233Y-104425333D01*
X144152696Y-104296819D01*
X144059069Y-104253160D01*
X143949631Y-104202128D01*
X143733203Y-104144136D01*
X143510000Y-104124608D01*
X143286796Y-104144136D01*
X143070368Y-104202128D01*
X142867304Y-104296819D01*
X142683766Y-104425333D01*
X142525333Y-104583766D01*
X142396819Y-104767304D01*
X142352382Y-104862600D01*
X142306625Y-104914776D01*
X142240000Y-104934195D01*
X142173375Y-104914776D01*
X142127618Y-104862600D01*
X142120531Y-104847403D01*
X142083181Y-104767305D01*
X141954667Y-104583767D01*
X141796233Y-104425333D01*
X141612696Y-104296819D01*
X141519069Y-104253160D01*
X141409631Y-104202128D01*
X141193203Y-104144136D01*
X140970000Y-104124608D01*
X140746796Y-104144136D01*
X140530368Y-104202128D01*
X140327304Y-104296819D01*
X140143766Y-104425333D01*
X139985333Y-104583766D01*
X139856819Y-104767304D01*
X139812382Y-104862600D01*
X139766625Y-104914776D01*
X139700000Y-104934195D01*
X139633375Y-104914776D01*
X139587618Y-104862600D01*
X139580531Y-104847403D01*
X139543181Y-104767305D01*
X139414667Y-104583767D01*
X139256233Y-104425333D01*
X139072696Y-104296819D01*
X138979069Y-104253160D01*
X138869631Y-104202128D01*
X138653203Y-104144136D01*
X138430000Y-104124608D01*
X138206796Y-104144136D01*
X137990368Y-104202128D01*
X137787304Y-104296819D01*
X137603766Y-104425333D01*
X137445333Y-104583766D01*
X137316819Y-104767304D01*
X137272382Y-104862600D01*
X137226625Y-104914776D01*
X137160000Y-104934195D01*
X137093375Y-104914776D01*
X137047618Y-104862600D01*
X137040531Y-104847403D01*
X137003181Y-104767305D01*
X136874667Y-104583767D01*
X136716233Y-104425333D01*
X136532696Y-104296819D01*
X136439069Y-104253160D01*
X136329631Y-104202128D01*
X136113203Y-104144136D01*
X135890000Y-104124608D01*
X135666796Y-104144136D01*
X135450368Y-104202128D01*
X135247304Y-104296819D01*
X135063766Y-104425333D01*
X134905333Y-104583766D01*
X134776819Y-104767304D01*
X134732382Y-104862600D01*
X134686625Y-104914776D01*
X134620000Y-104934195D01*
X134553375Y-104914776D01*
X134507618Y-104862600D01*
X134500531Y-104847403D01*
X134463181Y-104767305D01*
X134334667Y-104583767D01*
X134176233Y-104425333D01*
X133992696Y-104296819D01*
X133899069Y-104253160D01*
X133789631Y-104202128D01*
X133573203Y-104144136D01*
X133350000Y-104124608D01*
X133126796Y-104144136D01*
X132910368Y-104202128D01*
X132707304Y-104296819D01*
X132523766Y-104425333D01*
X132365336Y-104583763D01*
X132365333Y-104583766D01*
X132365333Y-104583767D01*
X132315573Y-104654831D01*
X132268358Y-104695157D01*
X132207510Y-104707536D01*
X132148290Y-104688864D01*
X132105547Y-104643822D01*
X132091295Y-104588717D01*
X132090710Y-104588780D01*
X132090281Y-104584794D01*
X132090000Y-104583706D01*
X132090000Y-104582176D01*
X132083597Y-104522624D01*
X132033352Y-104387910D01*
X131947188Y-104272811D01*
X131832089Y-104186647D01*
X131697375Y-104136402D01*
X131637824Y-104130000D01*
X131060000Y-104130000D01*
X131060000Y-106690000D01*
X130560000Y-106690000D01*
X130560000Y-105660000D01*
X129530000Y-105660000D01*
X102100500Y-105660000D01*
X102100500Y-105160000D01*
X129530000Y-105160000D01*
X130560000Y-105160000D01*
X130560000Y-104130000D01*
X129982176Y-104130000D01*
X129922624Y-104136402D01*
X129787910Y-104186647D01*
X129672811Y-104272811D01*
X129586647Y-104387910D01*
X129536402Y-104522624D01*
X129530000Y-104582176D01*
X129530000Y-105160000D01*
X102100500Y-105160000D01*
X102100500Y-100580000D01*
X105401128Y-100580000D01*
X105453733Y-100776326D01*
X105549865Y-100982480D01*
X105680341Y-101168819D01*
X105841180Y-101329658D01*
X106027519Y-101460134D01*
X106233673Y-101556266D01*
X106429999Y-101608871D01*
X106430000Y-101608872D01*
X106430000Y-100580000D01*
X106930000Y-100580000D01*
X106930000Y-101608871D01*
X107126326Y-101556266D01*
X107332480Y-101460134D01*
X107518819Y-101329658D01*
X107679658Y-101168819D01*
X107810134Y-100982480D01*
X107906266Y-100776326D01*
X107958872Y-100580000D01*
X106930000Y-100580000D01*
X106430000Y-100580000D01*
X105401128Y-100580000D01*
X102100500Y-100580000D01*
X102100500Y-100080000D01*
X105401128Y-100080000D01*
X106430000Y-100080000D01*
X106430000Y-99051128D01*
X106930000Y-99051128D01*
X106930000Y-100080000D01*
X107958872Y-100080000D01*
X107958871Y-100079999D01*
X107906266Y-99883673D01*
X107853259Y-99770000D01*
X112950000Y-99770000D01*
X112950000Y-100417824D01*
X112956402Y-100477375D01*
X113006647Y-100612089D01*
X113092811Y-100727188D01*
X113207910Y-100813352D01*
X113342624Y-100863597D01*
X113402176Y-100870000D01*
X114050000Y-100870000D01*
X114550000Y-100870000D01*
X115197824Y-100870000D01*
X115257375Y-100863597D01*
X115392089Y-100813352D01*
X115507188Y-100727188D01*
X115593352Y-100612089D01*
X115642422Y-100480528D01*
X115677401Y-100430149D01*
X115732246Y-100402696D01*
X115793539Y-100404885D01*
X115846285Y-100436181D01*
X115968599Y-100558495D01*
X116162170Y-100694035D01*
X116376337Y-100793903D01*
X116604592Y-100855063D01*
X116840000Y-100875659D01*
X117075408Y-100855063D01*
X117303663Y-100793903D01*
X117517830Y-100694035D01*
X117711401Y-100558495D01*
X117878495Y-100391401D01*
X118008426Y-100205839D01*
X118052743Y-100166975D01*
X118110000Y-100152964D01*
X118167257Y-100166975D01*
X118211573Y-100205839D01*
X118341505Y-100391401D01*
X118508599Y-100558495D01*
X118702170Y-100694035D01*
X118916337Y-100793903D01*
X119144592Y-100855063D01*
X119380000Y-100875659D01*
X119615408Y-100855063D01*
X119843663Y-100793903D01*
X120057830Y-100694035D01*
X120251401Y-100558495D01*
X120418495Y-100391401D01*
X120554035Y-100197830D01*
X120653903Y-99983663D01*
X120715063Y-99755408D01*
X120735659Y-99520000D01*
X120715063Y-99284592D01*
X120680672Y-99156241D01*
X120680672Y-99092054D01*
X120712764Y-99036469D01*
X127039234Y-92710000D01*
X129524608Y-92710000D01*
X129544136Y-92933203D01*
X129602128Y-93149631D01*
X129628052Y-93205224D01*
X129696819Y-93352696D01*
X129825333Y-93536233D01*
X129983767Y-93694667D01*
X130167304Y-93823181D01*
X130370370Y-93917872D01*
X130586794Y-93975863D01*
X130810000Y-93995391D01*
X131033206Y-93975863D01*
X131116599Y-93953516D01*
X131180786Y-93953516D01*
X131236375Y-93985610D01*
X136701799Y-99451034D01*
X136712494Y-99463229D01*
X136731717Y-99488282D01*
X136773054Y-99520000D01*
X136857159Y-99584536D01*
X137003238Y-99645044D01*
X137128698Y-99661561D01*
X137159999Y-99665682D01*
X137159999Y-99665681D01*
X137160000Y-99665682D01*
X137191302Y-99661560D01*
X137207487Y-99660500D01*
X170132513Y-99660500D01*
X170148697Y-99661560D01*
X170180000Y-99665682D01*
X170336762Y-99645044D01*
X170482841Y-99584536D01*
X170566946Y-99520000D01*
X170608282Y-99488282D01*
X170627509Y-99463223D01*
X170638190Y-99451043D01*
X177461747Y-92627486D01*
X177512746Y-92596718D01*
X177572207Y-92593280D01*
X177691074Y-92615500D01*
X177908924Y-92615500D01*
X177908926Y-92615500D01*
X178123069Y-92575470D01*
X178266660Y-92519842D01*
X178326208Y-92496773D01*
X178326210Y-92496772D01*
X178511432Y-92382088D01*
X178672427Y-92235322D01*
X178803712Y-92061472D01*
X178900817Y-91866459D01*
X178900869Y-91866278D01*
X178950734Y-91691020D01*
X178983133Y-91636466D01*
X179038275Y-91605081D01*
X179101725Y-91605081D01*
X179156867Y-91636466D01*
X179189266Y-91691020D01*
X179239181Y-91866457D01*
X179336287Y-92061471D01*
X179467573Y-92235323D01*
X179576089Y-92334247D01*
X179628568Y-92382088D01*
X179680778Y-92414415D01*
X179813791Y-92496773D01*
X179972745Y-92558352D01*
X180016931Y-92575470D01*
X180231074Y-92615500D01*
X180448924Y-92615500D01*
X180448926Y-92615500D01*
X180663069Y-92575470D01*
X180806660Y-92519842D01*
X180866208Y-92496773D01*
X180866210Y-92496772D01*
X181051432Y-92382088D01*
X181212427Y-92235322D01*
X181343712Y-92061472D01*
X181440817Y-91866459D01*
X181440869Y-91866278D01*
X181490734Y-91691020D01*
X181523133Y-91636466D01*
X181578275Y-91605081D01*
X181641725Y-91605081D01*
X181696867Y-91636466D01*
X181729266Y-91691020D01*
X181779181Y-91866457D01*
X181876287Y-92061471D01*
X182007573Y-92235323D01*
X182116089Y-92334247D01*
X182168568Y-92382088D01*
X182220778Y-92414415D01*
X182353791Y-92496773D01*
X182512745Y-92558352D01*
X182556931Y-92575470D01*
X182771074Y-92615500D01*
X182988924Y-92615500D01*
X182988926Y-92615500D01*
X183203069Y-92575470D01*
X183346660Y-92519842D01*
X183406208Y-92496773D01*
X183406210Y-92496772D01*
X183591432Y-92382088D01*
X183752427Y-92235322D01*
X183883712Y-92061472D01*
X183980817Y-91866459D01*
X183980869Y-91866278D01*
X184030734Y-91691020D01*
X184063133Y-91636466D01*
X184118275Y-91605081D01*
X184181725Y-91605081D01*
X184236867Y-91636466D01*
X184269266Y-91691020D01*
X184319181Y-91866457D01*
X184416287Y-92061471D01*
X184547573Y-92235323D01*
X184656089Y-92334247D01*
X184708568Y-92382088D01*
X184760778Y-92414415D01*
X184893791Y-92496773D01*
X185052745Y-92558352D01*
X185096931Y-92575470D01*
X185311074Y-92615500D01*
X185528924Y-92615500D01*
X185528926Y-92615500D01*
X185743069Y-92575470D01*
X185886660Y-92519842D01*
X185946208Y-92496773D01*
X185946210Y-92496772D01*
X186131432Y-92382088D01*
X186292427Y-92235322D01*
X186423712Y-92061472D01*
X186520817Y-91866459D01*
X186520869Y-91866278D01*
X186570734Y-91691020D01*
X186603133Y-91636466D01*
X186658275Y-91605081D01*
X186721725Y-91605081D01*
X186776867Y-91636466D01*
X186809266Y-91691020D01*
X186859181Y-91866457D01*
X186956287Y-92061471D01*
X187087573Y-92235323D01*
X187196089Y-92334247D01*
X187248568Y-92382088D01*
X187300778Y-92414415D01*
X187433791Y-92496773D01*
X187592745Y-92558352D01*
X187636931Y-92575470D01*
X187851074Y-92615500D01*
X188068924Y-92615500D01*
X188068926Y-92615500D01*
X188283069Y-92575470D01*
X188426660Y-92519842D01*
X188486208Y-92496773D01*
X188486210Y-92496772D01*
X188671432Y-92382088D01*
X188832427Y-92235322D01*
X188963712Y-92061472D01*
X189060817Y-91866459D01*
X189060869Y-91866278D01*
X189110734Y-91691020D01*
X189143133Y-91636466D01*
X189198275Y-91605081D01*
X189261725Y-91605081D01*
X189316867Y-91636466D01*
X189349266Y-91691020D01*
X189399181Y-91866457D01*
X189496287Y-92061471D01*
X189627573Y-92235323D01*
X189736089Y-92334247D01*
X189788568Y-92382088D01*
X189840778Y-92414415D01*
X189973791Y-92496773D01*
X190132745Y-92558352D01*
X190176931Y-92575470D01*
X190391074Y-92615500D01*
X190608924Y-92615500D01*
X190608926Y-92615500D01*
X190823069Y-92575470D01*
X190966660Y-92519842D01*
X191026208Y-92496773D01*
X191026210Y-92496772D01*
X191211432Y-92382088D01*
X191372427Y-92235322D01*
X191503712Y-92061472D01*
X191600817Y-91866459D01*
X191600869Y-91866278D01*
X191650734Y-91691020D01*
X191683133Y-91636466D01*
X191738275Y-91605081D01*
X191801725Y-91605081D01*
X191856867Y-91636466D01*
X191889266Y-91691020D01*
X191939181Y-91866457D01*
X192036287Y-92061471D01*
X192167573Y-92235323D01*
X192276089Y-92334247D01*
X192328568Y-92382088D01*
X192380778Y-92414415D01*
X192513791Y-92496773D01*
X192672745Y-92558352D01*
X192716931Y-92575470D01*
X192931074Y-92615500D01*
X193148924Y-92615500D01*
X193148926Y-92615500D01*
X193363069Y-92575470D01*
X193506660Y-92519842D01*
X193566208Y-92496773D01*
X193566210Y-92496772D01*
X193751432Y-92382088D01*
X193912427Y-92235322D01*
X194043712Y-92061472D01*
X194140817Y-91866459D01*
X194140869Y-91866278D01*
X194190734Y-91691020D01*
X194223133Y-91636466D01*
X194278275Y-91605081D01*
X194341725Y-91605081D01*
X194396867Y-91636466D01*
X194429266Y-91691020D01*
X194479181Y-91866457D01*
X194576287Y-92061471D01*
X194707573Y-92235323D01*
X194816089Y-92334247D01*
X194868568Y-92382088D01*
X194920778Y-92414415D01*
X195053791Y-92496773D01*
X195212745Y-92558352D01*
X195256931Y-92575470D01*
X195471074Y-92615500D01*
X195688924Y-92615500D01*
X195688926Y-92615500D01*
X195903069Y-92575470D01*
X196046660Y-92519842D01*
X196106208Y-92496773D01*
X196106210Y-92496772D01*
X196291432Y-92382088D01*
X196452427Y-92235322D01*
X196583712Y-92061472D01*
X196680817Y-91866459D01*
X196680869Y-91866278D01*
X196730734Y-91691020D01*
X196763133Y-91636466D01*
X196818275Y-91605081D01*
X196881725Y-91605081D01*
X196936867Y-91636466D01*
X196969266Y-91691020D01*
X197019181Y-91866457D01*
X197116287Y-92061471D01*
X197247573Y-92235323D01*
X197356089Y-92334247D01*
X197408568Y-92382088D01*
X197460778Y-92414415D01*
X197593791Y-92496773D01*
X197752745Y-92558352D01*
X197796931Y-92575470D01*
X198011074Y-92615500D01*
X198228924Y-92615500D01*
X198228926Y-92615500D01*
X198443069Y-92575470D01*
X198586660Y-92519842D01*
X198646208Y-92496773D01*
X198646210Y-92496772D01*
X198831432Y-92382088D01*
X198992427Y-92235322D01*
X199123712Y-92061472D01*
X199220817Y-91866459D01*
X199220869Y-91866278D01*
X199270734Y-91691020D01*
X199303133Y-91636466D01*
X199358275Y-91605081D01*
X199421725Y-91605081D01*
X199476867Y-91636466D01*
X199509266Y-91691020D01*
X199559181Y-91866457D01*
X199656287Y-92061471D01*
X199787573Y-92235323D01*
X199896089Y-92334247D01*
X199948568Y-92382088D01*
X200000778Y-92414415D01*
X200133791Y-92496773D01*
X200292745Y-92558352D01*
X200336931Y-92575470D01*
X200551074Y-92615500D01*
X200768924Y-92615500D01*
X200768926Y-92615500D01*
X200983069Y-92575470D01*
X201126660Y-92519842D01*
X201186208Y-92496773D01*
X201186210Y-92496772D01*
X201371432Y-92382088D01*
X201532427Y-92235322D01*
X201663712Y-92061472D01*
X201760817Y-91866459D01*
X201760818Y-91866457D01*
X201820435Y-91656925D01*
X201826004Y-91596819D01*
X201840536Y-91440000D01*
X201820435Y-91223077D01*
X201820435Y-91223074D01*
X201760818Y-91013542D01*
X201663712Y-90818528D01*
X201532426Y-90644676D01*
X201371432Y-90497912D01*
X201186208Y-90383226D01*
X200983073Y-90304531D01*
X200983070Y-90304530D01*
X200983069Y-90304530D01*
X200768926Y-90264500D01*
X200551074Y-90264500D01*
X200336931Y-90304530D01*
X200336926Y-90304531D01*
X200133791Y-90383226D01*
X199948567Y-90497912D01*
X199787573Y-90644676D01*
X199656287Y-90818528D01*
X199559181Y-91013542D01*
X199509266Y-91188979D01*
X199476867Y-91243533D01*
X199421725Y-91274918D01*
X199358275Y-91274918D01*
X199303133Y-91243533D01*
X199270734Y-91188979D01*
X199220818Y-91013542D01*
X199123712Y-90818528D01*
X198992426Y-90644676D01*
X198831432Y-90497912D01*
X198646208Y-90383226D01*
X198443073Y-90304531D01*
X198443070Y-90304530D01*
X198443069Y-90304530D01*
X198228926Y-90264500D01*
X198011074Y-90264500D01*
X197796931Y-90304530D01*
X197796926Y-90304531D01*
X197593791Y-90383226D01*
X197408567Y-90497912D01*
X197247573Y-90644676D01*
X197116287Y-90818528D01*
X197019181Y-91013542D01*
X196969266Y-91188979D01*
X196936867Y-91243533D01*
X196881725Y-91274918D01*
X196818275Y-91274918D01*
X196763133Y-91243533D01*
X196730734Y-91188979D01*
X196680818Y-91013542D01*
X196583712Y-90818528D01*
X196452426Y-90644676D01*
X196291432Y-90497912D01*
X196106208Y-90383226D01*
X195903073Y-90304531D01*
X195903070Y-90304530D01*
X195903069Y-90304530D01*
X195688926Y-90264500D01*
X195471074Y-90264500D01*
X195256931Y-90304530D01*
X195256926Y-90304531D01*
X195053791Y-90383226D01*
X194868567Y-90497912D01*
X194707573Y-90644676D01*
X194576287Y-90818528D01*
X194479181Y-91013542D01*
X194429266Y-91188979D01*
X194396867Y-91243533D01*
X194341725Y-91274918D01*
X194278275Y-91274918D01*
X194223133Y-91243533D01*
X194190734Y-91188979D01*
X194140818Y-91013542D01*
X194043712Y-90818528D01*
X193912426Y-90644676D01*
X193751432Y-90497912D01*
X193566208Y-90383226D01*
X193363073Y-90304531D01*
X193363070Y-90304530D01*
X193363069Y-90304530D01*
X193148926Y-90264500D01*
X192931074Y-90264500D01*
X192716931Y-90304530D01*
X192716926Y-90304531D01*
X192513791Y-90383226D01*
X192328567Y-90497912D01*
X192167573Y-90644676D01*
X192036287Y-90818528D01*
X191939181Y-91013542D01*
X191889266Y-91188979D01*
X191856867Y-91243533D01*
X191801725Y-91274918D01*
X191738275Y-91274918D01*
X191683133Y-91243533D01*
X191650734Y-91188979D01*
X191600818Y-91013542D01*
X191503712Y-90818528D01*
X191372426Y-90644676D01*
X191211432Y-90497912D01*
X191026208Y-90383226D01*
X190823073Y-90304531D01*
X190823070Y-90304530D01*
X190823069Y-90304530D01*
X190608926Y-90264500D01*
X190391074Y-90264500D01*
X190176931Y-90304530D01*
X190176926Y-90304531D01*
X189973791Y-90383226D01*
X189788567Y-90497912D01*
X189627573Y-90644676D01*
X189496287Y-90818528D01*
X189399181Y-91013542D01*
X189349266Y-91188979D01*
X189316867Y-91243533D01*
X189261725Y-91274918D01*
X189198275Y-91274918D01*
X189143133Y-91243533D01*
X189110734Y-91188979D01*
X189060818Y-91013542D01*
X188963712Y-90818528D01*
X188832426Y-90644676D01*
X188671432Y-90497912D01*
X188486208Y-90383226D01*
X188283073Y-90304531D01*
X188283070Y-90304530D01*
X188283069Y-90304530D01*
X188068926Y-90264500D01*
X187851074Y-90264500D01*
X187636931Y-90304530D01*
X187636926Y-90304531D01*
X187433791Y-90383226D01*
X187248567Y-90497912D01*
X187087573Y-90644676D01*
X186956287Y-90818528D01*
X186859181Y-91013542D01*
X186809266Y-91188979D01*
X186776867Y-91243533D01*
X186721725Y-91274918D01*
X186658275Y-91274918D01*
X186603133Y-91243533D01*
X186570734Y-91188979D01*
X186520818Y-91013542D01*
X186423712Y-90818528D01*
X186292426Y-90644676D01*
X186131432Y-90497912D01*
X185946208Y-90383226D01*
X185743073Y-90304531D01*
X185743070Y-90304530D01*
X185743069Y-90304530D01*
X185528926Y-90264500D01*
X185311074Y-90264500D01*
X185096931Y-90304530D01*
X185096926Y-90304531D01*
X184893791Y-90383226D01*
X184708567Y-90497912D01*
X184547573Y-90644676D01*
X184416287Y-90818528D01*
X184319181Y-91013542D01*
X184269266Y-91188979D01*
X184236867Y-91243533D01*
X184181725Y-91274918D01*
X184118275Y-91274918D01*
X184063133Y-91243533D01*
X184030734Y-91188979D01*
X183980818Y-91013542D01*
X183883712Y-90818528D01*
X183752426Y-90644676D01*
X183591432Y-90497912D01*
X183406208Y-90383226D01*
X183203073Y-90304531D01*
X183203070Y-90304530D01*
X183203069Y-90304530D01*
X182988926Y-90264500D01*
X182771074Y-90264500D01*
X182556931Y-90304530D01*
X182556926Y-90304531D01*
X182353791Y-90383226D01*
X182168567Y-90497912D01*
X182007573Y-90644676D01*
X181876287Y-90818528D01*
X181779181Y-91013542D01*
X181729266Y-91188979D01*
X181696867Y-91243533D01*
X181641725Y-91274918D01*
X181578275Y-91274918D01*
X181523133Y-91243533D01*
X181490734Y-91188979D01*
X181440818Y-91013542D01*
X181343712Y-90818528D01*
X181212426Y-90644676D01*
X181051432Y-90497912D01*
X180866208Y-90383226D01*
X180663073Y-90304531D01*
X180663070Y-90304530D01*
X180663069Y-90304530D01*
X180448926Y-90264500D01*
X180231074Y-90264500D01*
X180016931Y-90304530D01*
X180016926Y-90304531D01*
X179813791Y-90383226D01*
X179628567Y-90497912D01*
X179467573Y-90644676D01*
X179336287Y-90818528D01*
X179239181Y-91013542D01*
X179189266Y-91188979D01*
X179156867Y-91243533D01*
X179101725Y-91274918D01*
X179038275Y-91274918D01*
X178983133Y-91243533D01*
X178950734Y-91188979D01*
X178900818Y-91013542D01*
X178803712Y-90818528D01*
X178672426Y-90644676D01*
X178511432Y-90497912D01*
X178326208Y-90383226D01*
X178123073Y-90304531D01*
X178123070Y-90304530D01*
X178123069Y-90304530D01*
X177908926Y-90264500D01*
X177691074Y-90264500D01*
X177476931Y-90304530D01*
X177476926Y-90304531D01*
X177273791Y-90383226D01*
X177088567Y-90497912D01*
X176927573Y-90644676D01*
X176796287Y-90818528D01*
X176699181Y-91013542D01*
X176649266Y-91188979D01*
X176616867Y-91243533D01*
X176561725Y-91274918D01*
X176498275Y-91274918D01*
X176443133Y-91243533D01*
X176410734Y-91188979D01*
X176360818Y-91013542D01*
X176263712Y-90818528D01*
X176132426Y-90644676D01*
X175971432Y-90497912D01*
X175786208Y-90383226D01*
X175583073Y-90304531D01*
X175583070Y-90304530D01*
X175583069Y-90304530D01*
X175368926Y-90264500D01*
X175151074Y-90264500D01*
X175151073Y-90264500D01*
X175032209Y-90286718D01*
X174972745Y-90283280D01*
X174921745Y-90252510D01*
X174689199Y-90019964D01*
X174678503Y-90007768D01*
X174659281Y-89982716D01*
X174533840Y-89886463D01*
X174387762Y-89825956D01*
X174270361Y-89810500D01*
X174265780Y-89809897D01*
X174231000Y-89805317D01*
X174203163Y-89808982D01*
X174199697Y-89809439D01*
X174183513Y-89810500D01*
X135696487Y-89810500D01*
X135680302Y-89809439D01*
X135676376Y-89808922D01*
X135648999Y-89805317D01*
X135613741Y-89809959D01*
X135609639Y-89810500D01*
X135492237Y-89825956D01*
X135346161Y-89886462D01*
X135295982Y-89924965D01*
X135220718Y-89982718D01*
X135220716Y-89982719D01*
X135220715Y-89982721D01*
X135201490Y-90007774D01*
X135190798Y-90019965D01*
X133776375Y-91434388D01*
X133720788Y-91466482D01*
X133656601Y-91466482D01*
X133573205Y-91444136D01*
X133350000Y-91424608D01*
X133126796Y-91444136D01*
X132910368Y-91502128D01*
X132707304Y-91596819D01*
X132523766Y-91725333D01*
X132365333Y-91883766D01*
X132236819Y-92067304D01*
X132192382Y-92162600D01*
X132146625Y-92214776D01*
X132080000Y-92234195D01*
X132013375Y-92214776D01*
X131967618Y-92162600D01*
X131960531Y-92147403D01*
X131923181Y-92067305D01*
X131794667Y-91883767D01*
X131636233Y-91725333D01*
X131452696Y-91596819D01*
X131330693Y-91539928D01*
X131249631Y-91502128D01*
X131033203Y-91444136D01*
X130810000Y-91424608D01*
X130586796Y-91444136D01*
X130370368Y-91502128D01*
X130167304Y-91596819D01*
X129983766Y-91725333D01*
X129825333Y-91883766D01*
X129696819Y-92067304D01*
X129602128Y-92270368D01*
X129544136Y-92486796D01*
X129524608Y-92710000D01*
X127039234Y-92710000D01*
X130212415Y-89536819D01*
X130252644Y-89509939D01*
X130300097Y-89500500D01*
X154892513Y-89500500D01*
X154908697Y-89501560D01*
X154940000Y-89505682D01*
X155096762Y-89485044D01*
X155242841Y-89424536D01*
X155242841Y-89424535D01*
X155242841Y-89424534D01*
X155250305Y-89421443D01*
X155259082Y-89412072D01*
X155368282Y-89328282D01*
X155387509Y-89303223D01*
X155398190Y-89291043D01*
X159790207Y-84899026D01*
X161834526Y-84899026D01*
X161907515Y-84950133D01*
X162113673Y-85046266D01*
X162333397Y-85105141D01*
X162560000Y-85124966D01*
X162786602Y-85105141D01*
X163006326Y-85046266D01*
X163212480Y-84950134D01*
X163285472Y-84899025D01*
X162560001Y-84173553D01*
X162560000Y-84173553D01*
X161834526Y-84899025D01*
X161834526Y-84899026D01*
X159790207Y-84899026D01*
X161051125Y-83638108D01*
X161102547Y-83607211D01*
X161162461Y-83604071D01*
X161216836Y-83629426D01*
X161252943Y-83677341D01*
X161262329Y-83736599D01*
X161255033Y-83819998D01*
X161274858Y-84046602D01*
X161333733Y-84266326D01*
X161429866Y-84472484D01*
X161480972Y-84545471D01*
X161480973Y-84545472D01*
X162206445Y-83820001D01*
X162913553Y-83820001D01*
X163639025Y-84545472D01*
X163690134Y-84472480D01*
X163786266Y-84266326D01*
X163845141Y-84046602D01*
X163864966Y-83820000D01*
X163845141Y-83593397D01*
X163786266Y-83373673D01*
X163690133Y-83167515D01*
X163639025Y-83094526D01*
X162913553Y-83820000D01*
X162913553Y-83820001D01*
X162206445Y-83820001D01*
X162560000Y-83466447D01*
X163290414Y-82736031D01*
X163299443Y-82688849D01*
X163345157Y-82638961D01*
X163401456Y-82622993D01*
X163401265Y-82621209D01*
X163407869Y-82620499D01*
X163407872Y-82620499D01*
X163467483Y-82614091D01*
X163602331Y-82563796D01*
X163717546Y-82477546D01*
X163803796Y-82362331D01*
X163854091Y-82227483D01*
X163860500Y-82167873D01*
X163860499Y-80472128D01*
X163854091Y-80412517D01*
X163803796Y-80277669D01*
X163717546Y-80162454D01*
X163602331Y-80076204D01*
X163467483Y-80025909D01*
X163407873Y-80019500D01*
X163407869Y-80019500D01*
X161712130Y-80019500D01*
X161652515Y-80025909D01*
X161517669Y-80076204D01*
X161402454Y-80162454D01*
X161316204Y-80277668D01*
X161265909Y-80412516D01*
X161259500Y-80472131D01*
X161259500Y-81679902D01*
X161250061Y-81727355D01*
X161223181Y-81767583D01*
X154727584Y-88263181D01*
X154687356Y-88290061D01*
X154639903Y-88299500D01*
X130047487Y-88299500D01*
X130031302Y-88298439D01*
X130027376Y-88297922D01*
X129999999Y-88294317D01*
X129964741Y-88298959D01*
X129960639Y-88299500D01*
X129843237Y-88314956D01*
X129697159Y-88375463D01*
X129571716Y-88471718D01*
X129552494Y-88496770D01*
X129541800Y-88508964D01*
X119863530Y-98187233D01*
X119807943Y-98219327D01*
X119743756Y-98219327D01*
X119615406Y-98184936D01*
X119379999Y-98164340D01*
X119144592Y-98184936D01*
X118916336Y-98246097D01*
X118702170Y-98345965D01*
X118508598Y-98481505D01*
X118341505Y-98648598D01*
X118211575Y-98834159D01*
X118167257Y-98873025D01*
X118110000Y-98887036D01*
X118052743Y-98873025D01*
X118008425Y-98834159D01*
X117878494Y-98648598D01*
X117711404Y-98481508D01*
X117711403Y-98481507D01*
X117711401Y-98481505D01*
X117517830Y-98345965D01*
X117303663Y-98246097D01*
X117203755Y-98219327D01*
X117075407Y-98184936D01*
X116840000Y-98164340D01*
X116604592Y-98184936D01*
X116376336Y-98246097D01*
X116162170Y-98345965D01*
X115968601Y-98481503D01*
X115846285Y-98603819D01*
X115793539Y-98635114D01*
X115732246Y-98637303D01*
X115677401Y-98609850D01*
X115642422Y-98559471D01*
X115593352Y-98427911D01*
X115507188Y-98312811D01*
X115392089Y-98226647D01*
X115257375Y-98176402D01*
X115197824Y-98170000D01*
X114550000Y-98170000D01*
X114550000Y-100870000D01*
X114050000Y-100870000D01*
X114050000Y-99770000D01*
X112950000Y-99770000D01*
X107853259Y-99770000D01*
X107810134Y-99677519D01*
X107679658Y-99491180D01*
X107518819Y-99330341D01*
X107432643Y-99270000D01*
X112950000Y-99270000D01*
X114050000Y-99270000D01*
X114050000Y-98170000D01*
X113402176Y-98170000D01*
X113342624Y-98176402D01*
X113207910Y-98226647D01*
X113092811Y-98312811D01*
X113006647Y-98427910D01*
X112956402Y-98562624D01*
X112950000Y-98622176D01*
X112950000Y-99270000D01*
X107432643Y-99270000D01*
X107332480Y-99199865D01*
X107126326Y-99103733D01*
X106930000Y-99051128D01*
X106430000Y-99051128D01*
X106429999Y-99051128D01*
X106233673Y-99103733D01*
X106027519Y-99199865D01*
X105841180Y-99330341D01*
X105680341Y-99491180D01*
X105549865Y-99677519D01*
X105453733Y-99883673D01*
X105401128Y-100079999D01*
X105401128Y-100080000D01*
X102100500Y-100080000D01*
X102100500Y-84899026D01*
X105954526Y-84899026D01*
X106027515Y-84950133D01*
X106233673Y-85046266D01*
X106453397Y-85105141D01*
X106680000Y-85124966D01*
X106906602Y-85105141D01*
X107126326Y-85046266D01*
X107135474Y-85042000D01*
X110012671Y-85042000D01*
X110031966Y-85336386D01*
X110089518Y-85625719D01*
X110184347Y-85905077D01*
X110314827Y-86169664D01*
X110478726Y-86414957D01*
X110582358Y-86533125D01*
X110673242Y-86636758D01*
X110791410Y-86740389D01*
X110895042Y-86831273D01*
X111140335Y-86995172D01*
X111404922Y-87125652D01*
X111494180Y-87155951D01*
X111684278Y-87220481D01*
X111829944Y-87249455D01*
X111973613Y-87278033D01*
X111973615Y-87278033D01*
X111973620Y-87278034D01*
X112268000Y-87297329D01*
X112562380Y-87278034D01*
X112562384Y-87278033D01*
X112562386Y-87278033D01*
X112640078Y-87262579D01*
X112851722Y-87220481D01*
X113131077Y-87125652D01*
X113395665Y-86995172D01*
X113640957Y-86831273D01*
X113862758Y-86636758D01*
X114057273Y-86414957D01*
X114221172Y-86169665D01*
X114351652Y-85905077D01*
X114446481Y-85625722D01*
X114504034Y-85336380D01*
X114523329Y-85042000D01*
X119156671Y-85042000D01*
X119175966Y-85336386D01*
X119233518Y-85625719D01*
X119328347Y-85905077D01*
X119458827Y-86169664D01*
X119622726Y-86414957D01*
X119726358Y-86533125D01*
X119817242Y-86636758D01*
X119935410Y-86740389D01*
X120039042Y-86831273D01*
X120284335Y-86995172D01*
X120548922Y-87125652D01*
X120638180Y-87155951D01*
X120828278Y-87220481D01*
X120973944Y-87249455D01*
X121117613Y-87278033D01*
X121117615Y-87278033D01*
X121117620Y-87278034D01*
X121412000Y-87297329D01*
X121706380Y-87278034D01*
X121706384Y-87278033D01*
X121706386Y-87278033D01*
X121784078Y-87262579D01*
X121995722Y-87220481D01*
X122275077Y-87125652D01*
X122539665Y-86995172D01*
X122784957Y-86831273D01*
X123006758Y-86636758D01*
X123201273Y-86414957D01*
X123365172Y-86169665D01*
X123495652Y-85905077D01*
X123504306Y-85879584D01*
X127999500Y-85879584D01*
X128014502Y-86065417D01*
X128074025Y-86306912D01*
X128074026Y-86306914D01*
X128123608Y-86423289D01*
X128171519Y-86535739D01*
X128235400Y-86636758D01*
X128304452Y-86745954D01*
X128469386Y-86932127D01*
X128662049Y-87089431D01*
X128877451Y-87213793D01*
X129110012Y-87301992D01*
X129353709Y-87351743D01*
X129436549Y-87355081D01*
X129602227Y-87361759D01*
X129602227Y-87361758D01*
X129602231Y-87361759D01*
X129849142Y-87331778D01*
X130088046Y-87262579D01*
X130312756Y-87155953D01*
X130517452Y-87014661D01*
X130696832Y-86842364D01*
X130846251Y-86643523D01*
X130961839Y-86423289D01*
X131040602Y-86187365D01*
X131080500Y-85941862D01*
X131080500Y-85879584D01*
X133079500Y-85879584D01*
X133094502Y-86065417D01*
X133154025Y-86306912D01*
X133154026Y-86306914D01*
X133203608Y-86423289D01*
X133251519Y-86535739D01*
X133315400Y-86636758D01*
X133384452Y-86745954D01*
X133549386Y-86932127D01*
X133742049Y-87089431D01*
X133957451Y-87213793D01*
X134190012Y-87301992D01*
X134433709Y-87351743D01*
X134516549Y-87355081D01*
X134682227Y-87361759D01*
X134682227Y-87361758D01*
X134682231Y-87361759D01*
X134929142Y-87331778D01*
X135168046Y-87262579D01*
X135392756Y-87155953D01*
X135597452Y-87014661D01*
X135776832Y-86842364D01*
X135915740Y-86657510D01*
X138159500Y-86657510D01*
X138170000Y-86760298D01*
X138225186Y-86926835D01*
X138317288Y-87076157D01*
X138441342Y-87200211D01*
X138463362Y-87213793D01*
X138590665Y-87292314D01*
X138702015Y-87329212D01*
X138757201Y-87347499D01*
X138859990Y-87358000D01*
X140540010Y-87358000D01*
X140642798Y-87347499D01*
X140642798Y-87347498D01*
X140809335Y-87292314D01*
X140958656Y-87200212D01*
X141082712Y-87076156D01*
X141174814Y-86926835D01*
X141229999Y-86760298D01*
X141240500Y-86657510D01*
X141240500Y-83457490D01*
X141229999Y-83354702D01*
X141174814Y-83188165D01*
X141082712Y-83038844D01*
X141082711Y-83038842D01*
X140958657Y-82914788D01*
X140809335Y-82822686D01*
X140642798Y-82767500D01*
X140540010Y-82757000D01*
X138859990Y-82757000D01*
X138757201Y-82767500D01*
X138590664Y-82822686D01*
X138441342Y-82914788D01*
X138317288Y-83038842D01*
X138225186Y-83188164D01*
X138170000Y-83354701D01*
X138159500Y-83457490D01*
X138159500Y-86657510D01*
X135915740Y-86657510D01*
X135926251Y-86643523D01*
X136041839Y-86423289D01*
X136120602Y-86187365D01*
X136160500Y-85941862D01*
X136160500Y-84235415D01*
X136145498Y-84049582D01*
X136085974Y-83808086D01*
X135988483Y-83579265D01*
X135855548Y-83369046D01*
X135690614Y-83182873D01*
X135690612Y-83182871D01*
X135690611Y-83182870D01*
X135497951Y-83025569D01*
X135282549Y-82901207D01*
X135049987Y-82813007D01*
X134806288Y-82763256D01*
X134557772Y-82753240D01*
X134310855Y-82783222D01*
X134071956Y-82852420D01*
X133847242Y-82959048D01*
X133642548Y-83100339D01*
X133463168Y-83272635D01*
X133313747Y-83471479D01*
X133198162Y-83691706D01*
X133119397Y-83927639D01*
X133079500Y-84173137D01*
X133079500Y-85879584D01*
X131080500Y-85879584D01*
X131080500Y-84235415D01*
X131065498Y-84049582D01*
X131005974Y-83808086D01*
X130908483Y-83579265D01*
X130775548Y-83369046D01*
X130610614Y-83182873D01*
X130610612Y-83182871D01*
X130610611Y-83182870D01*
X130417951Y-83025569D01*
X130202549Y-82901207D01*
X129969987Y-82813007D01*
X129726288Y-82763256D01*
X129477772Y-82753240D01*
X129230855Y-82783222D01*
X128991956Y-82852420D01*
X128767242Y-82959048D01*
X128562548Y-83100339D01*
X128383168Y-83272635D01*
X128233747Y-83471479D01*
X128118162Y-83691706D01*
X128039397Y-83927639D01*
X127999500Y-84173137D01*
X127999500Y-85879584D01*
X123504306Y-85879584D01*
X123590481Y-85625722D01*
X123648034Y-85336380D01*
X123667329Y-85042000D01*
X123648034Y-84747620D01*
X123590481Y-84458278D01*
X123495652Y-84178923D01*
X123492799Y-84173138D01*
X123365172Y-83914336D01*
X123201273Y-83669043D01*
X123166530Y-83629426D01*
X123006758Y-83447242D01*
X122901236Y-83354701D01*
X122784957Y-83252726D01*
X122539664Y-83088827D01*
X122275077Y-82958347D01*
X121995719Y-82863518D01*
X121706386Y-82805966D01*
X121412000Y-82786671D01*
X121117613Y-82805966D01*
X120828280Y-82863518D01*
X120548922Y-82958347D01*
X120284336Y-83088827D01*
X120039043Y-83252726D01*
X119817242Y-83447242D01*
X119622726Y-83669043D01*
X119458827Y-83914336D01*
X119328347Y-84178922D01*
X119233518Y-84458280D01*
X119175966Y-84747613D01*
X119156671Y-85042000D01*
X114523329Y-85042000D01*
X114504034Y-84747620D01*
X114446481Y-84458278D01*
X114351652Y-84178923D01*
X114348799Y-84173138D01*
X114221172Y-83914336D01*
X114057273Y-83669043D01*
X114022530Y-83629426D01*
X113862758Y-83447242D01*
X113757236Y-83354701D01*
X113640957Y-83252726D01*
X113395664Y-83088827D01*
X113131077Y-82958347D01*
X112851719Y-82863518D01*
X112562386Y-82805966D01*
X112268000Y-82786671D01*
X111973613Y-82805966D01*
X111684280Y-82863518D01*
X111404922Y-82958347D01*
X111140336Y-83088827D01*
X110895043Y-83252726D01*
X110673242Y-83447242D01*
X110478726Y-83669043D01*
X110314827Y-83914336D01*
X110184347Y-84178922D01*
X110089518Y-84458280D01*
X110031966Y-84747613D01*
X110012671Y-85042000D01*
X107135474Y-85042000D01*
X107332480Y-84950134D01*
X107405472Y-84899025D01*
X106680001Y-84173553D01*
X106680000Y-84173553D01*
X105954526Y-84899025D01*
X105954526Y-84899026D01*
X102100500Y-84899026D01*
X102100500Y-83819999D01*
X105375033Y-83819999D01*
X105394858Y-84046602D01*
X105453733Y-84266326D01*
X105549866Y-84472484D01*
X105600972Y-84545471D01*
X105600974Y-84545472D01*
X106326446Y-83820001D01*
X107033553Y-83820001D01*
X107759025Y-84545472D01*
X107810134Y-84472480D01*
X107906266Y-84266326D01*
X107965141Y-84046602D01*
X107984966Y-83819999D01*
X107965141Y-83593397D01*
X107906266Y-83373673D01*
X107810133Y-83167515D01*
X107759025Y-83094526D01*
X107033553Y-83820000D01*
X107033553Y-83820001D01*
X106326446Y-83820001D01*
X106326446Y-83820000D01*
X105600973Y-83094526D01*
X105600973Y-83094527D01*
X105549865Y-83167516D01*
X105453733Y-83373672D01*
X105394858Y-83593397D01*
X105375033Y-83819999D01*
X102100500Y-83819999D01*
X102100500Y-82167869D01*
X105379500Y-82167869D01*
X105385909Y-82227483D01*
X105436204Y-82362331D01*
X105522454Y-82477546D01*
X105637669Y-82563796D01*
X105772517Y-82614091D01*
X105832127Y-82620500D01*
X105832131Y-82620499D01*
X105838735Y-82621210D01*
X105838542Y-82623000D01*
X105894824Y-82638950D01*
X105940550Y-82688838D01*
X105949582Y-82736029D01*
X106680000Y-83466446D01*
X106680001Y-83466446D01*
X107410414Y-82736031D01*
X107419443Y-82688849D01*
X107465157Y-82638961D01*
X107521456Y-82622993D01*
X107521265Y-82621209D01*
X107527869Y-82620499D01*
X107527872Y-82620499D01*
X107587483Y-82614091D01*
X107722331Y-82563796D01*
X107837546Y-82477546D01*
X107923796Y-82362331D01*
X107974091Y-82227483D01*
X107980500Y-82167873D01*
X107980499Y-80472128D01*
X107974091Y-80412517D01*
X107923796Y-80277669D01*
X107837546Y-80162454D01*
X107722331Y-80076204D01*
X107587483Y-80025909D01*
X107527873Y-80019500D01*
X107527869Y-80019500D01*
X105832130Y-80019500D01*
X105772515Y-80025909D01*
X105637669Y-80076204D01*
X105522454Y-80162454D01*
X105436204Y-80277668D01*
X105385909Y-80412516D01*
X105379500Y-80472130D01*
X105379500Y-82167869D01*
X102100500Y-82167869D01*
X102100500Y-79341607D01*
X145719500Y-79341607D01*
X145734699Y-79495932D01*
X145764734Y-79594944D01*
X145794768Y-79693954D01*
X145892315Y-79876450D01*
X145943608Y-79938952D01*
X146023589Y-80036410D01*
X146072079Y-80076204D01*
X146183550Y-80167685D01*
X146366046Y-80265232D01*
X146564066Y-80325300D01*
X146718392Y-80340500D01*
X147921607Y-80340500D01*
X147921608Y-80340500D01*
X148075934Y-80325300D01*
X148273954Y-80265232D01*
X148456450Y-80167685D01*
X148616410Y-80036410D01*
X148747685Y-79876450D01*
X148845232Y-79693954D01*
X148905300Y-79495934D01*
X148920500Y-79341608D01*
X148920500Y-78990000D01*
X150874728Y-78990000D01*
X150874811Y-78991068D01*
X150933603Y-79235956D01*
X151029982Y-79468632D01*
X151161569Y-79683364D01*
X151325130Y-79874869D01*
X151516635Y-80038430D01*
X151731367Y-80170017D01*
X151964043Y-80266396D01*
X152208931Y-80325188D01*
X152210000Y-80325272D01*
X152210000Y-78990000D01*
X152710000Y-78990000D01*
X152710000Y-80325272D01*
X152711068Y-80325188D01*
X152955956Y-80266396D01*
X153188632Y-80170017D01*
X153403364Y-80038430D01*
X153594869Y-79874869D01*
X153758430Y-79683364D01*
X153890017Y-79468632D01*
X153986396Y-79235956D01*
X154045188Y-78991068D01*
X154045272Y-78990000D01*
X152710000Y-78990000D01*
X152210000Y-78990000D01*
X150874728Y-78990000D01*
X148920500Y-78990000D01*
X148920500Y-78860399D01*
X172149500Y-78860399D01*
X172189134Y-79097915D01*
X172236524Y-79235956D01*
X172267321Y-79325664D01*
X172381928Y-79537439D01*
X172529829Y-79727463D01*
X172706990Y-79890551D01*
X172908578Y-80022255D01*
X173129095Y-80118983D01*
X173362524Y-80178095D01*
X173434474Y-80184056D01*
X173542394Y-80193000D01*
X173542400Y-80193000D01*
X173757600Y-80193000D01*
X173757606Y-80193000D01*
X173855714Y-80184869D01*
X173937476Y-80178095D01*
X174170905Y-80118983D01*
X174391422Y-80022255D01*
X174593010Y-79890551D01*
X174770171Y-79727463D01*
X174918072Y-79537439D01*
X175032679Y-79325664D01*
X175110866Y-79097913D01*
X175150500Y-78860399D01*
X175150500Y-78619601D01*
X175110866Y-78382087D01*
X175032679Y-78154336D01*
X174918072Y-77942561D01*
X174770171Y-77752537D01*
X174593010Y-77589449D01*
X174593007Y-77589447D01*
X174593006Y-77589446D01*
X174568613Y-77573509D01*
X174527380Y-77528718D01*
X174512435Y-77469700D01*
X174527381Y-77410683D01*
X174568614Y-77365892D01*
X174592700Y-77350155D01*
X174769801Y-77187122D01*
X174917651Y-76997164D01*
X175032219Y-76785460D01*
X175110380Y-76557792D01*
X175128367Y-76450000D01*
X172171633Y-76450000D01*
X172189619Y-76557792D01*
X172267780Y-76785460D01*
X172382348Y-76997164D01*
X172530201Y-77187126D01*
X172707294Y-77350153D01*
X172731385Y-77365892D01*
X172772618Y-77410682D01*
X172787564Y-77469699D01*
X172772620Y-77528717D01*
X172731388Y-77573508D01*
X172706992Y-77589446D01*
X172529829Y-77752536D01*
X172381929Y-77942559D01*
X172381927Y-77942561D01*
X172381928Y-77942561D01*
X172268996Y-78151242D01*
X172267319Y-78154340D01*
X172189134Y-78382084D01*
X172149500Y-78619601D01*
X172149500Y-78860399D01*
X148920500Y-78860399D01*
X148920500Y-78489999D01*
X150874728Y-78489999D01*
X150874729Y-78490000D01*
X152210000Y-78490000D01*
X152210000Y-77154729D01*
X152209999Y-77154728D01*
X152710000Y-77154728D01*
X152710000Y-78490000D01*
X154045271Y-78490000D01*
X154045271Y-78489999D01*
X154045188Y-78488931D01*
X153986396Y-78244043D01*
X153890017Y-78011367D01*
X153758430Y-77796635D01*
X153594869Y-77605130D01*
X153403364Y-77441569D01*
X153188632Y-77309982D01*
X152955956Y-77213603D01*
X152711068Y-77154811D01*
X152710000Y-77154728D01*
X152209999Y-77154728D01*
X152208931Y-77154811D01*
X151964043Y-77213603D01*
X151731367Y-77309982D01*
X151516635Y-77441569D01*
X151325130Y-77605130D01*
X151161569Y-77796635D01*
X151029982Y-78011367D01*
X150933603Y-78244043D01*
X150874811Y-78488931D01*
X150874728Y-78489999D01*
X148920500Y-78489999D01*
X148920500Y-78138392D01*
X148905300Y-77984066D01*
X148845232Y-77786046D01*
X148747685Y-77603550D01*
X148637838Y-77469700D01*
X148616410Y-77443589D01*
X148502556Y-77350153D01*
X148456450Y-77312315D01*
X148323666Y-77241340D01*
X148273956Y-77214769D01*
X148273955Y-77214768D01*
X148273954Y-77214768D01*
X148174943Y-77184733D01*
X148075932Y-77154699D01*
X147938467Y-77141160D01*
X147921608Y-77139500D01*
X146718392Y-77139500D01*
X146703192Y-77140996D01*
X146564067Y-77154699D01*
X146366043Y-77214769D01*
X146183551Y-77312314D01*
X146023589Y-77443589D01*
X145892314Y-77603551D01*
X145794769Y-77786043D01*
X145794768Y-77786045D01*
X145794768Y-77786046D01*
X145792126Y-77794757D01*
X145734699Y-77984067D01*
X145719500Y-78138393D01*
X145719500Y-79341607D01*
X102100500Y-79341607D01*
X102100500Y-73660000D01*
X103374651Y-73660000D01*
X103394027Y-74017364D01*
X103394027Y-74017369D01*
X103394028Y-74017371D01*
X103421025Y-74182043D01*
X103451930Y-74370559D01*
X103547674Y-74715401D01*
X103680146Y-75047881D01*
X103843473Y-75355944D01*
X103847789Y-75364085D01*
X103944236Y-75506334D01*
X104048636Y-75660313D01*
X104280332Y-75933086D01*
X104540161Y-76179210D01*
X104711196Y-76309227D01*
X104825081Y-76395800D01*
X105131747Y-76580315D01*
X105456565Y-76730591D01*
X105795726Y-76844868D01*
X106145254Y-76921805D01*
X106466151Y-76956704D01*
X106501051Y-76960500D01*
X106501052Y-76960500D01*
X106858948Y-76960500D01*
X106858949Y-76960500D01*
X106890730Y-76957043D01*
X107214746Y-76921805D01*
X107564274Y-76844868D01*
X107903435Y-76730591D01*
X108228253Y-76580315D01*
X108534919Y-76395800D01*
X108819837Y-76179211D01*
X109079668Y-75933086D01*
X109245709Y-75737607D01*
X112699500Y-75737607D01*
X112714699Y-75891932D01*
X112732314Y-75950000D01*
X112774768Y-76089954D01*
X112872315Y-76272450D01*
X112923609Y-76334952D01*
X113003589Y-76432410D01*
X113046619Y-76467723D01*
X113163550Y-76563685D01*
X113346046Y-76661232D01*
X113544066Y-76721300D01*
X113698392Y-76736500D01*
X114901607Y-76736500D01*
X114901608Y-76736500D01*
X115055934Y-76721300D01*
X115253954Y-76661232D01*
X115436450Y-76563685D01*
X115596410Y-76432410D01*
X115727685Y-76272450D01*
X115825232Y-76089954D01*
X115885300Y-75891934D01*
X115900500Y-75737608D01*
X115900500Y-75135999D01*
X117774551Y-75135999D01*
X117794317Y-75387149D01*
X117853126Y-75632110D01*
X117896825Y-75737607D01*
X117949534Y-75864859D01*
X118081164Y-76079659D01*
X118244776Y-76271224D01*
X118436341Y-76434836D01*
X118651141Y-76566466D01*
X118883889Y-76662873D01*
X119128852Y-76721683D01*
X119380000Y-76741449D01*
X119631148Y-76721683D01*
X119876111Y-76662873D01*
X120108859Y-76566466D01*
X120323659Y-76434836D01*
X120515224Y-76271224D01*
X120576056Y-76199999D01*
X188054671Y-76199999D01*
X188056635Y-76229969D01*
X188056831Y-76242218D01*
X188055723Y-76275372D01*
X188066664Y-76384136D01*
X188067021Y-76388436D01*
X188073965Y-76494381D01*
X188080469Y-76527083D01*
X188082228Y-76538852D01*
X188085882Y-76575164D01*
X188110457Y-76678287D01*
X188111452Y-76682841D01*
X188131518Y-76783719D01*
X188143301Y-76818433D01*
X188146502Y-76829539D01*
X188155731Y-76868261D01*
X188166712Y-76896772D01*
X188192644Y-76964106D01*
X188194346Y-76968806D01*
X188226347Y-77063075D01*
X188226349Y-77063079D01*
X188244022Y-77098917D01*
X188248522Y-77109190D01*
X188264022Y-77149432D01*
X188311787Y-77236594D01*
X188314249Y-77241325D01*
X188356828Y-77327665D01*
X188356829Y-77327667D01*
X188356830Y-77327668D01*
X188380870Y-77363648D01*
X188386506Y-77372941D01*
X188408823Y-77413662D01*
X188465826Y-77491028D01*
X188469099Y-77495691D01*
X188520726Y-77572956D01*
X188551445Y-77607985D01*
X188558044Y-77616188D01*
X188587552Y-77656237D01*
X188652064Y-77722942D01*
X188656156Y-77727385D01*
X188682304Y-77757200D01*
X188715242Y-77794758D01*
X188752756Y-77827657D01*
X188760128Y-77834679D01*
X188797018Y-77872822D01*
X188797020Y-77872824D01*
X188867241Y-77928276D01*
X188872148Y-77932360D01*
X188937043Y-77989273D01*
X188970109Y-78011367D01*
X188981290Y-78018838D01*
X188989247Y-78024624D01*
X189033485Y-78059558D01*
X189107610Y-78103462D01*
X189113308Y-78107050D01*
X189168092Y-78143655D01*
X189182335Y-78153172D01*
X189233051Y-78178182D01*
X189241381Y-78182695D01*
X189292730Y-78213109D01*
X189318750Y-78224142D01*
X189369009Y-78245455D01*
X189375437Y-78248399D01*
X189446923Y-78283652D01*
X189503611Y-78302895D01*
X189512134Y-78306144D01*
X189570128Y-78330736D01*
X189643156Y-78350740D01*
X189646832Y-78351747D01*
X189653916Y-78353916D01*
X189726278Y-78378481D01*
X189788232Y-78390804D01*
X189796786Y-78392824D01*
X189860729Y-78410340D01*
X189936297Y-78420502D01*
X189943939Y-78421775D01*
X190015620Y-78436034D01*
X190081972Y-78440382D01*
X190090342Y-78441219D01*
X190150823Y-78449353D01*
X190159346Y-78450500D01*
X190159347Y-78450500D01*
X190232273Y-78450500D01*
X190240382Y-78450765D01*
X190310000Y-78455329D01*
X190379617Y-78450765D01*
X190382858Y-78450659D01*
X190385233Y-78450500D01*
X190385244Y-78450500D01*
X190458670Y-78445584D01*
X190458843Y-78445609D01*
X190458841Y-78445574D01*
X190579742Y-78437648D01*
X190604380Y-78436034D01*
X190604381Y-78436033D01*
X190609091Y-78435725D01*
X190610629Y-78435412D01*
X190610634Y-78435412D01*
X190753658Y-78406341D01*
X190893722Y-78378481D01*
X190893727Y-78378479D01*
X190896644Y-78377899D01*
X190905879Y-78375403D01*
X190905893Y-78375397D01*
X190905903Y-78375396D01*
X191040580Y-78328630D01*
X191041251Y-78328401D01*
X191112076Y-78304359D01*
X191173077Y-78283652D01*
X191173219Y-78283581D01*
X191187412Y-78277644D01*
X191190537Y-78276560D01*
X191314815Y-78213758D01*
X191315645Y-78213344D01*
X191437665Y-78153172D01*
X191440567Y-78151232D01*
X191453530Y-78143663D01*
X191459459Y-78140668D01*
X191571531Y-78063734D01*
X191572650Y-78062977D01*
X191682957Y-77989273D01*
X191688069Y-77984788D01*
X191699660Y-77975778D01*
X191707869Y-77970144D01*
X191806204Y-77881203D01*
X191807489Y-77880059D01*
X191904758Y-77794758D01*
X191911434Y-77787144D01*
X191921493Y-77776931D01*
X191931333Y-77768032D01*
X192014806Y-77669298D01*
X192016039Y-77667864D01*
X192099273Y-77572957D01*
X192106748Y-77561768D01*
X192115144Y-77550618D01*
X192125865Y-77537939D01*
X192131752Y-77528718D01*
X192169427Y-77469700D01*
X192193612Y-77431814D01*
X192194944Y-77429774D01*
X192263172Y-77327665D01*
X192270589Y-77312622D01*
X192277284Y-77300744D01*
X192286059Y-77287000D01*
X192287993Y-77283970D01*
X192339611Y-77172733D01*
X192340806Y-77170236D01*
X192393652Y-77063077D01*
X192400108Y-77044056D01*
X192405047Y-77031724D01*
X192414823Y-77010658D01*
X192450155Y-76896754D01*
X192451164Y-76893651D01*
X192459783Y-76868261D01*
X192488481Y-76783722D01*
X192493046Y-76760768D01*
X192496228Y-76748229D01*
X192504093Y-76722879D01*
X192523383Y-76608516D01*
X192524023Y-76605033D01*
X192546034Y-76494380D01*
X192547781Y-76467708D01*
X192549240Y-76455222D01*
X192554209Y-76425770D01*
X192557973Y-76313173D01*
X192558169Y-76309227D01*
X192560389Y-76275369D01*
X192565329Y-76200000D01*
X192563363Y-76170022D01*
X192563167Y-76157803D01*
X192564277Y-76124631D01*
X192553336Y-76015880D01*
X192552980Y-76011584D01*
X192546034Y-75905624D01*
X192546034Y-75905623D01*
X192546034Y-75905620D01*
X192539528Y-75872912D01*
X192537770Y-75861143D01*
X192534118Y-75824842D01*
X192534118Y-75824838D01*
X192509532Y-75721675D01*
X192508556Y-75717210D01*
X192488481Y-75616278D01*
X192476695Y-75581559D01*
X192473496Y-75570456D01*
X192464269Y-75531739D01*
X192453283Y-75503215D01*
X192427351Y-75435884D01*
X192425655Y-75431200D01*
X192411444Y-75389337D01*
X192393652Y-75336923D01*
X192375969Y-75301065D01*
X192371476Y-75290808D01*
X192355977Y-75250566D01*
X192308196Y-75163378D01*
X192305747Y-75158671D01*
X192263172Y-75072336D01*
X192239120Y-75036341D01*
X192233503Y-75027081D01*
X192211175Y-74986335D01*
X192154169Y-74908966D01*
X192150897Y-74904304D01*
X192099273Y-74827043D01*
X192068553Y-74792013D01*
X192061953Y-74783809D01*
X192038581Y-74752089D01*
X192032446Y-74743762D01*
X191967934Y-74677056D01*
X191963842Y-74672613D01*
X191920378Y-74623053D01*
X191904758Y-74605242D01*
X191871621Y-74576181D01*
X191867236Y-74572335D01*
X191859865Y-74565314D01*
X191822980Y-74527176D01*
X191752768Y-74471731D01*
X191747857Y-74467643D01*
X191693600Y-74420061D01*
X191682957Y-74410727D01*
X191682953Y-74410724D01*
X191638701Y-74381154D01*
X191630746Y-74375370D01*
X191586517Y-74340443D01*
X191512387Y-74296536D01*
X191506690Y-74292948D01*
X191437668Y-74246829D01*
X191386949Y-74221816D01*
X191378604Y-74217295D01*
X191327272Y-74186891D01*
X191266754Y-74161229D01*
X191250997Y-74154548D01*
X191244570Y-74151603D01*
X191173082Y-74116349D01*
X191116409Y-74097111D01*
X191107862Y-74093853D01*
X191049874Y-74069265D01*
X191049875Y-74069265D01*
X191049872Y-74069264D01*
X191012862Y-74059126D01*
X190973154Y-74048248D01*
X190966057Y-74046073D01*
X190893720Y-74021518D01*
X190831777Y-74009197D01*
X190823212Y-74007175D01*
X190795376Y-73999550D01*
X190759269Y-73989659D01*
X190683717Y-73979497D01*
X190676058Y-73978222D01*
X190604375Y-73963965D01*
X190538070Y-73959619D01*
X190529654Y-73958779D01*
X190460653Y-73949500D01*
X190387727Y-73949500D01*
X190379617Y-73949234D01*
X190376578Y-73949034D01*
X190310000Y-73944670D01*
X190243421Y-73949034D01*
X190240382Y-73949234D01*
X190237136Y-73949340D01*
X190161157Y-73954426D01*
X190160987Y-73954437D01*
X190010913Y-73964274D01*
X190009369Y-73964587D01*
X190009366Y-73964588D01*
X189866594Y-73993606D01*
X189866146Y-73993696D01*
X189723402Y-74022090D01*
X189714107Y-74024602D01*
X189714096Y-74024604D01*
X189579651Y-74071287D01*
X189578837Y-74071567D01*
X189446916Y-74116350D01*
X189446755Y-74116430D01*
X189432619Y-74122343D01*
X189429465Y-74123438D01*
X189305241Y-74186210D01*
X189304162Y-74186749D01*
X189182326Y-74246833D01*
X189179419Y-74248775D01*
X189166483Y-74256328D01*
X189160543Y-74259330D01*
X189048584Y-74336185D01*
X189047298Y-74337056D01*
X188937044Y-74410725D01*
X188931923Y-74415217D01*
X188920348Y-74424215D01*
X188912129Y-74429857D01*
X188813881Y-74518716D01*
X188812465Y-74519977D01*
X188715240Y-74605243D01*
X188708557Y-74612863D01*
X188698522Y-74623053D01*
X188688665Y-74631969D01*
X188605299Y-74730574D01*
X188603836Y-74732274D01*
X188520726Y-74827043D01*
X188513250Y-74838231D01*
X188504850Y-74849386D01*
X188494136Y-74862058D01*
X188426420Y-74968132D01*
X188425005Y-74970297D01*
X188356828Y-75072334D01*
X188349414Y-75087368D01*
X188342725Y-75099238D01*
X188332008Y-75116026D01*
X188280412Y-75227212D01*
X188279146Y-75229858D01*
X188226347Y-75336925D01*
X188219890Y-75355944D01*
X188214954Y-75368270D01*
X188205178Y-75389337D01*
X188190732Y-75435908D01*
X188169841Y-75503250D01*
X188168839Y-75506334D01*
X188131519Y-75616273D01*
X188126952Y-75639234D01*
X188123768Y-75651776D01*
X188115906Y-75677120D01*
X188096622Y-75791434D01*
X188095968Y-75794996D01*
X188073965Y-75905623D01*
X188072218Y-75932273D01*
X188070758Y-75944780D01*
X188065791Y-75974230D01*
X188062027Y-76086779D01*
X188061831Y-76090742D01*
X188054671Y-76199999D01*
X120576056Y-76199999D01*
X120678836Y-76079659D01*
X120810466Y-75864859D01*
X120906873Y-75632111D01*
X120965683Y-75387148D01*
X120985449Y-75136000D01*
X120965683Y-74884852D01*
X120906873Y-74639889D01*
X120810466Y-74407141D01*
X120678836Y-74192341D01*
X120515224Y-74000776D01*
X120323659Y-73837164D01*
X120108859Y-73705534D01*
X119998928Y-73659999D01*
X159934340Y-73659999D01*
X159954936Y-73895407D01*
X159995307Y-74046073D01*
X160016097Y-74123663D01*
X160115965Y-74337830D01*
X160251505Y-74531401D01*
X160418599Y-74698495D01*
X160612170Y-74834035D01*
X160826337Y-74933903D01*
X161054592Y-74995063D01*
X161290000Y-75015659D01*
X161525408Y-74995063D01*
X161753663Y-74933903D01*
X161967830Y-74834035D01*
X162161401Y-74698495D01*
X162283717Y-74576178D01*
X162336460Y-74544885D01*
X162397752Y-74542696D01*
X162452597Y-74570149D01*
X162487577Y-74620528D01*
X162536647Y-74752088D01*
X162622811Y-74867188D01*
X162737910Y-74953352D01*
X162872624Y-75003597D01*
X162932176Y-75010000D01*
X163580000Y-75010000D01*
X163580000Y-73910000D01*
X164080000Y-73910000D01*
X164080000Y-75010000D01*
X164727824Y-75010000D01*
X164787375Y-75003597D01*
X164922089Y-74953352D01*
X165037188Y-74867188D01*
X165123352Y-74752089D01*
X165157561Y-74660369D01*
X172149500Y-74660369D01*
X172155909Y-74719984D01*
X172164778Y-74743762D01*
X172206204Y-74854831D01*
X172292454Y-74970046D01*
X172407669Y-75056296D01*
X172438805Y-75067909D01*
X172486621Y-75100021D01*
X172514771Y-75150274D01*
X172517179Y-75207824D01*
X172493325Y-75260252D01*
X172382347Y-75402836D01*
X172267780Y-75614539D01*
X172189619Y-75842207D01*
X172171633Y-75949999D01*
X172171634Y-75950000D01*
X175128366Y-75950000D01*
X175128366Y-75949999D01*
X175110380Y-75842207D01*
X175032219Y-75614539D01*
X174917651Y-75402835D01*
X174806675Y-75260253D01*
X174782821Y-75207824D01*
X174785228Y-75150274D01*
X174813378Y-75100020D01*
X174861194Y-75067909D01*
X174892331Y-75056296D01*
X175007546Y-74970046D01*
X175093796Y-74854831D01*
X175144091Y-74719983D01*
X175150500Y-74660373D01*
X175150499Y-73660000D01*
X194814651Y-73660000D01*
X194834027Y-74017364D01*
X194834027Y-74017369D01*
X194834028Y-74017371D01*
X194861025Y-74182043D01*
X194891930Y-74370559D01*
X194987674Y-74715401D01*
X195120146Y-75047881D01*
X195283473Y-75355944D01*
X195287789Y-75364085D01*
X195384236Y-75506334D01*
X195488636Y-75660313D01*
X195720332Y-75933086D01*
X195980161Y-76179210D01*
X196151196Y-76309227D01*
X196265081Y-76395800D01*
X196571747Y-76580315D01*
X196896565Y-76730591D01*
X197235726Y-76844868D01*
X197585254Y-76921805D01*
X197906151Y-76956704D01*
X197941051Y-76960500D01*
X197941052Y-76960500D01*
X198298948Y-76960500D01*
X198298949Y-76960500D01*
X198330730Y-76957043D01*
X198654746Y-76921805D01*
X199004274Y-76844868D01*
X199343435Y-76730591D01*
X199668253Y-76580315D01*
X199974919Y-76395800D01*
X200259837Y-76179211D01*
X200519668Y-75933086D01*
X200751365Y-75660311D01*
X200952211Y-75364085D01*
X201058618Y-75163381D01*
X201119853Y-75047881D01*
X201252325Y-74715401D01*
X201348069Y-74370559D01*
X201348068Y-74370559D01*
X201348071Y-74370552D01*
X201405972Y-74017371D01*
X201425348Y-73660000D01*
X201405972Y-73302629D01*
X201348071Y-72949448D01*
X201303412Y-72788599D01*
X201252325Y-72604598D01*
X201119853Y-72272118D01*
X200952213Y-71955919D01*
X200952211Y-71955915D01*
X200751365Y-71659689D01*
X200751363Y-71659686D01*
X200519667Y-71386913D01*
X200259838Y-71140789D01*
X199974918Y-70924199D01*
X199668250Y-70739683D01*
X199343439Y-70589411D01*
X199343440Y-70589411D01*
X199343435Y-70589409D01*
X199004274Y-70475132D01*
X199004273Y-70475131D01*
X199004271Y-70475131D01*
X198792189Y-70428448D01*
X198654746Y-70398195D01*
X198476847Y-70378847D01*
X198298949Y-70359500D01*
X198298948Y-70359500D01*
X197941052Y-70359500D01*
X197941051Y-70359500D01*
X197585254Y-70398195D01*
X197235728Y-70475131D01*
X197063283Y-70533234D01*
X196896565Y-70589409D01*
X196896562Y-70589410D01*
X196896560Y-70589411D01*
X196571749Y-70739683D01*
X196265081Y-70924199D01*
X195980161Y-71140789D01*
X195720332Y-71386913D01*
X195488636Y-71659686D01*
X195287786Y-71955919D01*
X195120146Y-72272118D01*
X194987674Y-72604598D01*
X194891930Y-72949440D01*
X194834027Y-73302635D01*
X194814651Y-73660000D01*
X175150499Y-73660000D01*
X175150499Y-72659628D01*
X175144091Y-72600017D01*
X175093796Y-72465169D01*
X175007546Y-72349954D01*
X174892331Y-72263704D01*
X174757483Y-72213409D01*
X174697873Y-72207000D01*
X174697869Y-72207000D01*
X172602130Y-72207000D01*
X172542515Y-72213409D01*
X172407669Y-72263704D01*
X172292454Y-72349954D01*
X172206204Y-72465168D01*
X172155909Y-72600016D01*
X172149500Y-72659630D01*
X172149500Y-74660369D01*
X165157561Y-74660369D01*
X165173597Y-74617375D01*
X165180000Y-74557824D01*
X165180000Y-73910000D01*
X164080000Y-73910000D01*
X163580000Y-73910000D01*
X163580000Y-72310000D01*
X164080000Y-72310000D01*
X164080000Y-73410000D01*
X165180000Y-73410000D01*
X165180000Y-72762176D01*
X165173597Y-72702624D01*
X165123352Y-72567910D01*
X165037188Y-72452811D01*
X164922089Y-72366647D01*
X164787375Y-72316402D01*
X164727824Y-72310000D01*
X164080000Y-72310000D01*
X163580000Y-72310000D01*
X162932176Y-72310000D01*
X162872624Y-72316402D01*
X162737910Y-72366647D01*
X162622811Y-72452811D01*
X162536646Y-72567913D01*
X162487576Y-72699472D01*
X162452597Y-72749850D01*
X162397753Y-72777303D01*
X162336460Y-72775114D01*
X162283714Y-72743818D01*
X162161404Y-72621508D01*
X162161401Y-72621505D01*
X161967830Y-72485965D01*
X161753663Y-72386097D01*
X161681074Y-72366647D01*
X161525407Y-72324936D01*
X161290000Y-72304340D01*
X161054592Y-72324936D01*
X160826336Y-72386097D01*
X160612170Y-72485965D01*
X160418598Y-72621505D01*
X160251505Y-72788598D01*
X160115965Y-72982170D01*
X160016097Y-73196336D01*
X159954936Y-73424592D01*
X159934340Y-73659999D01*
X119998928Y-73659999D01*
X119992485Y-73657330D01*
X119876110Y-73609126D01*
X119631149Y-73550317D01*
X119380000Y-73530551D01*
X119128850Y-73550317D01*
X118883889Y-73609126D01*
X118651139Y-73705535D01*
X118436342Y-73837163D01*
X118244776Y-74000776D01*
X118081163Y-74192342D01*
X117966125Y-74380067D01*
X117949534Y-74407141D01*
X117948049Y-74410727D01*
X117853126Y-74639889D01*
X117794317Y-74884850D01*
X117774551Y-75135999D01*
X115900500Y-75135999D01*
X115900500Y-74534392D01*
X115885300Y-74380066D01*
X115825232Y-74182046D01*
X115727685Y-73999550D01*
X115654194Y-73910000D01*
X115596410Y-73839589D01*
X115498952Y-73759609D01*
X115436450Y-73708315D01*
X115253954Y-73610768D01*
X115154943Y-73580733D01*
X115055932Y-73550699D01*
X114918467Y-73537160D01*
X114901608Y-73535500D01*
X113698392Y-73535500D01*
X113683192Y-73536996D01*
X113544067Y-73550699D01*
X113346043Y-73610769D01*
X113163551Y-73708314D01*
X113003589Y-73839589D01*
X112872314Y-73999551D01*
X112774769Y-74182043D01*
X112714699Y-74380067D01*
X112699500Y-74534393D01*
X112699500Y-75737607D01*
X109245709Y-75737607D01*
X109311365Y-75660311D01*
X109512211Y-75364085D01*
X109618618Y-75163381D01*
X109679853Y-75047881D01*
X109812325Y-74715401D01*
X109908069Y-74370559D01*
X109908068Y-74370559D01*
X109908071Y-74370552D01*
X109965972Y-74017371D01*
X109985348Y-73660000D01*
X109965972Y-73302629D01*
X109908071Y-72949448D01*
X109863412Y-72788599D01*
X109812325Y-72604598D01*
X109679853Y-72272118D01*
X109512213Y-71955919D01*
X109512211Y-71955915D01*
X109311365Y-71659689D01*
X109311363Y-71659686D01*
X109079667Y-71386913D01*
X108819838Y-71140789D01*
X108534918Y-70924199D01*
X108228250Y-70739683D01*
X107903439Y-70589411D01*
X107903440Y-70589411D01*
X107903435Y-70589409D01*
X107564274Y-70475132D01*
X107564273Y-70475131D01*
X107564271Y-70475131D01*
X107352189Y-70428448D01*
X107214746Y-70398195D01*
X107036847Y-70378847D01*
X106858949Y-70359500D01*
X106858948Y-70359500D01*
X106501052Y-70359500D01*
X106501051Y-70359500D01*
X106145254Y-70398195D01*
X105795728Y-70475131D01*
X105623283Y-70533234D01*
X105456565Y-70589409D01*
X105456562Y-70589410D01*
X105456560Y-70589411D01*
X105131749Y-70739683D01*
X104825081Y-70924199D01*
X104540161Y-71140789D01*
X104280332Y-71386913D01*
X104048636Y-71659686D01*
X103847786Y-71955919D01*
X103680146Y-72272118D01*
X103547674Y-72604598D01*
X103451930Y-72949440D01*
X103394027Y-73302635D01*
X103374651Y-73660000D01*
X102100500Y-73660000D01*
X102100500Y-69204500D01*
X102117113Y-69142500D01*
X102162500Y-69097113D01*
X102224500Y-69080500D01*
X202575500Y-69080500D01*
X202637500Y-69097113D01*
G37*
G04 #@! TD.AperFunction*
M02*
