G04 #@! TF.GenerationSoftware,KiCad,Pcbnew,7.0.1*
G04 #@! TF.CreationDate,2023-04-20T15:53:33+01:00*
G04 #@! TF.ProjectId,SelfBalancingRobot,53656c66-4261-46c6-916e-63696e67526f,rev?*
G04 #@! TF.SameCoordinates,Original*
G04 #@! TF.FileFunction,Legend,Top*
G04 #@! TF.FilePolarity,Positive*
%FSLAX46Y46*%
G04 Gerber Fmt 4.6, Leading zero omitted, Abs format (unit mm)*
G04 Created by KiCad (PCBNEW 7.0.1) date 2023-04-20 15:53:33*
%MOMM*%
%LPD*%
G01*
G04 APERTURE LIST*
G04 Aperture macros list*
%AMRoundRect*
0 Rectangle with rounded corners*
0 $1 Rounding radius*
0 $2 $3 $4 $5 $6 $7 $8 $9 X,Y pos of 4 corners*
0 Add a 4 corners polygon primitive as box body*
4,1,4,$2,$3,$4,$5,$6,$7,$8,$9,$2,$3,0*
0 Add four circle primitives for the rounded corners*
1,1,$1+$1,$2,$3*
1,1,$1+$1,$4,$5*
1,1,$1+$1,$6,$7*
1,1,$1+$1,$8,$9*
0 Add four rect primitives between the rounded corners*
20,1,$1+$1,$2,$3,$4,$5,0*
20,1,$1+$1,$4,$5,$6,$7,0*
20,1,$1+$1,$6,$7,$8,$9,0*
20,1,$1+$1,$8,$9,$2,$3,0*%
G04 Aperture macros list end*
%ADD10C,0.300000*%
%ADD11C,0.400000*%
%ADD12C,0.100000*%
%ADD13C,0.150000*%
%ADD14C,0.120000*%
%ADD15C,0.127000*%
%ADD16O,3.500000X3.500000*%
%ADD17R,1.700000X1.700000*%
%ADD18O,1.700000X1.700000*%
%ADD19O,2.200000X2.200000*%
%ADD20RoundRect,0.550000X0.550000X-0.550000X0.550000X0.550000X-0.550000X0.550000X-0.550000X-0.550000X0*%
%ADD21RoundRect,0.550000X-0.550000X0.550000X-0.550000X-0.550000X0.550000X-0.550000X0.550000X0.550000X0*%
%ADD22RoundRect,0.249999X0.790001X1.550001X-0.790001X1.550001X-0.790001X-1.550001X0.790001X-1.550001X0*%
%ADD23O,2.080000X3.600000*%
%ADD24O,1.600000X1.600000*%
%ADD25C,1.600000*%
%ADD26R,2.000000X1.905000*%
%ADD27O,2.000000X1.905000*%
%ADD28C,3.600000*%
%ADD29C,5.600000*%
%ADD30R,1.600000X1.600000*%
%ADD31RoundRect,0.425000X0.425000X-0.425000X0.425000X0.425000X-0.425000X0.425000X-0.425000X-0.425000X0*%
%ADD32R,1.560000X1.560000*%
%ADD33C,1.560000*%
%ADD34R,1.350000X1.350000*%
%ADD35C,1.350000*%
G04 APERTURE END LIST*
D10*
X153379523Y-71643809D02*
X153474761Y-71453333D01*
X153474761Y-71453333D02*
X153474761Y-71167619D01*
X153474761Y-71167619D02*
X153379523Y-70881904D01*
X153379523Y-70881904D02*
X153189047Y-70691428D01*
X153189047Y-70691428D02*
X152998571Y-70596190D01*
X152998571Y-70596190D02*
X152617619Y-70500952D01*
X152617619Y-70500952D02*
X152331904Y-70500952D01*
X152331904Y-70500952D02*
X151950952Y-70596190D01*
X151950952Y-70596190D02*
X151760476Y-70691428D01*
X151760476Y-70691428D02*
X151570000Y-70881904D01*
X151570000Y-70881904D02*
X151474761Y-71167619D01*
X151474761Y-71167619D02*
X151474761Y-71358095D01*
X151474761Y-71358095D02*
X151570000Y-71643809D01*
X151570000Y-71643809D02*
X151665238Y-71739047D01*
X151665238Y-71739047D02*
X152331904Y-71739047D01*
X152331904Y-71739047D02*
X152331904Y-71358095D01*
X148394761Y-70453333D02*
X146394761Y-71119999D01*
X146394761Y-71119999D02*
X148394761Y-71786666D01*
D11*
X163566666Y-70326190D02*
X163566666Y-71850000D01*
X161026666Y-70326190D02*
X161026666Y-71850000D01*
X160264761Y-71088095D02*
X161788571Y-71088095D01*
D12*
X160059999Y-76567380D02*
X160012380Y-76615000D01*
X160012380Y-76615000D02*
X159869523Y-76662619D01*
X159869523Y-76662619D02*
X159774285Y-76662619D01*
X159774285Y-76662619D02*
X159631428Y-76615000D01*
X159631428Y-76615000D02*
X159536190Y-76519761D01*
X159536190Y-76519761D02*
X159488571Y-76424523D01*
X159488571Y-76424523D02*
X159440952Y-76234047D01*
X159440952Y-76234047D02*
X159440952Y-76091190D01*
X159440952Y-76091190D02*
X159488571Y-75900714D01*
X159488571Y-75900714D02*
X159536190Y-75805476D01*
X159536190Y-75805476D02*
X159631428Y-75710238D01*
X159631428Y-75710238D02*
X159774285Y-75662619D01*
X159774285Y-75662619D02*
X159869523Y-75662619D01*
X159869523Y-75662619D02*
X160012380Y-75710238D01*
X160012380Y-75710238D02*
X160059999Y-75757857D01*
X160488571Y-76662619D02*
X160488571Y-75662619D01*
X160917142Y-76662619D02*
X160917142Y-76138809D01*
X160917142Y-76138809D02*
X160869523Y-76043571D01*
X160869523Y-76043571D02*
X160774285Y-75995952D01*
X160774285Y-75995952D02*
X160631428Y-75995952D01*
X160631428Y-75995952D02*
X160536190Y-76043571D01*
X160536190Y-76043571D02*
X160488571Y-76091190D01*
X161821904Y-76662619D02*
X161821904Y-76138809D01*
X161821904Y-76138809D02*
X161774285Y-76043571D01*
X161774285Y-76043571D02*
X161679047Y-75995952D01*
X161679047Y-75995952D02*
X161488571Y-75995952D01*
X161488571Y-75995952D02*
X161393333Y-76043571D01*
X161821904Y-76615000D02*
X161726666Y-76662619D01*
X161726666Y-76662619D02*
X161488571Y-76662619D01*
X161488571Y-76662619D02*
X161393333Y-76615000D01*
X161393333Y-76615000D02*
X161345714Y-76519761D01*
X161345714Y-76519761D02*
X161345714Y-76424523D01*
X161345714Y-76424523D02*
X161393333Y-76329285D01*
X161393333Y-76329285D02*
X161488571Y-76281666D01*
X161488571Y-76281666D02*
X161726666Y-76281666D01*
X161726666Y-76281666D02*
X161821904Y-76234047D01*
X162298095Y-76662619D02*
X162298095Y-75995952D01*
X162298095Y-76186428D02*
X162345714Y-76091190D01*
X162345714Y-76091190D02*
X162393333Y-76043571D01*
X162393333Y-76043571D02*
X162488571Y-75995952D01*
X162488571Y-75995952D02*
X162583809Y-75995952D01*
X163345714Y-75995952D02*
X163345714Y-76805476D01*
X163345714Y-76805476D02*
X163298095Y-76900714D01*
X163298095Y-76900714D02*
X163250476Y-76948333D01*
X163250476Y-76948333D02*
X163155238Y-76995952D01*
X163155238Y-76995952D02*
X163012381Y-76995952D01*
X163012381Y-76995952D02*
X162917143Y-76948333D01*
X163345714Y-76615000D02*
X163250476Y-76662619D01*
X163250476Y-76662619D02*
X163060000Y-76662619D01*
X163060000Y-76662619D02*
X162964762Y-76615000D01*
X162964762Y-76615000D02*
X162917143Y-76567380D01*
X162917143Y-76567380D02*
X162869524Y-76472142D01*
X162869524Y-76472142D02*
X162869524Y-76186428D01*
X162869524Y-76186428D02*
X162917143Y-76091190D01*
X162917143Y-76091190D02*
X162964762Y-76043571D01*
X162964762Y-76043571D02*
X163060000Y-75995952D01*
X163060000Y-75995952D02*
X163250476Y-75995952D01*
X163250476Y-75995952D02*
X163345714Y-76043571D01*
X163821905Y-76662619D02*
X163821905Y-75995952D01*
X163821905Y-75662619D02*
X163774286Y-75710238D01*
X163774286Y-75710238D02*
X163821905Y-75757857D01*
X163821905Y-75757857D02*
X163869524Y-75710238D01*
X163869524Y-75710238D02*
X163821905Y-75662619D01*
X163821905Y-75662619D02*
X163821905Y-75757857D01*
X164298095Y-75995952D02*
X164298095Y-76662619D01*
X164298095Y-76091190D02*
X164345714Y-76043571D01*
X164345714Y-76043571D02*
X164440952Y-75995952D01*
X164440952Y-75995952D02*
X164583809Y-75995952D01*
X164583809Y-75995952D02*
X164679047Y-76043571D01*
X164679047Y-76043571D02*
X164726666Y-76138809D01*
X164726666Y-76138809D02*
X164726666Y-76662619D01*
X165631428Y-75995952D02*
X165631428Y-76805476D01*
X165631428Y-76805476D02*
X165583809Y-76900714D01*
X165583809Y-76900714D02*
X165536190Y-76948333D01*
X165536190Y-76948333D02*
X165440952Y-76995952D01*
X165440952Y-76995952D02*
X165298095Y-76995952D01*
X165298095Y-76995952D02*
X165202857Y-76948333D01*
X165631428Y-76615000D02*
X165536190Y-76662619D01*
X165536190Y-76662619D02*
X165345714Y-76662619D01*
X165345714Y-76662619D02*
X165250476Y-76615000D01*
X165250476Y-76615000D02*
X165202857Y-76567380D01*
X165202857Y-76567380D02*
X165155238Y-76472142D01*
X165155238Y-76472142D02*
X165155238Y-76186428D01*
X165155238Y-76186428D02*
X165202857Y-76091190D01*
X165202857Y-76091190D02*
X165250476Y-76043571D01*
X165250476Y-76043571D02*
X165345714Y-75995952D01*
X165345714Y-75995952D02*
X165536190Y-75995952D01*
X165536190Y-75995952D02*
X165631428Y-76043571D01*
D13*
X133286667Y-88672500D02*
X133429524Y-88720119D01*
X133429524Y-88720119D02*
X133667619Y-88720119D01*
X133667619Y-88720119D02*
X133762857Y-88672500D01*
X133762857Y-88672500D02*
X133810476Y-88624880D01*
X133810476Y-88624880D02*
X133858095Y-88529642D01*
X133858095Y-88529642D02*
X133858095Y-88434404D01*
X133858095Y-88434404D02*
X133810476Y-88339166D01*
X133810476Y-88339166D02*
X133762857Y-88291547D01*
X133762857Y-88291547D02*
X133667619Y-88243928D01*
X133667619Y-88243928D02*
X133477143Y-88196309D01*
X133477143Y-88196309D02*
X133381905Y-88148690D01*
X133381905Y-88148690D02*
X133334286Y-88101071D01*
X133334286Y-88101071D02*
X133286667Y-88005833D01*
X133286667Y-88005833D02*
X133286667Y-87910595D01*
X133286667Y-87910595D02*
X133334286Y-87815357D01*
X133334286Y-87815357D02*
X133381905Y-87767738D01*
X133381905Y-87767738D02*
X133477143Y-87720119D01*
X133477143Y-87720119D02*
X133715238Y-87720119D01*
X133715238Y-87720119D02*
X133858095Y-87767738D01*
X134191429Y-87720119D02*
X134429524Y-88720119D01*
X134429524Y-88720119D02*
X134620000Y-88005833D01*
X134620000Y-88005833D02*
X134810476Y-88720119D01*
X134810476Y-88720119D02*
X135048572Y-87720119D01*
X135953333Y-88720119D02*
X135381905Y-88720119D01*
X135667619Y-88720119D02*
X135667619Y-87720119D01*
X135667619Y-87720119D02*
X135572381Y-87862976D01*
X135572381Y-87862976D02*
X135477143Y-87958214D01*
X135477143Y-87958214D02*
X135381905Y-88005833D01*
X104772619Y-104306666D02*
X104296428Y-104639999D01*
X104772619Y-104878094D02*
X103772619Y-104878094D01*
X103772619Y-104878094D02*
X103772619Y-104497142D01*
X103772619Y-104497142D02*
X103820238Y-104401904D01*
X103820238Y-104401904D02*
X103867857Y-104354285D01*
X103867857Y-104354285D02*
X103963095Y-104306666D01*
X103963095Y-104306666D02*
X104105952Y-104306666D01*
X104105952Y-104306666D02*
X104201190Y-104354285D01*
X104201190Y-104354285D02*
X104248809Y-104401904D01*
X104248809Y-104401904D02*
X104296428Y-104497142D01*
X104296428Y-104497142D02*
X104296428Y-104878094D01*
X103867857Y-103925713D02*
X103820238Y-103878094D01*
X103820238Y-103878094D02*
X103772619Y-103782856D01*
X103772619Y-103782856D02*
X103772619Y-103544761D01*
X103772619Y-103544761D02*
X103820238Y-103449523D01*
X103820238Y-103449523D02*
X103867857Y-103401904D01*
X103867857Y-103401904D02*
X103963095Y-103354285D01*
X103963095Y-103354285D02*
X104058333Y-103354285D01*
X104058333Y-103354285D02*
X104201190Y-103401904D01*
X104201190Y-103401904D02*
X104772619Y-103973332D01*
X104772619Y-103973332D02*
X104772619Y-103354285D01*
X111593333Y-112392619D02*
X111260000Y-111916428D01*
X111021905Y-112392619D02*
X111021905Y-111392619D01*
X111021905Y-111392619D02*
X111402857Y-111392619D01*
X111402857Y-111392619D02*
X111498095Y-111440238D01*
X111498095Y-111440238D02*
X111545714Y-111487857D01*
X111545714Y-111487857D02*
X111593333Y-111583095D01*
X111593333Y-111583095D02*
X111593333Y-111725952D01*
X111593333Y-111725952D02*
X111545714Y-111821190D01*
X111545714Y-111821190D02*
X111498095Y-111868809D01*
X111498095Y-111868809D02*
X111402857Y-111916428D01*
X111402857Y-111916428D02*
X111021905Y-111916428D01*
X112545714Y-112392619D02*
X111974286Y-112392619D01*
X112260000Y-112392619D02*
X112260000Y-111392619D01*
X112260000Y-111392619D02*
X112164762Y-111535476D01*
X112164762Y-111535476D02*
X112069524Y-111630714D01*
X112069524Y-111630714D02*
X111974286Y-111678333D01*
X193692619Y-76961904D02*
X194502142Y-76961904D01*
X194502142Y-76961904D02*
X194597380Y-76914285D01*
X194597380Y-76914285D02*
X194645000Y-76866666D01*
X194645000Y-76866666D02*
X194692619Y-76771428D01*
X194692619Y-76771428D02*
X194692619Y-76580952D01*
X194692619Y-76580952D02*
X194645000Y-76485714D01*
X194645000Y-76485714D02*
X194597380Y-76438095D01*
X194597380Y-76438095D02*
X194502142Y-76390476D01*
X194502142Y-76390476D02*
X193692619Y-76390476D01*
X194121190Y-75771428D02*
X194073571Y-75866666D01*
X194073571Y-75866666D02*
X194025952Y-75914285D01*
X194025952Y-75914285D02*
X193930714Y-75961904D01*
X193930714Y-75961904D02*
X193883095Y-75961904D01*
X193883095Y-75961904D02*
X193787857Y-75914285D01*
X193787857Y-75914285D02*
X193740238Y-75866666D01*
X193740238Y-75866666D02*
X193692619Y-75771428D01*
X193692619Y-75771428D02*
X193692619Y-75580952D01*
X193692619Y-75580952D02*
X193740238Y-75485714D01*
X193740238Y-75485714D02*
X193787857Y-75438095D01*
X193787857Y-75438095D02*
X193883095Y-75390476D01*
X193883095Y-75390476D02*
X193930714Y-75390476D01*
X193930714Y-75390476D02*
X194025952Y-75438095D01*
X194025952Y-75438095D02*
X194073571Y-75485714D01*
X194073571Y-75485714D02*
X194121190Y-75580952D01*
X194121190Y-75580952D02*
X194121190Y-75771428D01*
X194121190Y-75771428D02*
X194168809Y-75866666D01*
X194168809Y-75866666D02*
X194216428Y-75914285D01*
X194216428Y-75914285D02*
X194311666Y-75961904D01*
X194311666Y-75961904D02*
X194502142Y-75961904D01*
X194502142Y-75961904D02*
X194597380Y-75914285D01*
X194597380Y-75914285D02*
X194645000Y-75866666D01*
X194645000Y-75866666D02*
X194692619Y-75771428D01*
X194692619Y-75771428D02*
X194692619Y-75580952D01*
X194692619Y-75580952D02*
X194645000Y-75485714D01*
X194645000Y-75485714D02*
X194597380Y-75438095D01*
X194597380Y-75438095D02*
X194502142Y-75390476D01*
X194502142Y-75390476D02*
X194311666Y-75390476D01*
X194311666Y-75390476D02*
X194216428Y-75438095D01*
X194216428Y-75438095D02*
X194168809Y-75485714D01*
X194168809Y-75485714D02*
X194121190Y-75580952D01*
X111447380Y-82736666D02*
X111495000Y-82784285D01*
X111495000Y-82784285D02*
X111542619Y-82927142D01*
X111542619Y-82927142D02*
X111542619Y-83022380D01*
X111542619Y-83022380D02*
X111495000Y-83165237D01*
X111495000Y-83165237D02*
X111399761Y-83260475D01*
X111399761Y-83260475D02*
X111304523Y-83308094D01*
X111304523Y-83308094D02*
X111114047Y-83355713D01*
X111114047Y-83355713D02*
X110971190Y-83355713D01*
X110971190Y-83355713D02*
X110780714Y-83308094D01*
X110780714Y-83308094D02*
X110685476Y-83260475D01*
X110685476Y-83260475D02*
X110590238Y-83165237D01*
X110590238Y-83165237D02*
X110542619Y-83022380D01*
X110542619Y-83022380D02*
X110542619Y-82927142D01*
X110542619Y-82927142D02*
X110590238Y-82784285D01*
X110590238Y-82784285D02*
X110637857Y-82736666D01*
X110875952Y-81879523D02*
X111542619Y-81879523D01*
X110495000Y-82117618D02*
X111209285Y-82355713D01*
X111209285Y-82355713D02*
X111209285Y-81736666D01*
D12*
X138715119Y-125650475D02*
X139715119Y-125317142D01*
X139715119Y-125317142D02*
X138715119Y-124983809D01*
X139667500Y-124221904D02*
X139715119Y-124317142D01*
X139715119Y-124317142D02*
X139715119Y-124507618D01*
X139715119Y-124507618D02*
X139667500Y-124602856D01*
X139667500Y-124602856D02*
X139619880Y-124650475D01*
X139619880Y-124650475D02*
X139524642Y-124698094D01*
X139524642Y-124698094D02*
X139238928Y-124698094D01*
X139238928Y-124698094D02*
X139143690Y-124650475D01*
X139143690Y-124650475D02*
X139096071Y-124602856D01*
X139096071Y-124602856D02*
X139048452Y-124507618D01*
X139048452Y-124507618D02*
X139048452Y-124317142D01*
X139048452Y-124317142D02*
X139096071Y-124221904D01*
X139667500Y-123364761D02*
X139715119Y-123459999D01*
X139715119Y-123459999D02*
X139715119Y-123650475D01*
X139715119Y-123650475D02*
X139667500Y-123745713D01*
X139667500Y-123745713D02*
X139619880Y-123793332D01*
X139619880Y-123793332D02*
X139524642Y-123840951D01*
X139524642Y-123840951D02*
X139238928Y-123840951D01*
X139238928Y-123840951D02*
X139143690Y-123793332D01*
X139143690Y-123793332D02*
X139096071Y-123745713D01*
X139096071Y-123745713D02*
X139048452Y-123650475D01*
X139048452Y-123650475D02*
X139048452Y-123459999D01*
X139048452Y-123459999D02*
X139096071Y-123364761D01*
X134635119Y-125269523D02*
X133635119Y-125269523D01*
X133635119Y-125269523D02*
X134349404Y-124936190D01*
X134349404Y-124936190D02*
X133635119Y-124602857D01*
X133635119Y-124602857D02*
X134635119Y-124602857D01*
X134635119Y-123602857D02*
X134635119Y-124174285D01*
X134635119Y-123888571D02*
X133635119Y-123888571D01*
X133635119Y-123888571D02*
X133777976Y-123983809D01*
X133777976Y-123983809D02*
X133873214Y-124079047D01*
X133873214Y-124079047D02*
X133920833Y-124174285D01*
X146382738Y-125102857D02*
X146335119Y-125198095D01*
X146335119Y-125198095D02*
X146335119Y-125340952D01*
X146335119Y-125340952D02*
X146382738Y-125483809D01*
X146382738Y-125483809D02*
X146477976Y-125579047D01*
X146477976Y-125579047D02*
X146573214Y-125626666D01*
X146573214Y-125626666D02*
X146763690Y-125674285D01*
X146763690Y-125674285D02*
X146906547Y-125674285D01*
X146906547Y-125674285D02*
X147097023Y-125626666D01*
X147097023Y-125626666D02*
X147192261Y-125579047D01*
X147192261Y-125579047D02*
X147287500Y-125483809D01*
X147287500Y-125483809D02*
X147335119Y-125340952D01*
X147335119Y-125340952D02*
X147335119Y-125245714D01*
X147335119Y-125245714D02*
X147287500Y-125102857D01*
X147287500Y-125102857D02*
X147239880Y-125055238D01*
X147239880Y-125055238D02*
X146906547Y-125055238D01*
X146906547Y-125055238D02*
X146906547Y-125245714D01*
X146668452Y-124626666D02*
X147335119Y-124626666D01*
X146763690Y-124626666D02*
X146716071Y-124579047D01*
X146716071Y-124579047D02*
X146668452Y-124483809D01*
X146668452Y-124483809D02*
X146668452Y-124340952D01*
X146668452Y-124340952D02*
X146716071Y-124245714D01*
X146716071Y-124245714D02*
X146811309Y-124198095D01*
X146811309Y-124198095D02*
X147335119Y-124198095D01*
X147335119Y-123293333D02*
X146335119Y-123293333D01*
X147287500Y-123293333D02*
X147335119Y-123388571D01*
X147335119Y-123388571D02*
X147335119Y-123579047D01*
X147335119Y-123579047D02*
X147287500Y-123674285D01*
X147287500Y-123674285D02*
X147239880Y-123721904D01*
X147239880Y-123721904D02*
X147144642Y-123769523D01*
X147144642Y-123769523D02*
X146858928Y-123769523D01*
X146858928Y-123769523D02*
X146763690Y-123721904D01*
X146763690Y-123721904D02*
X146716071Y-123674285D01*
X146716071Y-123674285D02*
X146668452Y-123579047D01*
X146668452Y-123579047D02*
X146668452Y-123388571D01*
X146668452Y-123388571D02*
X146716071Y-123293333D01*
X137175119Y-125269523D02*
X136175119Y-125269523D01*
X136175119Y-125269523D02*
X136889404Y-124936190D01*
X136889404Y-124936190D02*
X136175119Y-124602857D01*
X136175119Y-124602857D02*
X137175119Y-124602857D01*
X136270357Y-124174285D02*
X136222738Y-124126666D01*
X136222738Y-124126666D02*
X136175119Y-124031428D01*
X136175119Y-124031428D02*
X136175119Y-123793333D01*
X136175119Y-123793333D02*
X136222738Y-123698095D01*
X136222738Y-123698095D02*
X136270357Y-123650476D01*
X136270357Y-123650476D02*
X136365595Y-123602857D01*
X136365595Y-123602857D02*
X136460833Y-123602857D01*
X136460833Y-123602857D02*
X136603690Y-123650476D01*
X136603690Y-123650476D02*
X137175119Y-124221904D01*
X137175119Y-124221904D02*
X137175119Y-123602857D01*
X141731309Y-125602856D02*
X141731309Y-125269523D01*
X142255119Y-125126666D02*
X142255119Y-125602856D01*
X142255119Y-125602856D02*
X141255119Y-125602856D01*
X141255119Y-125602856D02*
X141255119Y-125126666D01*
X141588452Y-124698094D02*
X142255119Y-124698094D01*
X141683690Y-124698094D02*
X141636071Y-124650475D01*
X141636071Y-124650475D02*
X141588452Y-124555237D01*
X141588452Y-124555237D02*
X141588452Y-124412380D01*
X141588452Y-124412380D02*
X141636071Y-124317142D01*
X141636071Y-124317142D02*
X141731309Y-124269523D01*
X141731309Y-124269523D02*
X142255119Y-124269523D01*
X142255119Y-123269523D02*
X142255119Y-123840951D01*
X142255119Y-123555237D02*
X141255119Y-123555237D01*
X141255119Y-123555237D02*
X141397976Y-123650475D01*
X141397976Y-123650475D02*
X141493214Y-123745713D01*
X141493214Y-123745713D02*
X141540833Y-123840951D01*
X144271309Y-125602856D02*
X144271309Y-125269523D01*
X144795119Y-125126666D02*
X144795119Y-125602856D01*
X144795119Y-125602856D02*
X143795119Y-125602856D01*
X143795119Y-125602856D02*
X143795119Y-125126666D01*
X144128452Y-124698094D02*
X144795119Y-124698094D01*
X144223690Y-124698094D02*
X144176071Y-124650475D01*
X144176071Y-124650475D02*
X144128452Y-124555237D01*
X144128452Y-124555237D02*
X144128452Y-124412380D01*
X144128452Y-124412380D02*
X144176071Y-124317142D01*
X144176071Y-124317142D02*
X144271309Y-124269523D01*
X144271309Y-124269523D02*
X144795119Y-124269523D01*
X143890357Y-123840951D02*
X143842738Y-123793332D01*
X143842738Y-123793332D02*
X143795119Y-123698094D01*
X143795119Y-123698094D02*
X143795119Y-123459999D01*
X143795119Y-123459999D02*
X143842738Y-123364761D01*
X143842738Y-123364761D02*
X143890357Y-123317142D01*
X143890357Y-123317142D02*
X143985595Y-123269523D01*
X143985595Y-123269523D02*
X144080833Y-123269523D01*
X144080833Y-123269523D02*
X144223690Y-123317142D01*
X144223690Y-123317142D02*
X144795119Y-123888570D01*
X144795119Y-123888570D02*
X144795119Y-123269523D01*
D13*
X126833333Y-112127380D02*
X126785714Y-112175000D01*
X126785714Y-112175000D02*
X126642857Y-112222619D01*
X126642857Y-112222619D02*
X126547619Y-112222619D01*
X126547619Y-112222619D02*
X126404762Y-112175000D01*
X126404762Y-112175000D02*
X126309524Y-112079761D01*
X126309524Y-112079761D02*
X126261905Y-111984523D01*
X126261905Y-111984523D02*
X126214286Y-111794047D01*
X126214286Y-111794047D02*
X126214286Y-111651190D01*
X126214286Y-111651190D02*
X126261905Y-111460714D01*
X126261905Y-111460714D02*
X126309524Y-111365476D01*
X126309524Y-111365476D02*
X126404762Y-111270238D01*
X126404762Y-111270238D02*
X126547619Y-111222619D01*
X126547619Y-111222619D02*
X126642857Y-111222619D01*
X126642857Y-111222619D02*
X126785714Y-111270238D01*
X126785714Y-111270238D02*
X126833333Y-111317857D01*
X127785714Y-112222619D02*
X127214286Y-112222619D01*
X127500000Y-112222619D02*
X127500000Y-111222619D01*
X127500000Y-111222619D02*
X127404762Y-111365476D01*
X127404762Y-111365476D02*
X127309524Y-111460714D01*
X127309524Y-111460714D02*
X127214286Y-111508333D01*
X136953333Y-112127380D02*
X136905714Y-112175000D01*
X136905714Y-112175000D02*
X136762857Y-112222619D01*
X136762857Y-112222619D02*
X136667619Y-112222619D01*
X136667619Y-112222619D02*
X136524762Y-112175000D01*
X136524762Y-112175000D02*
X136429524Y-112079761D01*
X136429524Y-112079761D02*
X136381905Y-111984523D01*
X136381905Y-111984523D02*
X136334286Y-111794047D01*
X136334286Y-111794047D02*
X136334286Y-111651190D01*
X136334286Y-111651190D02*
X136381905Y-111460714D01*
X136381905Y-111460714D02*
X136429524Y-111365476D01*
X136429524Y-111365476D02*
X136524762Y-111270238D01*
X136524762Y-111270238D02*
X136667619Y-111222619D01*
X136667619Y-111222619D02*
X136762857Y-111222619D01*
X136762857Y-111222619D02*
X136905714Y-111270238D01*
X136905714Y-111270238D02*
X136953333Y-111317857D01*
X137334286Y-111317857D02*
X137381905Y-111270238D01*
X137381905Y-111270238D02*
X137477143Y-111222619D01*
X137477143Y-111222619D02*
X137715238Y-111222619D01*
X137715238Y-111222619D02*
X137810476Y-111270238D01*
X137810476Y-111270238D02*
X137858095Y-111317857D01*
X137858095Y-111317857D02*
X137905714Y-111413095D01*
X137905714Y-111413095D02*
X137905714Y-111508333D01*
X137905714Y-111508333D02*
X137858095Y-111651190D01*
X137858095Y-111651190D02*
X137286667Y-112222619D01*
X137286667Y-112222619D02*
X137905714Y-112222619D01*
D12*
X118395119Y-125650475D02*
X119395119Y-125317142D01*
X119395119Y-125317142D02*
X118395119Y-124983809D01*
X119347500Y-124221904D02*
X119395119Y-124317142D01*
X119395119Y-124317142D02*
X119395119Y-124507618D01*
X119395119Y-124507618D02*
X119347500Y-124602856D01*
X119347500Y-124602856D02*
X119299880Y-124650475D01*
X119299880Y-124650475D02*
X119204642Y-124698094D01*
X119204642Y-124698094D02*
X118918928Y-124698094D01*
X118918928Y-124698094D02*
X118823690Y-124650475D01*
X118823690Y-124650475D02*
X118776071Y-124602856D01*
X118776071Y-124602856D02*
X118728452Y-124507618D01*
X118728452Y-124507618D02*
X118728452Y-124317142D01*
X118728452Y-124317142D02*
X118776071Y-124221904D01*
X119347500Y-123364761D02*
X119395119Y-123459999D01*
X119395119Y-123459999D02*
X119395119Y-123650475D01*
X119395119Y-123650475D02*
X119347500Y-123745713D01*
X119347500Y-123745713D02*
X119299880Y-123793332D01*
X119299880Y-123793332D02*
X119204642Y-123840951D01*
X119204642Y-123840951D02*
X118918928Y-123840951D01*
X118918928Y-123840951D02*
X118823690Y-123793332D01*
X118823690Y-123793332D02*
X118776071Y-123745713D01*
X118776071Y-123745713D02*
X118728452Y-123650475D01*
X118728452Y-123650475D02*
X118728452Y-123459999D01*
X118728452Y-123459999D02*
X118776071Y-123364761D01*
X126062738Y-125102857D02*
X126015119Y-125198095D01*
X126015119Y-125198095D02*
X126015119Y-125340952D01*
X126015119Y-125340952D02*
X126062738Y-125483809D01*
X126062738Y-125483809D02*
X126157976Y-125579047D01*
X126157976Y-125579047D02*
X126253214Y-125626666D01*
X126253214Y-125626666D02*
X126443690Y-125674285D01*
X126443690Y-125674285D02*
X126586547Y-125674285D01*
X126586547Y-125674285D02*
X126777023Y-125626666D01*
X126777023Y-125626666D02*
X126872261Y-125579047D01*
X126872261Y-125579047D02*
X126967500Y-125483809D01*
X126967500Y-125483809D02*
X127015119Y-125340952D01*
X127015119Y-125340952D02*
X127015119Y-125245714D01*
X127015119Y-125245714D02*
X126967500Y-125102857D01*
X126967500Y-125102857D02*
X126919880Y-125055238D01*
X126919880Y-125055238D02*
X126586547Y-125055238D01*
X126586547Y-125055238D02*
X126586547Y-125245714D01*
X126348452Y-124626666D02*
X127015119Y-124626666D01*
X126443690Y-124626666D02*
X126396071Y-124579047D01*
X126396071Y-124579047D02*
X126348452Y-124483809D01*
X126348452Y-124483809D02*
X126348452Y-124340952D01*
X126348452Y-124340952D02*
X126396071Y-124245714D01*
X126396071Y-124245714D02*
X126491309Y-124198095D01*
X126491309Y-124198095D02*
X127015119Y-124198095D01*
X127015119Y-123293333D02*
X126015119Y-123293333D01*
X126967500Y-123293333D02*
X127015119Y-123388571D01*
X127015119Y-123388571D02*
X127015119Y-123579047D01*
X127015119Y-123579047D02*
X126967500Y-123674285D01*
X126967500Y-123674285D02*
X126919880Y-123721904D01*
X126919880Y-123721904D02*
X126824642Y-123769523D01*
X126824642Y-123769523D02*
X126538928Y-123769523D01*
X126538928Y-123769523D02*
X126443690Y-123721904D01*
X126443690Y-123721904D02*
X126396071Y-123674285D01*
X126396071Y-123674285D02*
X126348452Y-123579047D01*
X126348452Y-123579047D02*
X126348452Y-123388571D01*
X126348452Y-123388571D02*
X126396071Y-123293333D01*
X121411309Y-125602856D02*
X121411309Y-125269523D01*
X121935119Y-125126666D02*
X121935119Y-125602856D01*
X121935119Y-125602856D02*
X120935119Y-125602856D01*
X120935119Y-125602856D02*
X120935119Y-125126666D01*
X121268452Y-124698094D02*
X121935119Y-124698094D01*
X121363690Y-124698094D02*
X121316071Y-124650475D01*
X121316071Y-124650475D02*
X121268452Y-124555237D01*
X121268452Y-124555237D02*
X121268452Y-124412380D01*
X121268452Y-124412380D02*
X121316071Y-124317142D01*
X121316071Y-124317142D02*
X121411309Y-124269523D01*
X121411309Y-124269523D02*
X121935119Y-124269523D01*
X121935119Y-123269523D02*
X121935119Y-123840951D01*
X121935119Y-123555237D02*
X120935119Y-123555237D01*
X120935119Y-123555237D02*
X121077976Y-123650475D01*
X121077976Y-123650475D02*
X121173214Y-123745713D01*
X121173214Y-123745713D02*
X121220833Y-123840951D01*
X123951309Y-125602856D02*
X123951309Y-125269523D01*
X124475119Y-125126666D02*
X124475119Y-125602856D01*
X124475119Y-125602856D02*
X123475119Y-125602856D01*
X123475119Y-125602856D02*
X123475119Y-125126666D01*
X123808452Y-124698094D02*
X124475119Y-124698094D01*
X123903690Y-124698094D02*
X123856071Y-124650475D01*
X123856071Y-124650475D02*
X123808452Y-124555237D01*
X123808452Y-124555237D02*
X123808452Y-124412380D01*
X123808452Y-124412380D02*
X123856071Y-124317142D01*
X123856071Y-124317142D02*
X123951309Y-124269523D01*
X123951309Y-124269523D02*
X124475119Y-124269523D01*
X123570357Y-123840951D02*
X123522738Y-123793332D01*
X123522738Y-123793332D02*
X123475119Y-123698094D01*
X123475119Y-123698094D02*
X123475119Y-123459999D01*
X123475119Y-123459999D02*
X123522738Y-123364761D01*
X123522738Y-123364761D02*
X123570357Y-123317142D01*
X123570357Y-123317142D02*
X123665595Y-123269523D01*
X123665595Y-123269523D02*
X123760833Y-123269523D01*
X123760833Y-123269523D02*
X123903690Y-123317142D01*
X123903690Y-123317142D02*
X124475119Y-123888570D01*
X124475119Y-123888570D02*
X124475119Y-123269523D01*
X114315119Y-125269523D02*
X113315119Y-125269523D01*
X113315119Y-125269523D02*
X114029404Y-124936190D01*
X114029404Y-124936190D02*
X113315119Y-124602857D01*
X113315119Y-124602857D02*
X114315119Y-124602857D01*
X114315119Y-123602857D02*
X114315119Y-124174285D01*
X114315119Y-123888571D02*
X113315119Y-123888571D01*
X113315119Y-123888571D02*
X113457976Y-123983809D01*
X113457976Y-123983809D02*
X113553214Y-124079047D01*
X113553214Y-124079047D02*
X113600833Y-124174285D01*
X116855119Y-125269523D02*
X115855119Y-125269523D01*
X115855119Y-125269523D02*
X116569404Y-124936190D01*
X116569404Y-124936190D02*
X115855119Y-124602857D01*
X115855119Y-124602857D02*
X116855119Y-124602857D01*
X115950357Y-124174285D02*
X115902738Y-124126666D01*
X115902738Y-124126666D02*
X115855119Y-124031428D01*
X115855119Y-124031428D02*
X115855119Y-123793333D01*
X115855119Y-123793333D02*
X115902738Y-123698095D01*
X115902738Y-123698095D02*
X115950357Y-123650476D01*
X115950357Y-123650476D02*
X116045595Y-123602857D01*
X116045595Y-123602857D02*
X116140833Y-123602857D01*
X116140833Y-123602857D02*
X116283690Y-123650476D01*
X116283690Y-123650476D02*
X116855119Y-124221904D01*
X116855119Y-124221904D02*
X116855119Y-123602857D01*
D13*
X167102619Y-102361904D02*
X167912142Y-102361904D01*
X167912142Y-102361904D02*
X168007380Y-102314285D01*
X168007380Y-102314285D02*
X168055000Y-102266666D01*
X168055000Y-102266666D02*
X168102619Y-102171428D01*
X168102619Y-102171428D02*
X168102619Y-101980952D01*
X168102619Y-101980952D02*
X168055000Y-101885714D01*
X168055000Y-101885714D02*
X168007380Y-101838095D01*
X168007380Y-101838095D02*
X167912142Y-101790476D01*
X167912142Y-101790476D02*
X167102619Y-101790476D01*
X168102619Y-100790476D02*
X168102619Y-101361904D01*
X168102619Y-101076190D02*
X167102619Y-101076190D01*
X167102619Y-101076190D02*
X167245476Y-101171428D01*
X167245476Y-101171428D02*
X167340714Y-101266666D01*
X167340714Y-101266666D02*
X167388333Y-101361904D01*
X196042619Y-118649523D02*
X195042619Y-118649523D01*
X195042619Y-118649523D02*
X196042619Y-118078095D01*
X196042619Y-118078095D02*
X195042619Y-118078095D01*
X195947380Y-117030476D02*
X195995000Y-117078095D01*
X195995000Y-117078095D02*
X196042619Y-117220952D01*
X196042619Y-117220952D02*
X196042619Y-117316190D01*
X196042619Y-117316190D02*
X195995000Y-117459047D01*
X195995000Y-117459047D02*
X195899761Y-117554285D01*
X195899761Y-117554285D02*
X195804523Y-117601904D01*
X195804523Y-117601904D02*
X195614047Y-117649523D01*
X195614047Y-117649523D02*
X195471190Y-117649523D01*
X195471190Y-117649523D02*
X195280714Y-117601904D01*
X195280714Y-117601904D02*
X195185476Y-117554285D01*
X195185476Y-117554285D02*
X195090238Y-117459047D01*
X195090238Y-117459047D02*
X195042619Y-117316190D01*
X195042619Y-117316190D02*
X195042619Y-117220952D01*
X195042619Y-117220952D02*
X195090238Y-117078095D01*
X195090238Y-117078095D02*
X195137857Y-117030476D01*
X154450238Y-88138095D02*
X154402619Y-88233333D01*
X154402619Y-88233333D02*
X154402619Y-88376190D01*
X154402619Y-88376190D02*
X154450238Y-88519047D01*
X154450238Y-88519047D02*
X154545476Y-88614285D01*
X154545476Y-88614285D02*
X154640714Y-88661904D01*
X154640714Y-88661904D02*
X154831190Y-88709523D01*
X154831190Y-88709523D02*
X154974047Y-88709523D01*
X154974047Y-88709523D02*
X155164523Y-88661904D01*
X155164523Y-88661904D02*
X155259761Y-88614285D01*
X155259761Y-88614285D02*
X155355000Y-88519047D01*
X155355000Y-88519047D02*
X155402619Y-88376190D01*
X155402619Y-88376190D02*
X155402619Y-88280952D01*
X155402619Y-88280952D02*
X155355000Y-88138095D01*
X155355000Y-88138095D02*
X155307380Y-88090476D01*
X155307380Y-88090476D02*
X154974047Y-88090476D01*
X154974047Y-88090476D02*
X154974047Y-88280952D01*
X155402619Y-87661904D02*
X154402619Y-87661904D01*
X154402619Y-87661904D02*
X155402619Y-87090476D01*
X155402619Y-87090476D02*
X154402619Y-87090476D01*
X155402619Y-86614285D02*
X154402619Y-86614285D01*
X154402619Y-86614285D02*
X154402619Y-86376190D01*
X154402619Y-86376190D02*
X154450238Y-86233333D01*
X154450238Y-86233333D02*
X154545476Y-86138095D01*
X154545476Y-86138095D02*
X154640714Y-86090476D01*
X154640714Y-86090476D02*
X154831190Y-86042857D01*
X154831190Y-86042857D02*
X154974047Y-86042857D01*
X154974047Y-86042857D02*
X155164523Y-86090476D01*
X155164523Y-86090476D02*
X155259761Y-86138095D01*
X155259761Y-86138095D02*
X155355000Y-86233333D01*
X155355000Y-86233333D02*
X155402619Y-86376190D01*
X155402619Y-86376190D02*
X155402619Y-86614285D01*
X193502619Y-118649523D02*
X192502619Y-118649523D01*
X192502619Y-118649523D02*
X193502619Y-118078095D01*
X193502619Y-118078095D02*
X192502619Y-118078095D01*
X193407380Y-117030476D02*
X193455000Y-117078095D01*
X193455000Y-117078095D02*
X193502619Y-117220952D01*
X193502619Y-117220952D02*
X193502619Y-117316190D01*
X193502619Y-117316190D02*
X193455000Y-117459047D01*
X193455000Y-117459047D02*
X193359761Y-117554285D01*
X193359761Y-117554285D02*
X193264523Y-117601904D01*
X193264523Y-117601904D02*
X193074047Y-117649523D01*
X193074047Y-117649523D02*
X192931190Y-117649523D01*
X192931190Y-117649523D02*
X192740714Y-117601904D01*
X192740714Y-117601904D02*
X192645476Y-117554285D01*
X192645476Y-117554285D02*
X192550238Y-117459047D01*
X192550238Y-117459047D02*
X192502619Y-117316190D01*
X192502619Y-117316190D02*
X192502619Y-117220952D01*
X192502619Y-117220952D02*
X192550238Y-117078095D01*
X192550238Y-117078095D02*
X192597857Y-117030476D01*
X163022619Y-88661904D02*
X162022619Y-88661904D01*
X162022619Y-88661904D02*
X163022619Y-88090476D01*
X163022619Y-88090476D02*
X162022619Y-88090476D01*
X162927380Y-87042857D02*
X162975000Y-87090476D01*
X162975000Y-87090476D02*
X163022619Y-87233333D01*
X163022619Y-87233333D02*
X163022619Y-87328571D01*
X163022619Y-87328571D02*
X162975000Y-87471428D01*
X162975000Y-87471428D02*
X162879761Y-87566666D01*
X162879761Y-87566666D02*
X162784523Y-87614285D01*
X162784523Y-87614285D02*
X162594047Y-87661904D01*
X162594047Y-87661904D02*
X162451190Y-87661904D01*
X162451190Y-87661904D02*
X162260714Y-87614285D01*
X162260714Y-87614285D02*
X162165476Y-87566666D01*
X162165476Y-87566666D02*
X162070238Y-87471428D01*
X162070238Y-87471428D02*
X162022619Y-87328571D01*
X162022619Y-87328571D02*
X162022619Y-87233333D01*
X162022619Y-87233333D02*
X162070238Y-87090476D01*
X162070238Y-87090476D02*
X162117857Y-87042857D01*
X179850238Y-118982857D02*
X179802619Y-119078095D01*
X179802619Y-119078095D02*
X179802619Y-119220952D01*
X179802619Y-119220952D02*
X179850238Y-119363809D01*
X179850238Y-119363809D02*
X179945476Y-119459047D01*
X179945476Y-119459047D02*
X180040714Y-119506666D01*
X180040714Y-119506666D02*
X180231190Y-119554285D01*
X180231190Y-119554285D02*
X180374047Y-119554285D01*
X180374047Y-119554285D02*
X180564523Y-119506666D01*
X180564523Y-119506666D02*
X180659761Y-119459047D01*
X180659761Y-119459047D02*
X180755000Y-119363809D01*
X180755000Y-119363809D02*
X180802619Y-119220952D01*
X180802619Y-119220952D02*
X180802619Y-119125714D01*
X180802619Y-119125714D02*
X180755000Y-118982857D01*
X180755000Y-118982857D02*
X180707380Y-118935238D01*
X180707380Y-118935238D02*
X180374047Y-118935238D01*
X180374047Y-118935238D02*
X180374047Y-119125714D01*
X179897857Y-118554285D02*
X179850238Y-118506666D01*
X179850238Y-118506666D02*
X179802619Y-118411428D01*
X179802619Y-118411428D02*
X179802619Y-118173333D01*
X179802619Y-118173333D02*
X179850238Y-118078095D01*
X179850238Y-118078095D02*
X179897857Y-118030476D01*
X179897857Y-118030476D02*
X179993095Y-117982857D01*
X179993095Y-117982857D02*
X180088333Y-117982857D01*
X180088333Y-117982857D02*
X180231190Y-118030476D01*
X180231190Y-118030476D02*
X180802619Y-118601904D01*
X180802619Y-118601904D02*
X180802619Y-117982857D01*
X179802619Y-117649523D02*
X179802619Y-116982857D01*
X179802619Y-116982857D02*
X180802619Y-117411428D01*
X198582619Y-88661904D02*
X197582619Y-88661904D01*
X197582619Y-88661904D02*
X198582619Y-88090476D01*
X198582619Y-88090476D02*
X197582619Y-88090476D01*
X198487380Y-87042857D02*
X198535000Y-87090476D01*
X198535000Y-87090476D02*
X198582619Y-87233333D01*
X198582619Y-87233333D02*
X198582619Y-87328571D01*
X198582619Y-87328571D02*
X198535000Y-87471428D01*
X198535000Y-87471428D02*
X198439761Y-87566666D01*
X198439761Y-87566666D02*
X198344523Y-87614285D01*
X198344523Y-87614285D02*
X198154047Y-87661904D01*
X198154047Y-87661904D02*
X198011190Y-87661904D01*
X198011190Y-87661904D02*
X197820714Y-87614285D01*
X197820714Y-87614285D02*
X197725476Y-87566666D01*
X197725476Y-87566666D02*
X197630238Y-87471428D01*
X197630238Y-87471428D02*
X197582619Y-87328571D01*
X197582619Y-87328571D02*
X197582619Y-87233333D01*
X197582619Y-87233333D02*
X197630238Y-87090476D01*
X197630238Y-87090476D02*
X197677857Y-87042857D01*
X163022619Y-119744761D02*
X162022619Y-119744761D01*
X163117857Y-119506667D02*
X163117857Y-118744762D01*
X162022619Y-118601904D02*
X162022619Y-117982857D01*
X162022619Y-117982857D02*
X162403571Y-118316190D01*
X162403571Y-118316190D02*
X162403571Y-118173333D01*
X162403571Y-118173333D02*
X162451190Y-118078095D01*
X162451190Y-118078095D02*
X162498809Y-118030476D01*
X162498809Y-118030476D02*
X162594047Y-117982857D01*
X162594047Y-117982857D02*
X162832142Y-117982857D01*
X162832142Y-117982857D02*
X162927380Y-118030476D01*
X162927380Y-118030476D02*
X162975000Y-118078095D01*
X162975000Y-118078095D02*
X163022619Y-118173333D01*
X163022619Y-118173333D02*
X163022619Y-118459047D01*
X163022619Y-118459047D02*
X162975000Y-118554285D01*
X162975000Y-118554285D02*
X162927380Y-118601904D01*
X163022619Y-117506666D02*
X163022619Y-117316190D01*
X163022619Y-117316190D02*
X162975000Y-117220952D01*
X162975000Y-117220952D02*
X162927380Y-117173333D01*
X162927380Y-117173333D02*
X162784523Y-117078095D01*
X162784523Y-117078095D02*
X162594047Y-117030476D01*
X162594047Y-117030476D02*
X162213095Y-117030476D01*
X162213095Y-117030476D02*
X162117857Y-117078095D01*
X162117857Y-117078095D02*
X162070238Y-117125714D01*
X162070238Y-117125714D02*
X162022619Y-117220952D01*
X162022619Y-117220952D02*
X162022619Y-117411428D01*
X162022619Y-117411428D02*
X162070238Y-117506666D01*
X162070238Y-117506666D02*
X162117857Y-117554285D01*
X162117857Y-117554285D02*
X162213095Y-117601904D01*
X162213095Y-117601904D02*
X162451190Y-117601904D01*
X162451190Y-117601904D02*
X162546428Y-117554285D01*
X162546428Y-117554285D02*
X162594047Y-117506666D01*
X162594047Y-117506666D02*
X162641666Y-117411428D01*
X162641666Y-117411428D02*
X162641666Y-117220952D01*
X162641666Y-117220952D02*
X162594047Y-117125714D01*
X162594047Y-117125714D02*
X162546428Y-117078095D01*
X162546428Y-117078095D02*
X162451190Y-117030476D01*
X182390238Y-88138095D02*
X182342619Y-88233333D01*
X182342619Y-88233333D02*
X182342619Y-88376190D01*
X182342619Y-88376190D02*
X182390238Y-88519047D01*
X182390238Y-88519047D02*
X182485476Y-88614285D01*
X182485476Y-88614285D02*
X182580714Y-88661904D01*
X182580714Y-88661904D02*
X182771190Y-88709523D01*
X182771190Y-88709523D02*
X182914047Y-88709523D01*
X182914047Y-88709523D02*
X183104523Y-88661904D01*
X183104523Y-88661904D02*
X183199761Y-88614285D01*
X183199761Y-88614285D02*
X183295000Y-88519047D01*
X183295000Y-88519047D02*
X183342619Y-88376190D01*
X183342619Y-88376190D02*
X183342619Y-88280952D01*
X183342619Y-88280952D02*
X183295000Y-88138095D01*
X183295000Y-88138095D02*
X183247380Y-88090476D01*
X183247380Y-88090476D02*
X182914047Y-88090476D01*
X182914047Y-88090476D02*
X182914047Y-88280952D01*
X183342619Y-87138095D02*
X183342619Y-87709523D01*
X183342619Y-87423809D02*
X182342619Y-87423809D01*
X182342619Y-87423809D02*
X182485476Y-87519047D01*
X182485476Y-87519047D02*
X182580714Y-87614285D01*
X182580714Y-87614285D02*
X182628333Y-87709523D01*
X182342619Y-86280952D02*
X182342619Y-86471428D01*
X182342619Y-86471428D02*
X182390238Y-86566666D01*
X182390238Y-86566666D02*
X182437857Y-86614285D01*
X182437857Y-86614285D02*
X182580714Y-86709523D01*
X182580714Y-86709523D02*
X182771190Y-86757142D01*
X182771190Y-86757142D02*
X183152142Y-86757142D01*
X183152142Y-86757142D02*
X183247380Y-86709523D01*
X183247380Y-86709523D02*
X183295000Y-86661904D01*
X183295000Y-86661904D02*
X183342619Y-86566666D01*
X183342619Y-86566666D02*
X183342619Y-86376190D01*
X183342619Y-86376190D02*
X183295000Y-86280952D01*
X183295000Y-86280952D02*
X183247380Y-86233333D01*
X183247380Y-86233333D02*
X183152142Y-86185714D01*
X183152142Y-86185714D02*
X182914047Y-86185714D01*
X182914047Y-86185714D02*
X182818809Y-86233333D01*
X182818809Y-86233333D02*
X182771190Y-86280952D01*
X182771190Y-86280952D02*
X182723571Y-86376190D01*
X182723571Y-86376190D02*
X182723571Y-86566666D01*
X182723571Y-86566666D02*
X182771190Y-86661904D01*
X182771190Y-86661904D02*
X182818809Y-86709523D01*
X182818809Y-86709523D02*
X182914047Y-86757142D01*
X179850238Y-88138095D02*
X179802619Y-88233333D01*
X179802619Y-88233333D02*
X179802619Y-88376190D01*
X179802619Y-88376190D02*
X179850238Y-88519047D01*
X179850238Y-88519047D02*
X179945476Y-88614285D01*
X179945476Y-88614285D02*
X180040714Y-88661904D01*
X180040714Y-88661904D02*
X180231190Y-88709523D01*
X180231190Y-88709523D02*
X180374047Y-88709523D01*
X180374047Y-88709523D02*
X180564523Y-88661904D01*
X180564523Y-88661904D02*
X180659761Y-88614285D01*
X180659761Y-88614285D02*
X180755000Y-88519047D01*
X180755000Y-88519047D02*
X180802619Y-88376190D01*
X180802619Y-88376190D02*
X180802619Y-88280952D01*
X180802619Y-88280952D02*
X180755000Y-88138095D01*
X180755000Y-88138095D02*
X180707380Y-88090476D01*
X180707380Y-88090476D02*
X180374047Y-88090476D01*
X180374047Y-88090476D02*
X180374047Y-88280952D01*
X180802619Y-87138095D02*
X180802619Y-87709523D01*
X180802619Y-87423809D02*
X179802619Y-87423809D01*
X179802619Y-87423809D02*
X179945476Y-87519047D01*
X179945476Y-87519047D02*
X180040714Y-87614285D01*
X180040714Y-87614285D02*
X180088333Y-87709523D01*
X179802619Y-86804761D02*
X179802619Y-86138095D01*
X179802619Y-86138095D02*
X180802619Y-86566666D01*
X177310238Y-88138095D02*
X177262619Y-88233333D01*
X177262619Y-88233333D02*
X177262619Y-88376190D01*
X177262619Y-88376190D02*
X177310238Y-88519047D01*
X177310238Y-88519047D02*
X177405476Y-88614285D01*
X177405476Y-88614285D02*
X177500714Y-88661904D01*
X177500714Y-88661904D02*
X177691190Y-88709523D01*
X177691190Y-88709523D02*
X177834047Y-88709523D01*
X177834047Y-88709523D02*
X178024523Y-88661904D01*
X178024523Y-88661904D02*
X178119761Y-88614285D01*
X178119761Y-88614285D02*
X178215000Y-88519047D01*
X178215000Y-88519047D02*
X178262619Y-88376190D01*
X178262619Y-88376190D02*
X178262619Y-88280952D01*
X178262619Y-88280952D02*
X178215000Y-88138095D01*
X178215000Y-88138095D02*
X178167380Y-88090476D01*
X178167380Y-88090476D02*
X177834047Y-88090476D01*
X177834047Y-88090476D02*
X177834047Y-88280952D01*
X177262619Y-87185714D02*
X177262619Y-87661904D01*
X177262619Y-87661904D02*
X177738809Y-87709523D01*
X177738809Y-87709523D02*
X177691190Y-87661904D01*
X177691190Y-87661904D02*
X177643571Y-87566666D01*
X177643571Y-87566666D02*
X177643571Y-87328571D01*
X177643571Y-87328571D02*
X177691190Y-87233333D01*
X177691190Y-87233333D02*
X177738809Y-87185714D01*
X177738809Y-87185714D02*
X177834047Y-87138095D01*
X177834047Y-87138095D02*
X178072142Y-87138095D01*
X178072142Y-87138095D02*
X178167380Y-87185714D01*
X178167380Y-87185714D02*
X178215000Y-87233333D01*
X178215000Y-87233333D02*
X178262619Y-87328571D01*
X178262619Y-87328571D02*
X178262619Y-87566666D01*
X178262619Y-87566666D02*
X178215000Y-87661904D01*
X178215000Y-87661904D02*
X178167380Y-87709523D01*
X184930238Y-118982857D02*
X184882619Y-119078095D01*
X184882619Y-119078095D02*
X184882619Y-119220952D01*
X184882619Y-119220952D02*
X184930238Y-119363809D01*
X184930238Y-119363809D02*
X185025476Y-119459047D01*
X185025476Y-119459047D02*
X185120714Y-119506666D01*
X185120714Y-119506666D02*
X185311190Y-119554285D01*
X185311190Y-119554285D02*
X185454047Y-119554285D01*
X185454047Y-119554285D02*
X185644523Y-119506666D01*
X185644523Y-119506666D02*
X185739761Y-119459047D01*
X185739761Y-119459047D02*
X185835000Y-119363809D01*
X185835000Y-119363809D02*
X185882619Y-119220952D01*
X185882619Y-119220952D02*
X185882619Y-119125714D01*
X185882619Y-119125714D02*
X185835000Y-118982857D01*
X185835000Y-118982857D02*
X185787380Y-118935238D01*
X185787380Y-118935238D02*
X185454047Y-118935238D01*
X185454047Y-118935238D02*
X185454047Y-119125714D01*
X185882619Y-117982857D02*
X185882619Y-118554285D01*
X185882619Y-118268571D02*
X184882619Y-118268571D01*
X184882619Y-118268571D02*
X185025476Y-118363809D01*
X185025476Y-118363809D02*
X185120714Y-118459047D01*
X185120714Y-118459047D02*
X185168333Y-118554285D01*
X184977857Y-117601904D02*
X184930238Y-117554285D01*
X184930238Y-117554285D02*
X184882619Y-117459047D01*
X184882619Y-117459047D02*
X184882619Y-117220952D01*
X184882619Y-117220952D02*
X184930238Y-117125714D01*
X184930238Y-117125714D02*
X184977857Y-117078095D01*
X184977857Y-117078095D02*
X185073095Y-117030476D01*
X185073095Y-117030476D02*
X185168333Y-117030476D01*
X185168333Y-117030476D02*
X185311190Y-117078095D01*
X185311190Y-117078095D02*
X185882619Y-117649523D01*
X185882619Y-117649523D02*
X185882619Y-117030476D01*
X193502619Y-88138095D02*
X193502619Y-88709523D01*
X193502619Y-88423809D02*
X192502619Y-88423809D01*
X192502619Y-88423809D02*
X192645476Y-88519047D01*
X192645476Y-88519047D02*
X192740714Y-88614285D01*
X192740714Y-88614285D02*
X192788333Y-88709523D01*
X192502619Y-87233333D02*
X192502619Y-87709523D01*
X192502619Y-87709523D02*
X192978809Y-87757142D01*
X192978809Y-87757142D02*
X192931190Y-87709523D01*
X192931190Y-87709523D02*
X192883571Y-87614285D01*
X192883571Y-87614285D02*
X192883571Y-87376190D01*
X192883571Y-87376190D02*
X192931190Y-87280952D01*
X192931190Y-87280952D02*
X192978809Y-87233333D01*
X192978809Y-87233333D02*
X193074047Y-87185714D01*
X193074047Y-87185714D02*
X193312142Y-87185714D01*
X193312142Y-87185714D02*
X193407380Y-87233333D01*
X193407380Y-87233333D02*
X193455000Y-87280952D01*
X193455000Y-87280952D02*
X193502619Y-87376190D01*
X193502619Y-87376190D02*
X193502619Y-87614285D01*
X193502619Y-87614285D02*
X193455000Y-87709523D01*
X193455000Y-87709523D02*
X193407380Y-87757142D01*
X196042619Y-88661904D02*
X195042619Y-88661904D01*
X195042619Y-88661904D02*
X196042619Y-88090476D01*
X196042619Y-88090476D02*
X195042619Y-88090476D01*
X195947380Y-87042857D02*
X195995000Y-87090476D01*
X195995000Y-87090476D02*
X196042619Y-87233333D01*
X196042619Y-87233333D02*
X196042619Y-87328571D01*
X196042619Y-87328571D02*
X195995000Y-87471428D01*
X195995000Y-87471428D02*
X195899761Y-87566666D01*
X195899761Y-87566666D02*
X195804523Y-87614285D01*
X195804523Y-87614285D02*
X195614047Y-87661904D01*
X195614047Y-87661904D02*
X195471190Y-87661904D01*
X195471190Y-87661904D02*
X195280714Y-87614285D01*
X195280714Y-87614285D02*
X195185476Y-87566666D01*
X195185476Y-87566666D02*
X195090238Y-87471428D01*
X195090238Y-87471428D02*
X195042619Y-87328571D01*
X195042619Y-87328571D02*
X195042619Y-87233333D01*
X195042619Y-87233333D02*
X195090238Y-87090476D01*
X195090238Y-87090476D02*
X195137857Y-87042857D01*
X174770238Y-118982857D02*
X174722619Y-119078095D01*
X174722619Y-119078095D02*
X174722619Y-119220952D01*
X174722619Y-119220952D02*
X174770238Y-119363809D01*
X174770238Y-119363809D02*
X174865476Y-119459047D01*
X174865476Y-119459047D02*
X174960714Y-119506666D01*
X174960714Y-119506666D02*
X175151190Y-119554285D01*
X175151190Y-119554285D02*
X175294047Y-119554285D01*
X175294047Y-119554285D02*
X175484523Y-119506666D01*
X175484523Y-119506666D02*
X175579761Y-119459047D01*
X175579761Y-119459047D02*
X175675000Y-119363809D01*
X175675000Y-119363809D02*
X175722619Y-119220952D01*
X175722619Y-119220952D02*
X175722619Y-119125714D01*
X175722619Y-119125714D02*
X175675000Y-118982857D01*
X175675000Y-118982857D02*
X175627380Y-118935238D01*
X175627380Y-118935238D02*
X175294047Y-118935238D01*
X175294047Y-118935238D02*
X175294047Y-119125714D01*
X174817857Y-118554285D02*
X174770238Y-118506666D01*
X174770238Y-118506666D02*
X174722619Y-118411428D01*
X174722619Y-118411428D02*
X174722619Y-118173333D01*
X174722619Y-118173333D02*
X174770238Y-118078095D01*
X174770238Y-118078095D02*
X174817857Y-118030476D01*
X174817857Y-118030476D02*
X174913095Y-117982857D01*
X174913095Y-117982857D02*
X175008333Y-117982857D01*
X175008333Y-117982857D02*
X175151190Y-118030476D01*
X175151190Y-118030476D02*
X175722619Y-118601904D01*
X175722619Y-118601904D02*
X175722619Y-117982857D01*
X174722619Y-117078095D02*
X174722619Y-117554285D01*
X174722619Y-117554285D02*
X175198809Y-117601904D01*
X175198809Y-117601904D02*
X175151190Y-117554285D01*
X175151190Y-117554285D02*
X175103571Y-117459047D01*
X175103571Y-117459047D02*
X175103571Y-117220952D01*
X175103571Y-117220952D02*
X175151190Y-117125714D01*
X175151190Y-117125714D02*
X175198809Y-117078095D01*
X175198809Y-117078095D02*
X175294047Y-117030476D01*
X175294047Y-117030476D02*
X175532142Y-117030476D01*
X175532142Y-117030476D02*
X175627380Y-117078095D01*
X175627380Y-117078095D02*
X175675000Y-117125714D01*
X175675000Y-117125714D02*
X175722619Y-117220952D01*
X175722619Y-117220952D02*
X175722619Y-117459047D01*
X175722619Y-117459047D02*
X175675000Y-117554285D01*
X175675000Y-117554285D02*
X175627380Y-117601904D01*
X187470238Y-119125714D02*
X187422619Y-119220952D01*
X187422619Y-119220952D02*
X187422619Y-119363809D01*
X187422619Y-119363809D02*
X187470238Y-119506666D01*
X187470238Y-119506666D02*
X187565476Y-119601904D01*
X187565476Y-119601904D02*
X187660714Y-119649523D01*
X187660714Y-119649523D02*
X187851190Y-119697142D01*
X187851190Y-119697142D02*
X187994047Y-119697142D01*
X187994047Y-119697142D02*
X188184523Y-119649523D01*
X188184523Y-119649523D02*
X188279761Y-119601904D01*
X188279761Y-119601904D02*
X188375000Y-119506666D01*
X188375000Y-119506666D02*
X188422619Y-119363809D01*
X188422619Y-119363809D02*
X188422619Y-119268571D01*
X188422619Y-119268571D02*
X188375000Y-119125714D01*
X188375000Y-119125714D02*
X188327380Y-119078095D01*
X188327380Y-119078095D02*
X187994047Y-119078095D01*
X187994047Y-119078095D02*
X187994047Y-119268571D01*
X188422619Y-118649523D02*
X187422619Y-118649523D01*
X187422619Y-118649523D02*
X188422619Y-118078095D01*
X188422619Y-118078095D02*
X187422619Y-118078095D01*
X188422619Y-117601904D02*
X187422619Y-117601904D01*
X187422619Y-117601904D02*
X187422619Y-117363809D01*
X187422619Y-117363809D02*
X187470238Y-117220952D01*
X187470238Y-117220952D02*
X187565476Y-117125714D01*
X187565476Y-117125714D02*
X187660714Y-117078095D01*
X187660714Y-117078095D02*
X187851190Y-117030476D01*
X187851190Y-117030476D02*
X187994047Y-117030476D01*
X187994047Y-117030476D02*
X188184523Y-117078095D01*
X188184523Y-117078095D02*
X188279761Y-117125714D01*
X188279761Y-117125714D02*
X188375000Y-117220952D01*
X188375000Y-117220952D02*
X188422619Y-117363809D01*
X188422619Y-117363809D02*
X188422619Y-117601904D01*
X156990238Y-88138095D02*
X156942619Y-88233333D01*
X156942619Y-88233333D02*
X156942619Y-88376190D01*
X156942619Y-88376190D02*
X156990238Y-88519047D01*
X156990238Y-88519047D02*
X157085476Y-88614285D01*
X157085476Y-88614285D02*
X157180714Y-88661904D01*
X157180714Y-88661904D02*
X157371190Y-88709523D01*
X157371190Y-88709523D02*
X157514047Y-88709523D01*
X157514047Y-88709523D02*
X157704523Y-88661904D01*
X157704523Y-88661904D02*
X157799761Y-88614285D01*
X157799761Y-88614285D02*
X157895000Y-88519047D01*
X157895000Y-88519047D02*
X157942619Y-88376190D01*
X157942619Y-88376190D02*
X157942619Y-88280952D01*
X157942619Y-88280952D02*
X157895000Y-88138095D01*
X157895000Y-88138095D02*
X157847380Y-88090476D01*
X157847380Y-88090476D02*
X157514047Y-88090476D01*
X157514047Y-88090476D02*
X157514047Y-88280952D01*
X157037857Y-87709523D02*
X156990238Y-87661904D01*
X156990238Y-87661904D02*
X156942619Y-87566666D01*
X156942619Y-87566666D02*
X156942619Y-87328571D01*
X156942619Y-87328571D02*
X156990238Y-87233333D01*
X156990238Y-87233333D02*
X157037857Y-87185714D01*
X157037857Y-87185714D02*
X157133095Y-87138095D01*
X157133095Y-87138095D02*
X157228333Y-87138095D01*
X157228333Y-87138095D02*
X157371190Y-87185714D01*
X157371190Y-87185714D02*
X157942619Y-87757142D01*
X157942619Y-87757142D02*
X157942619Y-87138095D01*
X156942619Y-86804761D02*
X156942619Y-86185714D01*
X156942619Y-86185714D02*
X157323571Y-86519047D01*
X157323571Y-86519047D02*
X157323571Y-86376190D01*
X157323571Y-86376190D02*
X157371190Y-86280952D01*
X157371190Y-86280952D02*
X157418809Y-86233333D01*
X157418809Y-86233333D02*
X157514047Y-86185714D01*
X157514047Y-86185714D02*
X157752142Y-86185714D01*
X157752142Y-86185714D02*
X157847380Y-86233333D01*
X157847380Y-86233333D02*
X157895000Y-86280952D01*
X157895000Y-86280952D02*
X157942619Y-86376190D01*
X157942619Y-86376190D02*
X157942619Y-86661904D01*
X157942619Y-86661904D02*
X157895000Y-86757142D01*
X157895000Y-86757142D02*
X157847380Y-86804761D01*
X172230238Y-88138095D02*
X172182619Y-88233333D01*
X172182619Y-88233333D02*
X172182619Y-88376190D01*
X172182619Y-88376190D02*
X172230238Y-88519047D01*
X172230238Y-88519047D02*
X172325476Y-88614285D01*
X172325476Y-88614285D02*
X172420714Y-88661904D01*
X172420714Y-88661904D02*
X172611190Y-88709523D01*
X172611190Y-88709523D02*
X172754047Y-88709523D01*
X172754047Y-88709523D02*
X172944523Y-88661904D01*
X172944523Y-88661904D02*
X173039761Y-88614285D01*
X173039761Y-88614285D02*
X173135000Y-88519047D01*
X173135000Y-88519047D02*
X173182619Y-88376190D01*
X173182619Y-88376190D02*
X173182619Y-88280952D01*
X173182619Y-88280952D02*
X173135000Y-88138095D01*
X173135000Y-88138095D02*
X173087380Y-88090476D01*
X173087380Y-88090476D02*
X172754047Y-88090476D01*
X172754047Y-88090476D02*
X172754047Y-88280952D01*
X173182619Y-87138095D02*
X173182619Y-87709523D01*
X173182619Y-87423809D02*
X172182619Y-87423809D01*
X172182619Y-87423809D02*
X172325476Y-87519047D01*
X172325476Y-87519047D02*
X172420714Y-87614285D01*
X172420714Y-87614285D02*
X172468333Y-87709523D01*
X173182619Y-86661904D02*
X173182619Y-86471428D01*
X173182619Y-86471428D02*
X173135000Y-86376190D01*
X173135000Y-86376190D02*
X173087380Y-86328571D01*
X173087380Y-86328571D02*
X172944523Y-86233333D01*
X172944523Y-86233333D02*
X172754047Y-86185714D01*
X172754047Y-86185714D02*
X172373095Y-86185714D01*
X172373095Y-86185714D02*
X172277857Y-86233333D01*
X172277857Y-86233333D02*
X172230238Y-86280952D01*
X172230238Y-86280952D02*
X172182619Y-86376190D01*
X172182619Y-86376190D02*
X172182619Y-86566666D01*
X172182619Y-86566666D02*
X172230238Y-86661904D01*
X172230238Y-86661904D02*
X172277857Y-86709523D01*
X172277857Y-86709523D02*
X172373095Y-86757142D01*
X172373095Y-86757142D02*
X172611190Y-86757142D01*
X172611190Y-86757142D02*
X172706428Y-86709523D01*
X172706428Y-86709523D02*
X172754047Y-86661904D01*
X172754047Y-86661904D02*
X172801666Y-86566666D01*
X172801666Y-86566666D02*
X172801666Y-86376190D01*
X172801666Y-86376190D02*
X172754047Y-86280952D01*
X172754047Y-86280952D02*
X172706428Y-86233333D01*
X172706428Y-86233333D02*
X172611190Y-86185714D01*
X184930238Y-88138095D02*
X184882619Y-88233333D01*
X184882619Y-88233333D02*
X184882619Y-88376190D01*
X184882619Y-88376190D02*
X184930238Y-88519047D01*
X184930238Y-88519047D02*
X185025476Y-88614285D01*
X185025476Y-88614285D02*
X185120714Y-88661904D01*
X185120714Y-88661904D02*
X185311190Y-88709523D01*
X185311190Y-88709523D02*
X185454047Y-88709523D01*
X185454047Y-88709523D02*
X185644523Y-88661904D01*
X185644523Y-88661904D02*
X185739761Y-88614285D01*
X185739761Y-88614285D02*
X185835000Y-88519047D01*
X185835000Y-88519047D02*
X185882619Y-88376190D01*
X185882619Y-88376190D02*
X185882619Y-88280952D01*
X185882619Y-88280952D02*
X185835000Y-88138095D01*
X185835000Y-88138095D02*
X185787380Y-88090476D01*
X185787380Y-88090476D02*
X185454047Y-88090476D01*
X185454047Y-88090476D02*
X185454047Y-88280952D01*
X185215952Y-87233333D02*
X185882619Y-87233333D01*
X184835000Y-87471428D02*
X185549285Y-87709523D01*
X185549285Y-87709523D02*
X185549285Y-87090476D01*
X169690238Y-118982857D02*
X169642619Y-119078095D01*
X169642619Y-119078095D02*
X169642619Y-119220952D01*
X169642619Y-119220952D02*
X169690238Y-119363809D01*
X169690238Y-119363809D02*
X169785476Y-119459047D01*
X169785476Y-119459047D02*
X169880714Y-119506666D01*
X169880714Y-119506666D02*
X170071190Y-119554285D01*
X170071190Y-119554285D02*
X170214047Y-119554285D01*
X170214047Y-119554285D02*
X170404523Y-119506666D01*
X170404523Y-119506666D02*
X170499761Y-119459047D01*
X170499761Y-119459047D02*
X170595000Y-119363809D01*
X170595000Y-119363809D02*
X170642619Y-119220952D01*
X170642619Y-119220952D02*
X170642619Y-119125714D01*
X170642619Y-119125714D02*
X170595000Y-118982857D01*
X170595000Y-118982857D02*
X170547380Y-118935238D01*
X170547380Y-118935238D02*
X170214047Y-118935238D01*
X170214047Y-118935238D02*
X170214047Y-119125714D01*
X169642619Y-118601904D02*
X169642619Y-117982857D01*
X169642619Y-117982857D02*
X170023571Y-118316190D01*
X170023571Y-118316190D02*
X170023571Y-118173333D01*
X170023571Y-118173333D02*
X170071190Y-118078095D01*
X170071190Y-118078095D02*
X170118809Y-118030476D01*
X170118809Y-118030476D02*
X170214047Y-117982857D01*
X170214047Y-117982857D02*
X170452142Y-117982857D01*
X170452142Y-117982857D02*
X170547380Y-118030476D01*
X170547380Y-118030476D02*
X170595000Y-118078095D01*
X170595000Y-118078095D02*
X170642619Y-118173333D01*
X170642619Y-118173333D02*
X170642619Y-118459047D01*
X170642619Y-118459047D02*
X170595000Y-118554285D01*
X170595000Y-118554285D02*
X170547380Y-118601904D01*
X169737857Y-117601904D02*
X169690238Y-117554285D01*
X169690238Y-117554285D02*
X169642619Y-117459047D01*
X169642619Y-117459047D02*
X169642619Y-117220952D01*
X169642619Y-117220952D02*
X169690238Y-117125714D01*
X169690238Y-117125714D02*
X169737857Y-117078095D01*
X169737857Y-117078095D02*
X169833095Y-117030476D01*
X169833095Y-117030476D02*
X169928333Y-117030476D01*
X169928333Y-117030476D02*
X170071190Y-117078095D01*
X170071190Y-117078095D02*
X170642619Y-117649523D01*
X170642619Y-117649523D02*
X170642619Y-117030476D01*
X157942619Y-118744762D02*
X157466428Y-119078095D01*
X157942619Y-119316190D02*
X156942619Y-119316190D01*
X156942619Y-119316190D02*
X156942619Y-118935238D01*
X156942619Y-118935238D02*
X156990238Y-118840000D01*
X156990238Y-118840000D02*
X157037857Y-118792381D01*
X157037857Y-118792381D02*
X157133095Y-118744762D01*
X157133095Y-118744762D02*
X157275952Y-118744762D01*
X157275952Y-118744762D02*
X157371190Y-118792381D01*
X157371190Y-118792381D02*
X157418809Y-118840000D01*
X157418809Y-118840000D02*
X157466428Y-118935238D01*
X157466428Y-118935238D02*
X157466428Y-119316190D01*
X157895000Y-118363809D02*
X157942619Y-118220952D01*
X157942619Y-118220952D02*
X157942619Y-117982857D01*
X157942619Y-117982857D02*
X157895000Y-117887619D01*
X157895000Y-117887619D02*
X157847380Y-117840000D01*
X157847380Y-117840000D02*
X157752142Y-117792381D01*
X157752142Y-117792381D02*
X157656904Y-117792381D01*
X157656904Y-117792381D02*
X157561666Y-117840000D01*
X157561666Y-117840000D02*
X157514047Y-117887619D01*
X157514047Y-117887619D02*
X157466428Y-117982857D01*
X157466428Y-117982857D02*
X157418809Y-118173333D01*
X157418809Y-118173333D02*
X157371190Y-118268571D01*
X157371190Y-118268571D02*
X157323571Y-118316190D01*
X157323571Y-118316190D02*
X157228333Y-118363809D01*
X157228333Y-118363809D02*
X157133095Y-118363809D01*
X157133095Y-118363809D02*
X157037857Y-118316190D01*
X157037857Y-118316190D02*
X156990238Y-118268571D01*
X156990238Y-118268571D02*
X156942619Y-118173333D01*
X156942619Y-118173333D02*
X156942619Y-117935238D01*
X156942619Y-117935238D02*
X156990238Y-117792381D01*
X156942619Y-117506666D02*
X156942619Y-116935238D01*
X157942619Y-117220952D02*
X156942619Y-117220952D01*
X169690238Y-88138095D02*
X169642619Y-88233333D01*
X169642619Y-88233333D02*
X169642619Y-88376190D01*
X169642619Y-88376190D02*
X169690238Y-88519047D01*
X169690238Y-88519047D02*
X169785476Y-88614285D01*
X169785476Y-88614285D02*
X169880714Y-88661904D01*
X169880714Y-88661904D02*
X170071190Y-88709523D01*
X170071190Y-88709523D02*
X170214047Y-88709523D01*
X170214047Y-88709523D02*
X170404523Y-88661904D01*
X170404523Y-88661904D02*
X170499761Y-88614285D01*
X170499761Y-88614285D02*
X170595000Y-88519047D01*
X170595000Y-88519047D02*
X170642619Y-88376190D01*
X170642619Y-88376190D02*
X170642619Y-88280952D01*
X170642619Y-88280952D02*
X170595000Y-88138095D01*
X170595000Y-88138095D02*
X170547380Y-88090476D01*
X170547380Y-88090476D02*
X170214047Y-88090476D01*
X170214047Y-88090476D02*
X170214047Y-88280952D01*
X170642619Y-87661904D02*
X169642619Y-87661904D01*
X169642619Y-87661904D02*
X170642619Y-87090476D01*
X170642619Y-87090476D02*
X169642619Y-87090476D01*
X170642619Y-86614285D02*
X169642619Y-86614285D01*
X169642619Y-86614285D02*
X169642619Y-86376190D01*
X169642619Y-86376190D02*
X169690238Y-86233333D01*
X169690238Y-86233333D02*
X169785476Y-86138095D01*
X169785476Y-86138095D02*
X169880714Y-86090476D01*
X169880714Y-86090476D02*
X170071190Y-86042857D01*
X170071190Y-86042857D02*
X170214047Y-86042857D01*
X170214047Y-86042857D02*
X170404523Y-86090476D01*
X170404523Y-86090476D02*
X170499761Y-86138095D01*
X170499761Y-86138095D02*
X170595000Y-86233333D01*
X170595000Y-86233333D02*
X170642619Y-86376190D01*
X170642619Y-86376190D02*
X170642619Y-86614285D01*
X201122619Y-88661904D02*
X200122619Y-88661904D01*
X200122619Y-88661904D02*
X201122619Y-88090476D01*
X201122619Y-88090476D02*
X200122619Y-88090476D01*
X201027380Y-87042857D02*
X201075000Y-87090476D01*
X201075000Y-87090476D02*
X201122619Y-87233333D01*
X201122619Y-87233333D02*
X201122619Y-87328571D01*
X201122619Y-87328571D02*
X201075000Y-87471428D01*
X201075000Y-87471428D02*
X200979761Y-87566666D01*
X200979761Y-87566666D02*
X200884523Y-87614285D01*
X200884523Y-87614285D02*
X200694047Y-87661904D01*
X200694047Y-87661904D02*
X200551190Y-87661904D01*
X200551190Y-87661904D02*
X200360714Y-87614285D01*
X200360714Y-87614285D02*
X200265476Y-87566666D01*
X200265476Y-87566666D02*
X200170238Y-87471428D01*
X200170238Y-87471428D02*
X200122619Y-87328571D01*
X200122619Y-87328571D02*
X200122619Y-87233333D01*
X200122619Y-87233333D02*
X200170238Y-87090476D01*
X200170238Y-87090476D02*
X200217857Y-87042857D01*
X177310238Y-118982857D02*
X177262619Y-119078095D01*
X177262619Y-119078095D02*
X177262619Y-119220952D01*
X177262619Y-119220952D02*
X177310238Y-119363809D01*
X177310238Y-119363809D02*
X177405476Y-119459047D01*
X177405476Y-119459047D02*
X177500714Y-119506666D01*
X177500714Y-119506666D02*
X177691190Y-119554285D01*
X177691190Y-119554285D02*
X177834047Y-119554285D01*
X177834047Y-119554285D02*
X178024523Y-119506666D01*
X178024523Y-119506666D02*
X178119761Y-119459047D01*
X178119761Y-119459047D02*
X178215000Y-119363809D01*
X178215000Y-119363809D02*
X178262619Y-119220952D01*
X178262619Y-119220952D02*
X178262619Y-119125714D01*
X178262619Y-119125714D02*
X178215000Y-118982857D01*
X178215000Y-118982857D02*
X178167380Y-118935238D01*
X178167380Y-118935238D02*
X177834047Y-118935238D01*
X177834047Y-118935238D02*
X177834047Y-119125714D01*
X177357857Y-118554285D02*
X177310238Y-118506666D01*
X177310238Y-118506666D02*
X177262619Y-118411428D01*
X177262619Y-118411428D02*
X177262619Y-118173333D01*
X177262619Y-118173333D02*
X177310238Y-118078095D01*
X177310238Y-118078095D02*
X177357857Y-118030476D01*
X177357857Y-118030476D02*
X177453095Y-117982857D01*
X177453095Y-117982857D02*
X177548333Y-117982857D01*
X177548333Y-117982857D02*
X177691190Y-118030476D01*
X177691190Y-118030476D02*
X178262619Y-118601904D01*
X178262619Y-118601904D02*
X178262619Y-117982857D01*
X177262619Y-117125714D02*
X177262619Y-117316190D01*
X177262619Y-117316190D02*
X177310238Y-117411428D01*
X177310238Y-117411428D02*
X177357857Y-117459047D01*
X177357857Y-117459047D02*
X177500714Y-117554285D01*
X177500714Y-117554285D02*
X177691190Y-117601904D01*
X177691190Y-117601904D02*
X178072142Y-117601904D01*
X178072142Y-117601904D02*
X178167380Y-117554285D01*
X178167380Y-117554285D02*
X178215000Y-117506666D01*
X178215000Y-117506666D02*
X178262619Y-117411428D01*
X178262619Y-117411428D02*
X178262619Y-117220952D01*
X178262619Y-117220952D02*
X178215000Y-117125714D01*
X178215000Y-117125714D02*
X178167380Y-117078095D01*
X178167380Y-117078095D02*
X178072142Y-117030476D01*
X178072142Y-117030476D02*
X177834047Y-117030476D01*
X177834047Y-117030476D02*
X177738809Y-117078095D01*
X177738809Y-117078095D02*
X177691190Y-117125714D01*
X177691190Y-117125714D02*
X177643571Y-117220952D01*
X177643571Y-117220952D02*
X177643571Y-117411428D01*
X177643571Y-117411428D02*
X177691190Y-117506666D01*
X177691190Y-117506666D02*
X177738809Y-117554285D01*
X177738809Y-117554285D02*
X177834047Y-117601904D01*
X165562619Y-88661904D02*
X164562619Y-88661904D01*
X164562619Y-88661904D02*
X165562619Y-88090476D01*
X165562619Y-88090476D02*
X164562619Y-88090476D01*
X165467380Y-87042857D02*
X165515000Y-87090476D01*
X165515000Y-87090476D02*
X165562619Y-87233333D01*
X165562619Y-87233333D02*
X165562619Y-87328571D01*
X165562619Y-87328571D02*
X165515000Y-87471428D01*
X165515000Y-87471428D02*
X165419761Y-87566666D01*
X165419761Y-87566666D02*
X165324523Y-87614285D01*
X165324523Y-87614285D02*
X165134047Y-87661904D01*
X165134047Y-87661904D02*
X164991190Y-87661904D01*
X164991190Y-87661904D02*
X164800714Y-87614285D01*
X164800714Y-87614285D02*
X164705476Y-87566666D01*
X164705476Y-87566666D02*
X164610238Y-87471428D01*
X164610238Y-87471428D02*
X164562619Y-87328571D01*
X164562619Y-87328571D02*
X164562619Y-87233333D01*
X164562619Y-87233333D02*
X164610238Y-87090476D01*
X164610238Y-87090476D02*
X164657857Y-87042857D01*
X200122619Y-117840000D02*
X200122619Y-118316190D01*
X200122619Y-118316190D02*
X200598809Y-118363809D01*
X200598809Y-118363809D02*
X200551190Y-118316190D01*
X200551190Y-118316190D02*
X200503571Y-118220952D01*
X200503571Y-118220952D02*
X200503571Y-117982857D01*
X200503571Y-117982857D02*
X200551190Y-117887619D01*
X200551190Y-117887619D02*
X200598809Y-117840000D01*
X200598809Y-117840000D02*
X200694047Y-117792381D01*
X200694047Y-117792381D02*
X200932142Y-117792381D01*
X200932142Y-117792381D02*
X201027380Y-117840000D01*
X201027380Y-117840000D02*
X201075000Y-117887619D01*
X201075000Y-117887619D02*
X201122619Y-117982857D01*
X201122619Y-117982857D02*
X201122619Y-118220952D01*
X201122619Y-118220952D02*
X201075000Y-118316190D01*
X201075000Y-118316190D02*
X201027380Y-118363809D01*
X200455952Y-117459047D02*
X201122619Y-117220952D01*
X201122619Y-117220952D02*
X200455952Y-116982857D01*
X172230238Y-118982857D02*
X172182619Y-119078095D01*
X172182619Y-119078095D02*
X172182619Y-119220952D01*
X172182619Y-119220952D02*
X172230238Y-119363809D01*
X172230238Y-119363809D02*
X172325476Y-119459047D01*
X172325476Y-119459047D02*
X172420714Y-119506666D01*
X172420714Y-119506666D02*
X172611190Y-119554285D01*
X172611190Y-119554285D02*
X172754047Y-119554285D01*
X172754047Y-119554285D02*
X172944523Y-119506666D01*
X172944523Y-119506666D02*
X173039761Y-119459047D01*
X173039761Y-119459047D02*
X173135000Y-119363809D01*
X173135000Y-119363809D02*
X173182619Y-119220952D01*
X173182619Y-119220952D02*
X173182619Y-119125714D01*
X173182619Y-119125714D02*
X173135000Y-118982857D01*
X173135000Y-118982857D02*
X173087380Y-118935238D01*
X173087380Y-118935238D02*
X172754047Y-118935238D01*
X172754047Y-118935238D02*
X172754047Y-119125714D01*
X172182619Y-118601904D02*
X172182619Y-117982857D01*
X172182619Y-117982857D02*
X172563571Y-118316190D01*
X172563571Y-118316190D02*
X172563571Y-118173333D01*
X172563571Y-118173333D02*
X172611190Y-118078095D01*
X172611190Y-118078095D02*
X172658809Y-118030476D01*
X172658809Y-118030476D02*
X172754047Y-117982857D01*
X172754047Y-117982857D02*
X172992142Y-117982857D01*
X172992142Y-117982857D02*
X173087380Y-118030476D01*
X173087380Y-118030476D02*
X173135000Y-118078095D01*
X173135000Y-118078095D02*
X173182619Y-118173333D01*
X173182619Y-118173333D02*
X173182619Y-118459047D01*
X173182619Y-118459047D02*
X173135000Y-118554285D01*
X173135000Y-118554285D02*
X173087380Y-118601904D01*
X172182619Y-117649523D02*
X172182619Y-117030476D01*
X172182619Y-117030476D02*
X172563571Y-117363809D01*
X172563571Y-117363809D02*
X172563571Y-117220952D01*
X172563571Y-117220952D02*
X172611190Y-117125714D01*
X172611190Y-117125714D02*
X172658809Y-117078095D01*
X172658809Y-117078095D02*
X172754047Y-117030476D01*
X172754047Y-117030476D02*
X172992142Y-117030476D01*
X172992142Y-117030476D02*
X173087380Y-117078095D01*
X173087380Y-117078095D02*
X173135000Y-117125714D01*
X173135000Y-117125714D02*
X173182619Y-117220952D01*
X173182619Y-117220952D02*
X173182619Y-117506666D01*
X173182619Y-117506666D02*
X173135000Y-117601904D01*
X173135000Y-117601904D02*
X173087380Y-117649523D01*
X187470238Y-88138095D02*
X187422619Y-88233333D01*
X187422619Y-88233333D02*
X187422619Y-88376190D01*
X187422619Y-88376190D02*
X187470238Y-88519047D01*
X187470238Y-88519047D02*
X187565476Y-88614285D01*
X187565476Y-88614285D02*
X187660714Y-88661904D01*
X187660714Y-88661904D02*
X187851190Y-88709523D01*
X187851190Y-88709523D02*
X187994047Y-88709523D01*
X187994047Y-88709523D02*
X188184523Y-88661904D01*
X188184523Y-88661904D02*
X188279761Y-88614285D01*
X188279761Y-88614285D02*
X188375000Y-88519047D01*
X188375000Y-88519047D02*
X188422619Y-88376190D01*
X188422619Y-88376190D02*
X188422619Y-88280952D01*
X188422619Y-88280952D02*
X188375000Y-88138095D01*
X188375000Y-88138095D02*
X188327380Y-88090476D01*
X188327380Y-88090476D02*
X187994047Y-88090476D01*
X187994047Y-88090476D02*
X187994047Y-88280952D01*
X187422619Y-87471428D02*
X187422619Y-87376190D01*
X187422619Y-87376190D02*
X187470238Y-87280952D01*
X187470238Y-87280952D02*
X187517857Y-87233333D01*
X187517857Y-87233333D02*
X187613095Y-87185714D01*
X187613095Y-87185714D02*
X187803571Y-87138095D01*
X187803571Y-87138095D02*
X188041666Y-87138095D01*
X188041666Y-87138095D02*
X188232142Y-87185714D01*
X188232142Y-87185714D02*
X188327380Y-87233333D01*
X188327380Y-87233333D02*
X188375000Y-87280952D01*
X188375000Y-87280952D02*
X188422619Y-87376190D01*
X188422619Y-87376190D02*
X188422619Y-87471428D01*
X188422619Y-87471428D02*
X188375000Y-87566666D01*
X188375000Y-87566666D02*
X188327380Y-87614285D01*
X188327380Y-87614285D02*
X188232142Y-87661904D01*
X188232142Y-87661904D02*
X188041666Y-87709523D01*
X188041666Y-87709523D02*
X187803571Y-87709523D01*
X187803571Y-87709523D02*
X187613095Y-87661904D01*
X187613095Y-87661904D02*
X187517857Y-87614285D01*
X187517857Y-87614285D02*
X187470238Y-87566666D01*
X187470238Y-87566666D02*
X187422619Y-87471428D01*
X198582619Y-118649523D02*
X197582619Y-118649523D01*
X197582619Y-118649523D02*
X198582619Y-118078095D01*
X198582619Y-118078095D02*
X197582619Y-118078095D01*
X198487380Y-117030476D02*
X198535000Y-117078095D01*
X198535000Y-117078095D02*
X198582619Y-117220952D01*
X198582619Y-117220952D02*
X198582619Y-117316190D01*
X198582619Y-117316190D02*
X198535000Y-117459047D01*
X198535000Y-117459047D02*
X198439761Y-117554285D01*
X198439761Y-117554285D02*
X198344523Y-117601904D01*
X198344523Y-117601904D02*
X198154047Y-117649523D01*
X198154047Y-117649523D02*
X198011190Y-117649523D01*
X198011190Y-117649523D02*
X197820714Y-117601904D01*
X197820714Y-117601904D02*
X197725476Y-117554285D01*
X197725476Y-117554285D02*
X197630238Y-117459047D01*
X197630238Y-117459047D02*
X197582619Y-117316190D01*
X197582619Y-117316190D02*
X197582619Y-117220952D01*
X197582619Y-117220952D02*
X197630238Y-117078095D01*
X197630238Y-117078095D02*
X197677857Y-117030476D01*
X154402619Y-119363809D02*
X154402619Y-118744762D01*
X154402619Y-118744762D02*
X154783571Y-119078095D01*
X154783571Y-119078095D02*
X154783571Y-118935238D01*
X154783571Y-118935238D02*
X154831190Y-118840000D01*
X154831190Y-118840000D02*
X154878809Y-118792381D01*
X154878809Y-118792381D02*
X154974047Y-118744762D01*
X154974047Y-118744762D02*
X155212142Y-118744762D01*
X155212142Y-118744762D02*
X155307380Y-118792381D01*
X155307380Y-118792381D02*
X155355000Y-118840000D01*
X155355000Y-118840000D02*
X155402619Y-118935238D01*
X155402619Y-118935238D02*
X155402619Y-119220952D01*
X155402619Y-119220952D02*
X155355000Y-119316190D01*
X155355000Y-119316190D02*
X155307380Y-119363809D01*
X154735952Y-118411428D02*
X155402619Y-118173333D01*
X155402619Y-118173333D02*
X154735952Y-117935238D01*
X154402619Y-117649523D02*
X154402619Y-117030476D01*
X154402619Y-117030476D02*
X154783571Y-117363809D01*
X154783571Y-117363809D02*
X154783571Y-117220952D01*
X154783571Y-117220952D02*
X154831190Y-117125714D01*
X154831190Y-117125714D02*
X154878809Y-117078095D01*
X154878809Y-117078095D02*
X154974047Y-117030476D01*
X154974047Y-117030476D02*
X155212142Y-117030476D01*
X155212142Y-117030476D02*
X155307380Y-117078095D01*
X155307380Y-117078095D02*
X155355000Y-117125714D01*
X155355000Y-117125714D02*
X155402619Y-117220952D01*
X155402619Y-117220952D02*
X155402619Y-117506666D01*
X155402619Y-117506666D02*
X155355000Y-117601904D01*
X155355000Y-117601904D02*
X155307380Y-117649523D01*
X174770238Y-88138095D02*
X174722619Y-88233333D01*
X174722619Y-88233333D02*
X174722619Y-88376190D01*
X174722619Y-88376190D02*
X174770238Y-88519047D01*
X174770238Y-88519047D02*
X174865476Y-88614285D01*
X174865476Y-88614285D02*
X174960714Y-88661904D01*
X174960714Y-88661904D02*
X175151190Y-88709523D01*
X175151190Y-88709523D02*
X175294047Y-88709523D01*
X175294047Y-88709523D02*
X175484523Y-88661904D01*
X175484523Y-88661904D02*
X175579761Y-88614285D01*
X175579761Y-88614285D02*
X175675000Y-88519047D01*
X175675000Y-88519047D02*
X175722619Y-88376190D01*
X175722619Y-88376190D02*
X175722619Y-88280952D01*
X175722619Y-88280952D02*
X175675000Y-88138095D01*
X175675000Y-88138095D02*
X175627380Y-88090476D01*
X175627380Y-88090476D02*
X175294047Y-88090476D01*
X175294047Y-88090476D02*
X175294047Y-88280952D01*
X175722619Y-87138095D02*
X175722619Y-87709523D01*
X175722619Y-87423809D02*
X174722619Y-87423809D01*
X174722619Y-87423809D02*
X174865476Y-87519047D01*
X174865476Y-87519047D02*
X174960714Y-87614285D01*
X174960714Y-87614285D02*
X175008333Y-87709523D01*
X175151190Y-86566666D02*
X175103571Y-86661904D01*
X175103571Y-86661904D02*
X175055952Y-86709523D01*
X175055952Y-86709523D02*
X174960714Y-86757142D01*
X174960714Y-86757142D02*
X174913095Y-86757142D01*
X174913095Y-86757142D02*
X174817857Y-86709523D01*
X174817857Y-86709523D02*
X174770238Y-86661904D01*
X174770238Y-86661904D02*
X174722619Y-86566666D01*
X174722619Y-86566666D02*
X174722619Y-86376190D01*
X174722619Y-86376190D02*
X174770238Y-86280952D01*
X174770238Y-86280952D02*
X174817857Y-86233333D01*
X174817857Y-86233333D02*
X174913095Y-86185714D01*
X174913095Y-86185714D02*
X174960714Y-86185714D01*
X174960714Y-86185714D02*
X175055952Y-86233333D01*
X175055952Y-86233333D02*
X175103571Y-86280952D01*
X175103571Y-86280952D02*
X175151190Y-86376190D01*
X175151190Y-86376190D02*
X175151190Y-86566666D01*
X175151190Y-86566666D02*
X175198809Y-86661904D01*
X175198809Y-86661904D02*
X175246428Y-86709523D01*
X175246428Y-86709523D02*
X175341666Y-86757142D01*
X175341666Y-86757142D02*
X175532142Y-86757142D01*
X175532142Y-86757142D02*
X175627380Y-86709523D01*
X175627380Y-86709523D02*
X175675000Y-86661904D01*
X175675000Y-86661904D02*
X175722619Y-86566666D01*
X175722619Y-86566666D02*
X175722619Y-86376190D01*
X175722619Y-86376190D02*
X175675000Y-86280952D01*
X175675000Y-86280952D02*
X175627380Y-86233333D01*
X175627380Y-86233333D02*
X175532142Y-86185714D01*
X175532142Y-86185714D02*
X175341666Y-86185714D01*
X175341666Y-86185714D02*
X175246428Y-86233333D01*
X175246428Y-86233333D02*
X175198809Y-86280952D01*
X175198809Y-86280952D02*
X175151190Y-86376190D01*
X160482619Y-119744761D02*
X159482619Y-119744761D01*
X160577857Y-119506667D02*
X160577857Y-118744762D01*
X159482619Y-118601904D02*
X159482619Y-117982857D01*
X159482619Y-117982857D02*
X159863571Y-118316190D01*
X159863571Y-118316190D02*
X159863571Y-118173333D01*
X159863571Y-118173333D02*
X159911190Y-118078095D01*
X159911190Y-118078095D02*
X159958809Y-118030476D01*
X159958809Y-118030476D02*
X160054047Y-117982857D01*
X160054047Y-117982857D02*
X160292142Y-117982857D01*
X160292142Y-117982857D02*
X160387380Y-118030476D01*
X160387380Y-118030476D02*
X160435000Y-118078095D01*
X160435000Y-118078095D02*
X160482619Y-118173333D01*
X160482619Y-118173333D02*
X160482619Y-118459047D01*
X160482619Y-118459047D02*
X160435000Y-118554285D01*
X160435000Y-118554285D02*
X160387380Y-118601904D01*
X159482619Y-117125714D02*
X159482619Y-117316190D01*
X159482619Y-117316190D02*
X159530238Y-117411428D01*
X159530238Y-117411428D02*
X159577857Y-117459047D01*
X159577857Y-117459047D02*
X159720714Y-117554285D01*
X159720714Y-117554285D02*
X159911190Y-117601904D01*
X159911190Y-117601904D02*
X160292142Y-117601904D01*
X160292142Y-117601904D02*
X160387380Y-117554285D01*
X160387380Y-117554285D02*
X160435000Y-117506666D01*
X160435000Y-117506666D02*
X160482619Y-117411428D01*
X160482619Y-117411428D02*
X160482619Y-117220952D01*
X160482619Y-117220952D02*
X160435000Y-117125714D01*
X160435000Y-117125714D02*
X160387380Y-117078095D01*
X160387380Y-117078095D02*
X160292142Y-117030476D01*
X160292142Y-117030476D02*
X160054047Y-117030476D01*
X160054047Y-117030476D02*
X159958809Y-117078095D01*
X159958809Y-117078095D02*
X159911190Y-117125714D01*
X159911190Y-117125714D02*
X159863571Y-117220952D01*
X159863571Y-117220952D02*
X159863571Y-117411428D01*
X159863571Y-117411428D02*
X159911190Y-117506666D01*
X159911190Y-117506666D02*
X159958809Y-117554285D01*
X159958809Y-117554285D02*
X160054047Y-117601904D01*
X159530238Y-88138095D02*
X159482619Y-88233333D01*
X159482619Y-88233333D02*
X159482619Y-88376190D01*
X159482619Y-88376190D02*
X159530238Y-88519047D01*
X159530238Y-88519047D02*
X159625476Y-88614285D01*
X159625476Y-88614285D02*
X159720714Y-88661904D01*
X159720714Y-88661904D02*
X159911190Y-88709523D01*
X159911190Y-88709523D02*
X160054047Y-88709523D01*
X160054047Y-88709523D02*
X160244523Y-88661904D01*
X160244523Y-88661904D02*
X160339761Y-88614285D01*
X160339761Y-88614285D02*
X160435000Y-88519047D01*
X160435000Y-88519047D02*
X160482619Y-88376190D01*
X160482619Y-88376190D02*
X160482619Y-88280952D01*
X160482619Y-88280952D02*
X160435000Y-88138095D01*
X160435000Y-88138095D02*
X160387380Y-88090476D01*
X160387380Y-88090476D02*
X160054047Y-88090476D01*
X160054047Y-88090476D02*
X160054047Y-88280952D01*
X159577857Y-87709523D02*
X159530238Y-87661904D01*
X159530238Y-87661904D02*
X159482619Y-87566666D01*
X159482619Y-87566666D02*
X159482619Y-87328571D01*
X159482619Y-87328571D02*
X159530238Y-87233333D01*
X159530238Y-87233333D02*
X159577857Y-87185714D01*
X159577857Y-87185714D02*
X159673095Y-87138095D01*
X159673095Y-87138095D02*
X159768333Y-87138095D01*
X159768333Y-87138095D02*
X159911190Y-87185714D01*
X159911190Y-87185714D02*
X160482619Y-87757142D01*
X160482619Y-87757142D02*
X160482619Y-87138095D01*
X159577857Y-86757142D02*
X159530238Y-86709523D01*
X159530238Y-86709523D02*
X159482619Y-86614285D01*
X159482619Y-86614285D02*
X159482619Y-86376190D01*
X159482619Y-86376190D02*
X159530238Y-86280952D01*
X159530238Y-86280952D02*
X159577857Y-86233333D01*
X159577857Y-86233333D02*
X159673095Y-86185714D01*
X159673095Y-86185714D02*
X159768333Y-86185714D01*
X159768333Y-86185714D02*
X159911190Y-86233333D01*
X159911190Y-86233333D02*
X160482619Y-86804761D01*
X160482619Y-86804761D02*
X160482619Y-86185714D01*
X190010238Y-88138095D02*
X189962619Y-88233333D01*
X189962619Y-88233333D02*
X189962619Y-88376190D01*
X189962619Y-88376190D02*
X190010238Y-88519047D01*
X190010238Y-88519047D02*
X190105476Y-88614285D01*
X190105476Y-88614285D02*
X190200714Y-88661904D01*
X190200714Y-88661904D02*
X190391190Y-88709523D01*
X190391190Y-88709523D02*
X190534047Y-88709523D01*
X190534047Y-88709523D02*
X190724523Y-88661904D01*
X190724523Y-88661904D02*
X190819761Y-88614285D01*
X190819761Y-88614285D02*
X190915000Y-88519047D01*
X190915000Y-88519047D02*
X190962619Y-88376190D01*
X190962619Y-88376190D02*
X190962619Y-88280952D01*
X190962619Y-88280952D02*
X190915000Y-88138095D01*
X190915000Y-88138095D02*
X190867380Y-88090476D01*
X190867380Y-88090476D02*
X190534047Y-88090476D01*
X190534047Y-88090476D02*
X190534047Y-88280952D01*
X190057857Y-87709523D02*
X190010238Y-87661904D01*
X190010238Y-87661904D02*
X189962619Y-87566666D01*
X189962619Y-87566666D02*
X189962619Y-87328571D01*
X189962619Y-87328571D02*
X190010238Y-87233333D01*
X190010238Y-87233333D02*
X190057857Y-87185714D01*
X190057857Y-87185714D02*
X190153095Y-87138095D01*
X190153095Y-87138095D02*
X190248333Y-87138095D01*
X190248333Y-87138095D02*
X190391190Y-87185714D01*
X190391190Y-87185714D02*
X190962619Y-87757142D01*
X190962619Y-87757142D02*
X190962619Y-87138095D01*
X182390238Y-118982857D02*
X182342619Y-119078095D01*
X182342619Y-119078095D02*
X182342619Y-119220952D01*
X182342619Y-119220952D02*
X182390238Y-119363809D01*
X182390238Y-119363809D02*
X182485476Y-119459047D01*
X182485476Y-119459047D02*
X182580714Y-119506666D01*
X182580714Y-119506666D02*
X182771190Y-119554285D01*
X182771190Y-119554285D02*
X182914047Y-119554285D01*
X182914047Y-119554285D02*
X183104523Y-119506666D01*
X183104523Y-119506666D02*
X183199761Y-119459047D01*
X183199761Y-119459047D02*
X183295000Y-119363809D01*
X183295000Y-119363809D02*
X183342619Y-119220952D01*
X183342619Y-119220952D02*
X183342619Y-119125714D01*
X183342619Y-119125714D02*
X183295000Y-118982857D01*
X183295000Y-118982857D02*
X183247380Y-118935238D01*
X183247380Y-118935238D02*
X182914047Y-118935238D01*
X182914047Y-118935238D02*
X182914047Y-119125714D01*
X183342619Y-117982857D02*
X183342619Y-118554285D01*
X183342619Y-118268571D02*
X182342619Y-118268571D01*
X182342619Y-118268571D02*
X182485476Y-118363809D01*
X182485476Y-118363809D02*
X182580714Y-118459047D01*
X182580714Y-118459047D02*
X182628333Y-118554285D01*
X182675952Y-117125714D02*
X183342619Y-117125714D01*
X182295000Y-117363809D02*
X183009285Y-117601904D01*
X183009285Y-117601904D02*
X183009285Y-116982857D01*
X164610238Y-118982857D02*
X164562619Y-119078095D01*
X164562619Y-119078095D02*
X164562619Y-119220952D01*
X164562619Y-119220952D02*
X164610238Y-119363809D01*
X164610238Y-119363809D02*
X164705476Y-119459047D01*
X164705476Y-119459047D02*
X164800714Y-119506666D01*
X164800714Y-119506666D02*
X164991190Y-119554285D01*
X164991190Y-119554285D02*
X165134047Y-119554285D01*
X165134047Y-119554285D02*
X165324523Y-119506666D01*
X165324523Y-119506666D02*
X165419761Y-119459047D01*
X165419761Y-119459047D02*
X165515000Y-119363809D01*
X165515000Y-119363809D02*
X165562619Y-119220952D01*
X165562619Y-119220952D02*
X165562619Y-119125714D01*
X165562619Y-119125714D02*
X165515000Y-118982857D01*
X165515000Y-118982857D02*
X165467380Y-118935238D01*
X165467380Y-118935238D02*
X165134047Y-118935238D01*
X165134047Y-118935238D02*
X165134047Y-119125714D01*
X164562619Y-118601904D02*
X164562619Y-117982857D01*
X164562619Y-117982857D02*
X164943571Y-118316190D01*
X164943571Y-118316190D02*
X164943571Y-118173333D01*
X164943571Y-118173333D02*
X164991190Y-118078095D01*
X164991190Y-118078095D02*
X165038809Y-118030476D01*
X165038809Y-118030476D02*
X165134047Y-117982857D01*
X165134047Y-117982857D02*
X165372142Y-117982857D01*
X165372142Y-117982857D02*
X165467380Y-118030476D01*
X165467380Y-118030476D02*
X165515000Y-118078095D01*
X165515000Y-118078095D02*
X165562619Y-118173333D01*
X165562619Y-118173333D02*
X165562619Y-118459047D01*
X165562619Y-118459047D02*
X165515000Y-118554285D01*
X165515000Y-118554285D02*
X165467380Y-118601904D01*
X164895952Y-117125714D02*
X165562619Y-117125714D01*
X164515000Y-117363809D02*
X165229285Y-117601904D01*
X165229285Y-117601904D02*
X165229285Y-116982857D01*
X190010238Y-118982857D02*
X189962619Y-119078095D01*
X189962619Y-119078095D02*
X189962619Y-119220952D01*
X189962619Y-119220952D02*
X190010238Y-119363809D01*
X190010238Y-119363809D02*
X190105476Y-119459047D01*
X190105476Y-119459047D02*
X190200714Y-119506666D01*
X190200714Y-119506666D02*
X190391190Y-119554285D01*
X190391190Y-119554285D02*
X190534047Y-119554285D01*
X190534047Y-119554285D02*
X190724523Y-119506666D01*
X190724523Y-119506666D02*
X190819761Y-119459047D01*
X190819761Y-119459047D02*
X190915000Y-119363809D01*
X190915000Y-119363809D02*
X190962619Y-119220952D01*
X190962619Y-119220952D02*
X190962619Y-119125714D01*
X190962619Y-119125714D02*
X190915000Y-118982857D01*
X190915000Y-118982857D02*
X190867380Y-118935238D01*
X190867380Y-118935238D02*
X190534047Y-118935238D01*
X190534047Y-118935238D02*
X190534047Y-119125714D01*
X190962619Y-117982857D02*
X190962619Y-118554285D01*
X190962619Y-118268571D02*
X189962619Y-118268571D01*
X189962619Y-118268571D02*
X190105476Y-118363809D01*
X190105476Y-118363809D02*
X190200714Y-118459047D01*
X190200714Y-118459047D02*
X190248333Y-118554285D01*
X189962619Y-117649523D02*
X189962619Y-117030476D01*
X189962619Y-117030476D02*
X190343571Y-117363809D01*
X190343571Y-117363809D02*
X190343571Y-117220952D01*
X190343571Y-117220952D02*
X190391190Y-117125714D01*
X190391190Y-117125714D02*
X190438809Y-117078095D01*
X190438809Y-117078095D02*
X190534047Y-117030476D01*
X190534047Y-117030476D02*
X190772142Y-117030476D01*
X190772142Y-117030476D02*
X190867380Y-117078095D01*
X190867380Y-117078095D02*
X190915000Y-117125714D01*
X190915000Y-117125714D02*
X190962619Y-117220952D01*
X190962619Y-117220952D02*
X190962619Y-117506666D01*
X190962619Y-117506666D02*
X190915000Y-117601904D01*
X190915000Y-117601904D02*
X190867380Y-117649523D01*
X167150238Y-88138095D02*
X167102619Y-88233333D01*
X167102619Y-88233333D02*
X167102619Y-88376190D01*
X167102619Y-88376190D02*
X167150238Y-88519047D01*
X167150238Y-88519047D02*
X167245476Y-88614285D01*
X167245476Y-88614285D02*
X167340714Y-88661904D01*
X167340714Y-88661904D02*
X167531190Y-88709523D01*
X167531190Y-88709523D02*
X167674047Y-88709523D01*
X167674047Y-88709523D02*
X167864523Y-88661904D01*
X167864523Y-88661904D02*
X167959761Y-88614285D01*
X167959761Y-88614285D02*
X168055000Y-88519047D01*
X168055000Y-88519047D02*
X168102619Y-88376190D01*
X168102619Y-88376190D02*
X168102619Y-88280952D01*
X168102619Y-88280952D02*
X168055000Y-88138095D01*
X168055000Y-88138095D02*
X168007380Y-88090476D01*
X168007380Y-88090476D02*
X167674047Y-88090476D01*
X167674047Y-88090476D02*
X167674047Y-88280952D01*
X167197857Y-87709523D02*
X167150238Y-87661904D01*
X167150238Y-87661904D02*
X167102619Y-87566666D01*
X167102619Y-87566666D02*
X167102619Y-87328571D01*
X167102619Y-87328571D02*
X167150238Y-87233333D01*
X167150238Y-87233333D02*
X167197857Y-87185714D01*
X167197857Y-87185714D02*
X167293095Y-87138095D01*
X167293095Y-87138095D02*
X167388333Y-87138095D01*
X167388333Y-87138095D02*
X167531190Y-87185714D01*
X167531190Y-87185714D02*
X168102619Y-87757142D01*
X168102619Y-87757142D02*
X168102619Y-87138095D01*
X168102619Y-86185714D02*
X168102619Y-86757142D01*
X168102619Y-86471428D02*
X167102619Y-86471428D01*
X167102619Y-86471428D02*
X167245476Y-86566666D01*
X167245476Y-86566666D02*
X167340714Y-86661904D01*
X167340714Y-86661904D02*
X167388333Y-86757142D01*
X167150238Y-118982857D02*
X167102619Y-119078095D01*
X167102619Y-119078095D02*
X167102619Y-119220952D01*
X167102619Y-119220952D02*
X167150238Y-119363809D01*
X167150238Y-119363809D02*
X167245476Y-119459047D01*
X167245476Y-119459047D02*
X167340714Y-119506666D01*
X167340714Y-119506666D02*
X167531190Y-119554285D01*
X167531190Y-119554285D02*
X167674047Y-119554285D01*
X167674047Y-119554285D02*
X167864523Y-119506666D01*
X167864523Y-119506666D02*
X167959761Y-119459047D01*
X167959761Y-119459047D02*
X168055000Y-119363809D01*
X168055000Y-119363809D02*
X168102619Y-119220952D01*
X168102619Y-119220952D02*
X168102619Y-119125714D01*
X168102619Y-119125714D02*
X168055000Y-118982857D01*
X168055000Y-118982857D02*
X168007380Y-118935238D01*
X168007380Y-118935238D02*
X167674047Y-118935238D01*
X167674047Y-118935238D02*
X167674047Y-119125714D01*
X167102619Y-118601904D02*
X167102619Y-117982857D01*
X167102619Y-117982857D02*
X167483571Y-118316190D01*
X167483571Y-118316190D02*
X167483571Y-118173333D01*
X167483571Y-118173333D02*
X167531190Y-118078095D01*
X167531190Y-118078095D02*
X167578809Y-118030476D01*
X167578809Y-118030476D02*
X167674047Y-117982857D01*
X167674047Y-117982857D02*
X167912142Y-117982857D01*
X167912142Y-117982857D02*
X168007380Y-118030476D01*
X168007380Y-118030476D02*
X168055000Y-118078095D01*
X168055000Y-118078095D02*
X168102619Y-118173333D01*
X168102619Y-118173333D02*
X168102619Y-118459047D01*
X168102619Y-118459047D02*
X168055000Y-118554285D01*
X168055000Y-118554285D02*
X168007380Y-118601904D01*
X167102619Y-117078095D02*
X167102619Y-117554285D01*
X167102619Y-117554285D02*
X167578809Y-117601904D01*
X167578809Y-117601904D02*
X167531190Y-117554285D01*
X167531190Y-117554285D02*
X167483571Y-117459047D01*
X167483571Y-117459047D02*
X167483571Y-117220952D01*
X167483571Y-117220952D02*
X167531190Y-117125714D01*
X167531190Y-117125714D02*
X167578809Y-117078095D01*
X167578809Y-117078095D02*
X167674047Y-117030476D01*
X167674047Y-117030476D02*
X167912142Y-117030476D01*
X167912142Y-117030476D02*
X168007380Y-117078095D01*
X168007380Y-117078095D02*
X168055000Y-117125714D01*
X168055000Y-117125714D02*
X168102619Y-117220952D01*
X168102619Y-117220952D02*
X168102619Y-117459047D01*
X168102619Y-117459047D02*
X168055000Y-117554285D01*
X168055000Y-117554285D02*
X168007380Y-117601904D01*
X167327380Y-82736666D02*
X167375000Y-82784285D01*
X167375000Y-82784285D02*
X167422619Y-82927142D01*
X167422619Y-82927142D02*
X167422619Y-83022380D01*
X167422619Y-83022380D02*
X167375000Y-83165237D01*
X167375000Y-83165237D02*
X167279761Y-83260475D01*
X167279761Y-83260475D02*
X167184523Y-83308094D01*
X167184523Y-83308094D02*
X166994047Y-83355713D01*
X166994047Y-83355713D02*
X166851190Y-83355713D01*
X166851190Y-83355713D02*
X166660714Y-83308094D01*
X166660714Y-83308094D02*
X166565476Y-83260475D01*
X166565476Y-83260475D02*
X166470238Y-83165237D01*
X166470238Y-83165237D02*
X166422619Y-83022380D01*
X166422619Y-83022380D02*
X166422619Y-82927142D01*
X166422619Y-82927142D02*
X166470238Y-82784285D01*
X166470238Y-82784285D02*
X166517857Y-82736666D01*
X166422619Y-82403332D02*
X166422619Y-81784285D01*
X166422619Y-81784285D02*
X166803571Y-82117618D01*
X166803571Y-82117618D02*
X166803571Y-81974761D01*
X166803571Y-81974761D02*
X166851190Y-81879523D01*
X166851190Y-81879523D02*
X166898809Y-81831904D01*
X166898809Y-81831904D02*
X166994047Y-81784285D01*
X166994047Y-81784285D02*
X167232142Y-81784285D01*
X167232142Y-81784285D02*
X167327380Y-81831904D01*
X167327380Y-81831904D02*
X167375000Y-81879523D01*
X167375000Y-81879523D02*
X167422619Y-81974761D01*
X167422619Y-81974761D02*
X167422619Y-82260475D01*
X167422619Y-82260475D02*
X167375000Y-82355713D01*
X167375000Y-82355713D02*
X167327380Y-82403332D01*
D14*
X112970000Y-76466000D02*
X112970000Y-75136000D01*
X112970000Y-100850000D02*
X112970000Y-99520000D01*
X114300000Y-76466000D02*
X112970000Y-76466000D01*
X114300000Y-100850000D02*
X112970000Y-100850000D01*
X115570000Y-98190000D02*
X120710000Y-98190000D01*
X115570000Y-100850000D02*
X115570000Y-98190000D01*
X115570000Y-100850000D02*
X120710000Y-100850000D01*
X120710000Y-76466000D02*
X120710000Y-73806000D01*
X120710000Y-100850000D02*
X120710000Y-98190000D01*
X153790000Y-77410000D02*
X153790000Y-80070000D01*
X151190000Y-77410000D02*
X153790000Y-77410000D01*
X151190000Y-77410000D02*
X151190000Y-80070000D01*
X151190000Y-77410000D02*
X151190000Y-80070000D01*
X147320000Y-77410000D02*
X145990000Y-77410000D01*
X145990000Y-77410000D02*
X145990000Y-78740000D01*
X151190000Y-80070000D02*
X153790000Y-80070000D01*
X165160000Y-72330000D02*
X165160000Y-73660000D01*
X163830000Y-72330000D02*
X165160000Y-72330000D01*
X162560000Y-72330000D02*
X159960000Y-72330000D01*
X162560000Y-72330000D02*
X162560000Y-74990000D01*
X159960000Y-72330000D02*
X159960000Y-74990000D01*
X162560000Y-74990000D02*
X159960000Y-74990000D01*
X138700000Y-74947500D02*
X138950000Y-76447500D01*
X138950000Y-76447500D02*
X140450000Y-76447500D01*
X133620000Y-74947500D02*
X133870000Y-76447500D01*
X130290000Y-76447500D02*
X130540000Y-74947500D01*
X139700000Y-87367500D02*
X140000000Y-87967500D01*
X140000000Y-87967500D02*
X139400000Y-87967500D01*
X135370000Y-76447500D02*
X135620000Y-74947500D01*
X135620000Y-74947500D02*
X133620000Y-74947500D01*
X143350000Y-78247500D02*
X125890000Y-78247500D01*
X140700000Y-74947500D02*
X138700000Y-74947500D01*
X128790000Y-76447500D02*
X130290000Y-76447500D01*
X125890000Y-87167500D02*
X143350000Y-87167500D01*
X128540000Y-74947500D02*
X128790000Y-76447500D01*
X140450000Y-76447500D02*
X140700000Y-74947500D01*
X143350000Y-74947500D02*
X125890000Y-74947500D01*
X139400000Y-87967500D02*
X139700000Y-87367500D01*
X125890000Y-78247500D02*
X125890000Y-76447500D01*
X133870000Y-76447500D02*
X135370000Y-76447500D01*
X125890000Y-74947500D02*
X125890000Y-87167500D01*
X143350000Y-87167500D02*
X143350000Y-74947500D01*
X130540000Y-74947500D02*
X128540000Y-74947500D01*
X143350000Y-76447500D02*
X143350000Y-78247500D01*
X125890000Y-76447500D02*
X143350000Y-76447500D01*
X105310000Y-100870000D02*
X105640000Y-100870000D01*
X105640000Y-107410000D02*
X105310000Y-107410000D01*
X107720000Y-107410000D02*
X108050000Y-107410000D01*
X108050000Y-107410000D02*
X108050000Y-100870000D01*
X105310000Y-107410000D02*
X105310000Y-100870000D01*
X108050000Y-100870000D02*
X107720000Y-100870000D01*
X115030000Y-115670000D02*
X115030000Y-115340000D01*
X108490000Y-112930000D02*
X115030000Y-112930000D01*
X108490000Y-115670000D02*
X115030000Y-115670000D01*
X108490000Y-115340000D02*
X108490000Y-115670000D01*
X108490000Y-113260000D02*
X108490000Y-112930000D01*
X115030000Y-112930000D02*
X115030000Y-113260000D01*
X193230000Y-71080000D02*
X177340000Y-71080000D01*
X193230000Y-71080000D02*
X193230000Y-81320000D01*
X177340000Y-71080000D02*
X177340000Y-81320000D01*
X177340000Y-73660000D02*
X174800000Y-73660000D01*
X177340000Y-76200000D02*
X174800000Y-76200000D01*
X177340000Y-78740000D02*
X174800000Y-78740000D01*
X193230000Y-81320000D02*
X177340000Y-81320000D01*
X108519000Y-79069759D02*
X108519000Y-79699759D01*
X108834000Y-79384759D02*
X108204000Y-79384759D01*
X109910000Y-82570000D02*
X103450000Y-82570000D01*
X109910000Y-82610000D02*
X103450000Y-82610000D01*
X109910000Y-82650000D02*
X103450000Y-82650000D01*
X109908000Y-82690000D02*
X103452000Y-82690000D01*
X109907000Y-82730000D02*
X103453000Y-82730000D01*
X109904000Y-82770000D02*
X103456000Y-82770000D01*
X109902000Y-82810000D02*
X107720000Y-82810000D01*
X105640000Y-82810000D02*
X103458000Y-82810000D01*
X109898000Y-82850000D02*
X107720000Y-82850000D01*
X105640000Y-82850000D02*
X103462000Y-82850000D01*
X109895000Y-82890000D02*
X107720000Y-82890000D01*
X105640000Y-82890000D02*
X103465000Y-82890000D01*
X109891000Y-82930000D02*
X107720000Y-82930000D01*
X105640000Y-82930000D02*
X103469000Y-82930000D01*
X109886000Y-82970000D02*
X107720000Y-82970000D01*
X105640000Y-82970000D02*
X103474000Y-82970000D01*
X109881000Y-83010000D02*
X107720000Y-83010000D01*
X105640000Y-83010000D02*
X103479000Y-83010000D01*
X109875000Y-83050000D02*
X107720000Y-83050000D01*
X105640000Y-83050000D02*
X103485000Y-83050000D01*
X109869000Y-83090000D02*
X107720000Y-83090000D01*
X105640000Y-83090000D02*
X103491000Y-83090000D01*
X109862000Y-83130000D02*
X107720000Y-83130000D01*
X105640000Y-83130000D02*
X103498000Y-83130000D01*
X109855000Y-83170000D02*
X107720000Y-83170000D01*
X105640000Y-83170000D02*
X103505000Y-83170000D01*
X109847000Y-83210000D02*
X107720000Y-83210000D01*
X105640000Y-83210000D02*
X103513000Y-83210000D01*
X109839000Y-83250000D02*
X107720000Y-83250000D01*
X105640000Y-83250000D02*
X103521000Y-83250000D01*
X109830000Y-83291000D02*
X107720000Y-83291000D01*
X105640000Y-83291000D02*
X103530000Y-83291000D01*
X109821000Y-83331000D02*
X107720000Y-83331000D01*
X105640000Y-83331000D02*
X103539000Y-83331000D01*
X109811000Y-83371000D02*
X107720000Y-83371000D01*
X105640000Y-83371000D02*
X103549000Y-83371000D01*
X109801000Y-83411000D02*
X107720000Y-83411000D01*
X105640000Y-83411000D02*
X103559000Y-83411000D01*
X109790000Y-83451000D02*
X107720000Y-83451000D01*
X105640000Y-83451000D02*
X103570000Y-83451000D01*
X109778000Y-83491000D02*
X107720000Y-83491000D01*
X105640000Y-83491000D02*
X103582000Y-83491000D01*
X109766000Y-83531000D02*
X107720000Y-83531000D01*
X105640000Y-83531000D02*
X103594000Y-83531000D01*
X109754000Y-83571000D02*
X107720000Y-83571000D01*
X105640000Y-83571000D02*
X103606000Y-83571000D01*
X109741000Y-83611000D02*
X107720000Y-83611000D01*
X105640000Y-83611000D02*
X103619000Y-83611000D01*
X109727000Y-83651000D02*
X107720000Y-83651000D01*
X105640000Y-83651000D02*
X103633000Y-83651000D01*
X109713000Y-83691000D02*
X107720000Y-83691000D01*
X105640000Y-83691000D02*
X103647000Y-83691000D01*
X109698000Y-83731000D02*
X107720000Y-83731000D01*
X105640000Y-83731000D02*
X103662000Y-83731000D01*
X109682000Y-83771000D02*
X107720000Y-83771000D01*
X105640000Y-83771000D02*
X103678000Y-83771000D01*
X109666000Y-83811000D02*
X107720000Y-83811000D01*
X105640000Y-83811000D02*
X103694000Y-83811000D01*
X109650000Y-83851000D02*
X107720000Y-83851000D01*
X105640000Y-83851000D02*
X103710000Y-83851000D01*
X109632000Y-83891000D02*
X107720000Y-83891000D01*
X105640000Y-83891000D02*
X103728000Y-83891000D01*
X109614000Y-83931000D02*
X107720000Y-83931000D01*
X105640000Y-83931000D02*
X103746000Y-83931000D01*
X109596000Y-83971000D02*
X107720000Y-83971000D01*
X105640000Y-83971000D02*
X103764000Y-83971000D01*
X109576000Y-84011000D02*
X107720000Y-84011000D01*
X105640000Y-84011000D02*
X103784000Y-84011000D01*
X109556000Y-84051000D02*
X107720000Y-84051000D01*
X105640000Y-84051000D02*
X103804000Y-84051000D01*
X109536000Y-84091000D02*
X107720000Y-84091000D01*
X105640000Y-84091000D02*
X103824000Y-84091000D01*
X109514000Y-84131000D02*
X107720000Y-84131000D01*
X105640000Y-84131000D02*
X103846000Y-84131000D01*
X109492000Y-84171000D02*
X107720000Y-84171000D01*
X105640000Y-84171000D02*
X103868000Y-84171000D01*
X109470000Y-84211000D02*
X107720000Y-84211000D01*
X105640000Y-84211000D02*
X103890000Y-84211000D01*
X109446000Y-84251000D02*
X107720000Y-84251000D01*
X105640000Y-84251000D02*
X103914000Y-84251000D01*
X109422000Y-84291000D02*
X107720000Y-84291000D01*
X105640000Y-84291000D02*
X103938000Y-84291000D01*
X109396000Y-84331000D02*
X107720000Y-84331000D01*
X105640000Y-84331000D02*
X103964000Y-84331000D01*
X109370000Y-84371000D02*
X107720000Y-84371000D01*
X105640000Y-84371000D02*
X103990000Y-84371000D01*
X109344000Y-84411000D02*
X107720000Y-84411000D01*
X105640000Y-84411000D02*
X104016000Y-84411000D01*
X109316000Y-84451000D02*
X107720000Y-84451000D01*
X105640000Y-84451000D02*
X104044000Y-84451000D01*
X109287000Y-84491000D02*
X107720000Y-84491000D01*
X105640000Y-84491000D02*
X104073000Y-84491000D01*
X109258000Y-84531000D02*
X107720000Y-84531000D01*
X105640000Y-84531000D02*
X104102000Y-84531000D01*
X109228000Y-84571000D02*
X107720000Y-84571000D01*
X105640000Y-84571000D02*
X104132000Y-84571000D01*
X109196000Y-84611000D02*
X107720000Y-84611000D01*
X105640000Y-84611000D02*
X104164000Y-84611000D01*
X109164000Y-84651000D02*
X107720000Y-84651000D01*
X105640000Y-84651000D02*
X104196000Y-84651000D01*
X109130000Y-84691000D02*
X107720000Y-84691000D01*
X105640000Y-84691000D02*
X104230000Y-84691000D01*
X109096000Y-84731000D02*
X107720000Y-84731000D01*
X105640000Y-84731000D02*
X104264000Y-84731000D01*
X109060000Y-84771000D02*
X107720000Y-84771000D01*
X105640000Y-84771000D02*
X104300000Y-84771000D01*
X109023000Y-84811000D02*
X107720000Y-84811000D01*
X105640000Y-84811000D02*
X104337000Y-84811000D01*
X108985000Y-84851000D02*
X107720000Y-84851000D01*
X105640000Y-84851000D02*
X104375000Y-84851000D01*
X108945000Y-84891000D02*
X104415000Y-84891000D01*
X108904000Y-84931000D02*
X104456000Y-84931000D01*
X108862000Y-84971000D02*
X104498000Y-84971000D01*
X108817000Y-85011000D02*
X104543000Y-85011000D01*
X108772000Y-85051000D02*
X104588000Y-85051000D01*
X108724000Y-85091000D02*
X104636000Y-85091000D01*
X108675000Y-85131000D02*
X104685000Y-85131000D01*
X108624000Y-85171000D02*
X104736000Y-85171000D01*
X108570000Y-85211000D02*
X104790000Y-85211000D01*
X108514000Y-85251000D02*
X104846000Y-85251000D01*
X108456000Y-85291000D02*
X104904000Y-85291000D01*
X108394000Y-85331000D02*
X104966000Y-85331000D01*
X108330000Y-85371000D02*
X105030000Y-85371000D01*
X108261000Y-85411000D02*
X105099000Y-85411000D01*
X108189000Y-85451000D02*
X105171000Y-85451000D01*
X108112000Y-85491000D02*
X105248000Y-85491000D01*
X108030000Y-85531000D02*
X105330000Y-85531000D01*
X107942000Y-85571000D02*
X105418000Y-85571000D01*
X107845000Y-85611000D02*
X105515000Y-85611000D01*
X107739000Y-85651000D02*
X105621000Y-85651000D01*
X107620000Y-85691000D02*
X105740000Y-85691000D01*
X107482000Y-85731000D02*
X105878000Y-85731000D01*
X107313000Y-85771000D02*
X106047000Y-85771000D01*
X107082000Y-85811000D02*
X106278000Y-85811000D01*
X109950000Y-82570000D02*
G75*
G03*
X109950000Y-82570000I-3270000J0D01*
G01*
X133210000Y-121980000D02*
X133210000Y-120650000D01*
X134540000Y-121980000D02*
X133210000Y-121980000D01*
X148570000Y-121980000D02*
X148570000Y-119320000D01*
X135810000Y-119320000D02*
X148570000Y-119320000D01*
D15*
X129540000Y-106680000D02*
X129540000Y-91440000D01*
X149860000Y-106680000D02*
X129540000Y-106680000D01*
X129540000Y-91440000D02*
X149860000Y-91440000D01*
X149860000Y-91440000D02*
X149860000Y-106680000D01*
D10*
X130950000Y-107260000D02*
G75*
G03*
X130950000Y-107260000I-150000J0D01*
G01*
D14*
X123840000Y-109439000D02*
X123840000Y-110835000D01*
X123840000Y-109439000D02*
X130080000Y-109439000D01*
X123840000Y-112685000D02*
X123840000Y-114081000D01*
X123840000Y-114081000D02*
X130080000Y-114081000D01*
X130080000Y-109439000D02*
X130080000Y-110835000D01*
X130080000Y-112685000D02*
X130080000Y-114081000D01*
X134000000Y-109439000D02*
X134000000Y-110835000D01*
X134000000Y-109439000D02*
X140240000Y-109439000D01*
X134000000Y-112685000D02*
X134000000Y-114081000D01*
X134000000Y-114081000D02*
X140240000Y-114081000D01*
X140240000Y-109439000D02*
X140240000Y-110835000D01*
X140240000Y-112685000D02*
X140240000Y-114081000D01*
X112890000Y-121980000D02*
X112890000Y-120650000D01*
X114220000Y-121980000D02*
X112890000Y-121980000D01*
X128250000Y-121980000D02*
X128250000Y-119320000D01*
X115490000Y-119320000D02*
X128250000Y-119320000D01*
X174050000Y-123250000D02*
X174050000Y-120590000D01*
D11*
X154920000Y-123920000D02*
X152920000Y-123920000D01*
X152920000Y-123920000D02*
X152920000Y-121920000D01*
D15*
X153670000Y-115300000D02*
X201930000Y-115300000D01*
X153670000Y-115300000D02*
X153670000Y-90440000D01*
X201930000Y-115300000D02*
X201930000Y-90440000D01*
X153670000Y-90440000D02*
X201930000Y-90440000D01*
D12*
X198120000Y-106680000D02*
X202565000Y-106680000D01*
X202565000Y-106680000D02*
X202565000Y-99060000D01*
X202565000Y-99060000D02*
X198120000Y-99060000D01*
X198120000Y-99060000D02*
X198120000Y-106680000D01*
D14*
X164399000Y-79069759D02*
X164399000Y-79699759D01*
X164714000Y-79384759D02*
X164084000Y-79384759D01*
X165790000Y-82570000D02*
X159330000Y-82570000D01*
X165790000Y-82610000D02*
X159330000Y-82610000D01*
X165790000Y-82650000D02*
X159330000Y-82650000D01*
X165788000Y-82690000D02*
X159332000Y-82690000D01*
X165787000Y-82730000D02*
X159333000Y-82730000D01*
X165784000Y-82770000D02*
X159336000Y-82770000D01*
X165782000Y-82810000D02*
X163600000Y-82810000D01*
X161520000Y-82810000D02*
X159338000Y-82810000D01*
X165778000Y-82850000D02*
X163600000Y-82850000D01*
X161520000Y-82850000D02*
X159342000Y-82850000D01*
X165775000Y-82890000D02*
X163600000Y-82890000D01*
X161520000Y-82890000D02*
X159345000Y-82890000D01*
X165771000Y-82930000D02*
X163600000Y-82930000D01*
X161520000Y-82930000D02*
X159349000Y-82930000D01*
X165766000Y-82970000D02*
X163600000Y-82970000D01*
X161520000Y-82970000D02*
X159354000Y-82970000D01*
X165761000Y-83010000D02*
X163600000Y-83010000D01*
X161520000Y-83010000D02*
X159359000Y-83010000D01*
X165755000Y-83050000D02*
X163600000Y-83050000D01*
X161520000Y-83050000D02*
X159365000Y-83050000D01*
X165749000Y-83090000D02*
X163600000Y-83090000D01*
X161520000Y-83090000D02*
X159371000Y-83090000D01*
X165742000Y-83130000D02*
X163600000Y-83130000D01*
X161520000Y-83130000D02*
X159378000Y-83130000D01*
X165735000Y-83170000D02*
X163600000Y-83170000D01*
X161520000Y-83170000D02*
X159385000Y-83170000D01*
X165727000Y-83210000D02*
X163600000Y-83210000D01*
X161520000Y-83210000D02*
X159393000Y-83210000D01*
X165719000Y-83250000D02*
X163600000Y-83250000D01*
X161520000Y-83250000D02*
X159401000Y-83250000D01*
X165710000Y-83291000D02*
X163600000Y-83291000D01*
X161520000Y-83291000D02*
X159410000Y-83291000D01*
X165701000Y-83331000D02*
X163600000Y-83331000D01*
X161520000Y-83331000D02*
X159419000Y-83331000D01*
X165691000Y-83371000D02*
X163600000Y-83371000D01*
X161520000Y-83371000D02*
X159429000Y-83371000D01*
X165681000Y-83411000D02*
X163600000Y-83411000D01*
X161520000Y-83411000D02*
X159439000Y-83411000D01*
X165670000Y-83451000D02*
X163600000Y-83451000D01*
X161520000Y-83451000D02*
X159450000Y-83451000D01*
X165658000Y-83491000D02*
X163600000Y-83491000D01*
X161520000Y-83491000D02*
X159462000Y-83491000D01*
X165646000Y-83531000D02*
X163600000Y-83531000D01*
X161520000Y-83531000D02*
X159474000Y-83531000D01*
X165634000Y-83571000D02*
X163600000Y-83571000D01*
X161520000Y-83571000D02*
X159486000Y-83571000D01*
X165621000Y-83611000D02*
X163600000Y-83611000D01*
X161520000Y-83611000D02*
X159499000Y-83611000D01*
X165607000Y-83651000D02*
X163600000Y-83651000D01*
X161520000Y-83651000D02*
X159513000Y-83651000D01*
X165593000Y-83691000D02*
X163600000Y-83691000D01*
X161520000Y-83691000D02*
X159527000Y-83691000D01*
X165578000Y-83731000D02*
X163600000Y-83731000D01*
X161520000Y-83731000D02*
X159542000Y-83731000D01*
X165562000Y-83771000D02*
X163600000Y-83771000D01*
X161520000Y-83771000D02*
X159558000Y-83771000D01*
X165546000Y-83811000D02*
X163600000Y-83811000D01*
X161520000Y-83811000D02*
X159574000Y-83811000D01*
X165530000Y-83851000D02*
X163600000Y-83851000D01*
X161520000Y-83851000D02*
X159590000Y-83851000D01*
X165512000Y-83891000D02*
X163600000Y-83891000D01*
X161520000Y-83891000D02*
X159608000Y-83891000D01*
X165494000Y-83931000D02*
X163600000Y-83931000D01*
X161520000Y-83931000D02*
X159626000Y-83931000D01*
X165476000Y-83971000D02*
X163600000Y-83971000D01*
X161520000Y-83971000D02*
X159644000Y-83971000D01*
X165456000Y-84011000D02*
X163600000Y-84011000D01*
X161520000Y-84011000D02*
X159664000Y-84011000D01*
X165436000Y-84051000D02*
X163600000Y-84051000D01*
X161520000Y-84051000D02*
X159684000Y-84051000D01*
X165416000Y-84091000D02*
X163600000Y-84091000D01*
X161520000Y-84091000D02*
X159704000Y-84091000D01*
X165394000Y-84131000D02*
X163600000Y-84131000D01*
X161520000Y-84131000D02*
X159726000Y-84131000D01*
X165372000Y-84171000D02*
X163600000Y-84171000D01*
X161520000Y-84171000D02*
X159748000Y-84171000D01*
X165350000Y-84211000D02*
X163600000Y-84211000D01*
X161520000Y-84211000D02*
X159770000Y-84211000D01*
X165326000Y-84251000D02*
X163600000Y-84251000D01*
X161520000Y-84251000D02*
X159794000Y-84251000D01*
X165302000Y-84291000D02*
X163600000Y-84291000D01*
X161520000Y-84291000D02*
X159818000Y-84291000D01*
X165276000Y-84331000D02*
X163600000Y-84331000D01*
X161520000Y-84331000D02*
X159844000Y-84331000D01*
X165250000Y-84371000D02*
X163600000Y-84371000D01*
X161520000Y-84371000D02*
X159870000Y-84371000D01*
X165224000Y-84411000D02*
X163600000Y-84411000D01*
X161520000Y-84411000D02*
X159896000Y-84411000D01*
X165196000Y-84451000D02*
X163600000Y-84451000D01*
X161520000Y-84451000D02*
X159924000Y-84451000D01*
X165167000Y-84491000D02*
X163600000Y-84491000D01*
X161520000Y-84491000D02*
X159953000Y-84491000D01*
X165138000Y-84531000D02*
X163600000Y-84531000D01*
X161520000Y-84531000D02*
X159982000Y-84531000D01*
X165108000Y-84571000D02*
X163600000Y-84571000D01*
X161520000Y-84571000D02*
X160012000Y-84571000D01*
X165076000Y-84611000D02*
X163600000Y-84611000D01*
X161520000Y-84611000D02*
X160044000Y-84611000D01*
X165044000Y-84651000D02*
X163600000Y-84651000D01*
X161520000Y-84651000D02*
X160076000Y-84651000D01*
X165010000Y-84691000D02*
X163600000Y-84691000D01*
X161520000Y-84691000D02*
X160110000Y-84691000D01*
X164976000Y-84731000D02*
X163600000Y-84731000D01*
X161520000Y-84731000D02*
X160144000Y-84731000D01*
X164940000Y-84771000D02*
X163600000Y-84771000D01*
X161520000Y-84771000D02*
X160180000Y-84771000D01*
X164903000Y-84811000D02*
X163600000Y-84811000D01*
X161520000Y-84811000D02*
X160217000Y-84811000D01*
X164865000Y-84851000D02*
X163600000Y-84851000D01*
X161520000Y-84851000D02*
X160255000Y-84851000D01*
X164825000Y-84891000D02*
X160295000Y-84891000D01*
X164784000Y-84931000D02*
X160336000Y-84931000D01*
X164742000Y-84971000D02*
X160378000Y-84971000D01*
X164697000Y-85011000D02*
X160423000Y-85011000D01*
X164652000Y-85051000D02*
X160468000Y-85051000D01*
X164604000Y-85091000D02*
X160516000Y-85091000D01*
X164555000Y-85131000D02*
X160565000Y-85131000D01*
X164504000Y-85171000D02*
X160616000Y-85171000D01*
X164450000Y-85211000D02*
X160670000Y-85211000D01*
X164394000Y-85251000D02*
X160726000Y-85251000D01*
X164336000Y-85291000D02*
X160784000Y-85291000D01*
X164274000Y-85331000D02*
X160846000Y-85331000D01*
X164210000Y-85371000D02*
X160910000Y-85371000D01*
X164141000Y-85411000D02*
X160979000Y-85411000D01*
X164069000Y-85451000D02*
X161051000Y-85451000D01*
X163992000Y-85491000D02*
X161128000Y-85491000D01*
X163910000Y-85531000D02*
X161210000Y-85531000D01*
X163822000Y-85571000D02*
X161298000Y-85571000D01*
X163725000Y-85611000D02*
X161395000Y-85611000D01*
X163619000Y-85651000D02*
X161501000Y-85651000D01*
X163500000Y-85691000D02*
X161620000Y-85691000D01*
X163362000Y-85731000D02*
X161758000Y-85731000D01*
X163193000Y-85771000D02*
X161927000Y-85771000D01*
X162962000Y-85811000D02*
X162158000Y-85811000D01*
X165830000Y-82570000D02*
G75*
G03*
X165830000Y-82570000I-3270000J0D01*
G01*
%LPC*%
D16*
X112268000Y-85042000D03*
X121412000Y-85042000D03*
D17*
X114300000Y-99520000D03*
D18*
X116840000Y-99520000D03*
X119380000Y-99520000D03*
D19*
X119380000Y-75136000D03*
D20*
X114300000Y-75136000D03*
D19*
X152460000Y-78740000D03*
D21*
X147320000Y-78740000D03*
D17*
X163830000Y-73660000D03*
D18*
X161290000Y-73660000D03*
D22*
X139700000Y-85057500D03*
D23*
X134620000Y-85057500D03*
X129540000Y-85057500D03*
D24*
X106680000Y-100330000D03*
D25*
X106680000Y-107950000D03*
X107950000Y-114300000D03*
D24*
X115570000Y-114300000D03*
D16*
X190310000Y-76200000D03*
D26*
X173650000Y-73660000D03*
D27*
X173650000Y-76200000D03*
X173650000Y-78740000D03*
D28*
X106680000Y-121920000D03*
D29*
X106680000Y-121920000D03*
D30*
X106680000Y-81320000D03*
D25*
X106680000Y-83820000D03*
D28*
X198120000Y-73660000D03*
D29*
X198120000Y-73660000D03*
D31*
X134540000Y-120650000D03*
X137080000Y-120650000D03*
D18*
X139620000Y-120650000D03*
X142160000Y-120650000D03*
X144700000Y-120650000D03*
X147240000Y-120650000D03*
D32*
X130810000Y-105410000D03*
D33*
X133350000Y-105410000D03*
X135890000Y-105410000D03*
X138430000Y-105410000D03*
X140970000Y-105410000D03*
X143510000Y-105410000D03*
X146050000Y-105410000D03*
D32*
X148590000Y-105410000D03*
X148590000Y-92710000D03*
D33*
X146050000Y-92710000D03*
X143510000Y-92710000D03*
X140970000Y-92710000D03*
X138430000Y-92710000D03*
X135890000Y-92710000D03*
X133350000Y-92710000D03*
X130810000Y-92710000D03*
D25*
X124460000Y-111760000D03*
X129460000Y-111760000D03*
D28*
X198120000Y-121920000D03*
D29*
X198120000Y-121920000D03*
D25*
X134620000Y-111760000D03*
X139620000Y-111760000D03*
D31*
X114220000Y-120650000D03*
X116760000Y-120650000D03*
D18*
X119300000Y-120650000D03*
X121840000Y-120650000D03*
X124380000Y-120650000D03*
X126920000Y-120650000D03*
X170180000Y-121920000D03*
D17*
X157480000Y-121920000D03*
D18*
X172720000Y-121920000D03*
X160020000Y-121920000D03*
X162560000Y-121920000D03*
D31*
X154940000Y-121920000D03*
D18*
X167640000Y-121920000D03*
X165100000Y-121920000D03*
D28*
X106680000Y-73660000D03*
D29*
X106680000Y-73660000D03*
D34*
X154940000Y-91440000D03*
D35*
X157480000Y-91440000D03*
X160020000Y-91440000D03*
X162560000Y-91440000D03*
X165100000Y-91440000D03*
X167640000Y-91440000D03*
X170180000Y-91440000D03*
X172720000Y-91440000D03*
X175260000Y-91440000D03*
X177800000Y-91440000D03*
X180340000Y-91440000D03*
X182880000Y-91440000D03*
X185420000Y-91440000D03*
X187960000Y-91440000D03*
X190500000Y-91440000D03*
X193040000Y-91440000D03*
X195580000Y-91440000D03*
X198120000Y-91440000D03*
X200660000Y-91440000D03*
D34*
X200660000Y-114300000D03*
D35*
X198120000Y-114300000D03*
X195580000Y-114300000D03*
X193040000Y-114300000D03*
X190500000Y-114300000D03*
X187960000Y-114300000D03*
X185420000Y-114300000D03*
X182880000Y-114300000D03*
X180340000Y-114300000D03*
X177800000Y-114300000D03*
X175260000Y-114300000D03*
X172720000Y-114300000D03*
X170180000Y-114300000D03*
X167640000Y-114300000D03*
X165100000Y-114300000D03*
X162560000Y-114300000D03*
X160020000Y-114300000D03*
X157480000Y-114300000D03*
X154940000Y-114300000D03*
D30*
X162560000Y-81320000D03*
D25*
X162560000Y-83820000D03*
M02*
